<?xml version="1.0" encoding="UTF-8"?>
<svg xmlns="http://www.w3.org/2000/svg" xmlns:xlink="http://www.w3.org/1999/xlink" viewBox="0 0 2849.84 1581.05">
  <defs>
    <style>
      .cls-1 {
        fill: #fff;
      }

      .cls-2 {
        stroke: #fff;
        stroke-miterlimit: 10;
      }

      .cls-2, .cls-3, .cls-4 {
        fill: none;
      }

      .cls-5, .cls-6 {
        fill: url(#Nueva_muestra_de_motivo_3);
      }

      .cls-7 {
        isolation: isolate;
      }

      .cls-8 {
        opacity: .05;
      }

      .cls-9 {
        clip-path: url(#clippath-1);
      }

      .cls-6 {
        mix-blend-mode: multiply;
      }

      .cls-4 {
        clip-path: url(#clippath);
      }

      .cls-10 {
        fill: #1a1a1a;
      }
    </style>
    <clipPath id="clippath">
      <rect class="cls-3" x="0" y="0" width="2849.84" height="1581.05" transform="translate(2849.84 1581.05) rotate(-180)"/>
    </clipPath>
    <clipPath id="clippath-1">
      <rect class="cls-4" x="0" y="0" width="2849.84" height="1581.05" transform="translate(2849.84 1581.05) rotate(-180)"/>
    </clipPath>
    <pattern id="Nueva_muestra_de_motivo_3" data-name="Nueva muestra de motivo 3" x="0" y="0" width="344.78" height="237.5" patternTransform="translate(20265.69 -1160.46) rotate(-45) scale(2.72) skewX(-.01)" patternUnits="userSpaceOnUse" viewBox="0 0 344.78 237.5">
      <g>
        <rect class="cls-3" width="344.78" height="237.5"/>
        <g>
          <rect class="cls-10" x="0" y="217.71" width="344.78" height="39.58"/>
          <g>
            <path class="cls-1" d="m18.71,236.46v7.05h6.14v1.54c-.81.58-1.68,1-2.63,1.25-.95.25-1.9.34-2.86.27-.96-.07-1.89-.31-2.8-.71-.9-.4-1.72-.97-2.44-1.69-.81-.81-1.42-1.73-1.84-2.75-.42-1.03-.63-2.07-.63-3.13s.21-2.1.63-3.13c.42-1.03,1.03-1.95,1.84-2.75s1.73-1.41,2.75-1.82c1.03-.4,2.07-.6,3.13-.6s2.1.2,3.13.6c1.03.4,1.95,1.01,2.75,1.82l5.01-5.01c-1.5-1.5-3.2-2.63-5.09-3.38-1.89-.75-3.83-1.13-5.8-1.13s-3.91.38-5.8,1.13c-1.89.75-3.59,1.88-5.09,3.38-1.5,1.5-2.62,3.2-3.36,5.09-.74,1.89-1.11,3.83-1.11,5.8s.37,3.9,1.11,5.78c.74,1.88,1.86,3.57,3.36,5.07s3.2,2.63,5.09,3.38c1.89.75,3.83,1.13,5.8,1.13.81,0,1.62-.06,2.44-.19.82-.13,1.62-.33,2.4-.61v.75h7.1v-17.16h-13.23Z"/>
            <path class="cls-1" d="m49.47,253.62h8.31l-6.76-10.92c1.25-1.03,2.23-2.24,2.92-3.65.7-1.4,1.04-2.93,1.04-4.56s-.33-3.01-.98-4.38c-.65-1.36-1.56-2.56-2.71-3.59-1.15-1.03-2.5-1.85-4.03-2.46-1.53-.61-3.17-.93-4.93-.96h-7.05v30.51h7.05v-7.72c.39-.03.76-.06,1.13-.08.36-.03.72-.07,1.08-.12l4.93,7.93Zm-7.14-23.46c.75.03,1.47.16,2.15.4.68.24,1.28.55,1.79.94.51.39.92.83,1.21,1.34s.44,1.04.44,1.63-.15,1.13-.44,1.65c-.29.52-.7.97-1.21,1.36-.52.39-1.11.7-1.79.94-.68.24-1.4.37-2.15.4v-8.64Z"/>
            <path class="cls-1" d="m85.83,253.62l-9.89-30.64h-6.68l-10.44,30.64h7.47l1.25-3.71h9.64l1.21,3.71h7.43Zm-13.32-18.2l2.42,7.43h-4.97l2.55-7.43Z"/>
            <path class="cls-1" d="m105.57,240.88l-9.98-17.82h-7.68v30.55h7.05v-17.87l10.02,17.87h7.64v-30.64h-7.05v17.91Z"/>
            <path class="cls-1" d="m122.6,222.81h-7.05v30.81h7.05c2.09-.11,4.02-.58,5.8-1.4,1.78-.82,3.33-1.91,4.65-3.28,1.32-1.36,2.36-2.94,3.11-4.74.75-1.79,1.13-3.72,1.13-5.78s-.38-4.05-1.15-5.89c-.77-1.84-1.81-3.45-3.13-4.84-1.32-1.39-2.88-2.52-4.67-3.38-1.79-.86-3.71-1.35-5.74-1.46v-.04Zm0,7.1c1.09.11,2.09.41,3.01.9.92.49,1.73,1.11,2.42,1.88.69.77,1.24,1.64,1.63,2.63.39.99.58,2.02.58,3.11s-.19,2.06-.58,3.01c-.39.95-.93,1.77-1.61,2.48-.68.71-1.49,1.29-2.42,1.75-.93.46-1.94.74-3.03.86v-16.61Z"/>
            <path class="cls-1" d="m158.12,222.98l-19.66.04v30.6h19.66v-7.05h-12.61v-4.84h10.23v-7.05h-10.23v-4.63h12.61v-7.05Z"/>
            <path class="cls-2" d="m180.24,222.98h-18.49v30.64h7.05v-11.9h9.06v-7.05h-9.06v-4.63h11.44v-7.05Z"/>
            <path class="cls-2" d="m197.36,253.62h8.31l-6.76-10.92c1.25-1.03,2.23-2.24,2.92-3.65.7-1.4,1.04-2.93,1.04-4.56s-.33-3.01-.98-4.38c-.65-1.36-1.56-2.56-2.71-3.59-1.15-1.03-2.5-1.85-4.03-2.46-1.53-.61-3.17-.93-4.93-.96h-7.05v30.51h7.05v-7.72c.39-.03.76-.06,1.13-.08.36-.03.72-.07,1.08-.12l4.93,7.93Zm-7.14-23.46c.75.03,1.47.16,2.15.4.68.24,1.28.55,1.79.94.51.39.92.83,1.21,1.34s.44,1.04.44,1.63-.15,1.13-.44,1.65c-.29.52-.7.97-1.21,1.36-.52.39-1.11.7-1.79.94-.68.24-1.4.37-2.15.4v-8.64Z"/>
            <path class="cls-2" d="m216,224.15c-1.86.81-3.48,1.9-4.86,3.28s-2.47,3-3.27,4.86c-.81,1.86-1.21,3.85-1.21,5.97s.4,4.1,1.21,5.97,1.9,3.49,3.27,4.86,2.99,2.47,4.86,3.28c1.86.81,3.85,1.21,5.96,1.21s4.1-.4,5.96-1.21c1.86-.81,3.49-1.9,4.88-3.28,1.39-1.38,2.49-3,3.29-4.86.81-1.86,1.21-3.85,1.21-5.97s-.4-4.1-1.21-5.97c-.81-1.86-1.9-3.49-3.29-4.86-1.39-1.38-3.02-2.47-4.88-3.28-1.86-.81-3.85-1.21-5.96-1.21s-4.1.4-5.96,1.21Zm2.77,21.73c-1-.43-1.88-1.02-2.63-1.77-.75-.75-1.34-1.63-1.77-2.63-.43-1-.65-2.07-.65-3.21s.22-2.21.65-3.21c.43-1,1.02-1.88,1.77-2.63.75-.75,1.63-1.34,2.63-1.77,1-.43,2.07-.65,3.21-.65s2.21.22,3.21.65c1,.43,1.88,1.02,2.63,1.77.75.75,1.34,1.63,1.77,2.63.43,1,.65,2.07.65,3.21s-.22,2.21-.65,3.21c-.43,1-1.02,1.88-1.77,2.63-.75.75-1.63,1.34-2.63,1.77-1,.43-2.07.65-3.21.65s-2.21-.21-3.21-.65Z"/>
            <path class="cls-2" d="m257.09,240.88l-9.98-17.82h-7.68v30.55h7.05v-17.87l10.02,17.87h7.64v-30.64h-7.05v17.91Z"/>
            <path class="cls-2" d="m266.82,222.85v7.05h5.84v23.71h7.05v-23.71h5.89v-7.05h-18.78Z"/>
            <path class="cls-2" d="m307.81,222.98l-19.66.04v30.6h19.66v-7.05h-12.61v-4.84h10.23v-7.05h-10.23v-4.63h12.61v-7.05Z"/>
            <path class="cls-2" d="m318.69,224.15c-1.86.81-3.48,1.9-4.86,3.28s-2.47,3-3.27,4.86c-.81,1.86-1.21,3.85-1.21,5.97s.4,4.1,1.21,5.97,1.9,3.49,3.27,4.86,2.99,2.47,4.86,3.28c1.86.81,3.85,1.21,5.96,1.21s4.1-.4,5.96-1.21c1.86-.81,3.49-1.9,4.88-3.28,1.39-1.38,2.49-3,3.29-4.86.81-1.86,1.21-3.85,1.21-5.97s-.4-4.1-1.21-5.97c-.81-1.86-1.9-3.49-3.29-4.86-1.39-1.38-3.02-2.47-4.88-3.28-1.86-.81-3.85-1.21-5.96-1.21s-4.1.4-5.96,1.21Zm2.77,21.73c-1-.43-1.88-1.02-2.63-1.77-.75-.75-1.34-1.63-1.77-2.63-.43-1-.65-2.07-.65-3.21s.22-2.21.65-3.21c.43-1,1.02-1.88,1.77-2.63.75-.75,1.63-1.34,2.63-1.77,1-.43,2.07-.65,3.21-.65s2.21.22,3.21.65c1,.43,1.88,1.02,2.63,1.77.75.75,1.34,1.63,1.77,2.63.43,1,.65,2.07.65,3.21s-.22,2.21-.65,3.21c-.43,1-1.02,1.88-1.77,2.63-.75.75-1.63,1.34-2.63,1.77-1,.43-2.07.65-3.21.65s-2.21-.21-3.21-.65Z"/>
          </g>
        </g>
        <g>
          <rect class="cls-10" x="114.93" y="178.13" width="344.78" height="39.58"/>
          <g>
            <path class="cls-1" d="m133.63,196.88v7.05h6.14v1.54c-.81.58-1.68,1-2.63,1.25-.95.25-1.9.34-2.86.27-.96-.07-1.89-.31-2.8-.71-.9-.4-1.72-.97-2.44-1.69-.81-.81-1.42-1.73-1.84-2.75-.42-1.03-.63-2.07-.63-3.13s.21-2.1.63-3.13c.42-1.03,1.03-1.95,1.84-2.75s1.73-1.41,2.75-1.82c1.03-.4,2.07-.6,3.13-.6s2.1.2,3.13.6c1.03.4,1.95,1.01,2.75,1.82l5.01-5.01c-1.5-1.5-3.2-2.63-5.09-3.38-1.89-.75-3.83-1.13-5.8-1.13s-3.91.38-5.8,1.13c-1.89.75-3.59,1.88-5.09,3.38-1.5,1.5-2.62,3.2-3.36,5.09-.74,1.89-1.11,3.83-1.11,5.8s.37,3.9,1.11,5.78c.74,1.88,1.86,3.57,3.36,5.07s3.2,2.63,5.09,3.38c1.89.75,3.83,1.13,5.8,1.13.81,0,1.62-.06,2.44-.19.82-.13,1.62-.33,2.4-.61v.75h7.1v-17.16h-13.23Z"/>
            <path class="cls-1" d="m164.4,214.03h8.31l-6.76-10.92c1.25-1.03,2.23-2.24,2.92-3.65.7-1.4,1.04-2.93,1.04-4.56s-.33-3.01-.98-4.38c-.65-1.36-1.56-2.56-2.71-3.59-1.15-1.03-2.5-1.85-4.03-2.46-1.53-.61-3.17-.93-4.93-.96h-7.05v30.51h7.05v-7.72c.39-.03.76-.06,1.13-.08.36-.03.72-.07,1.08-.12l4.93,7.93Zm-7.14-23.46c.75.03,1.47.16,2.15.4.68.24,1.28.55,1.79.94.51.39.92.83,1.21,1.34s.44,1.04.44,1.63-.15,1.13-.44,1.65c-.29.52-.7.97-1.21,1.36-.52.39-1.11.7-1.79.94-.68.24-1.4.37-2.15.4v-8.64Z"/>
            <path class="cls-1" d="m200.75,214.03l-9.89-30.64h-6.68l-10.44,30.64h7.47l1.25-3.71h9.64l1.21,3.71h7.43Zm-13.32-18.2l2.42,7.43h-4.97l2.55-7.43Z"/>
            <path class="cls-1" d="m220.5,201.3l-9.98-17.82h-7.68v30.55h7.05v-17.87l10.02,17.87h7.64v-30.64h-7.05v17.91Z"/>
            <path class="cls-1" d="m237.53,183.23h-7.05v30.81h7.05c2.09-.11,4.02-.58,5.8-1.4,1.78-.82,3.33-1.91,4.65-3.28,1.32-1.36,2.36-2.94,3.11-4.74.75-1.79,1.13-3.72,1.13-5.78s-.38-4.05-1.15-5.89c-.77-1.84-1.81-3.45-3.13-4.84-1.32-1.39-2.88-2.52-4.67-3.38-1.79-.86-3.71-1.35-5.74-1.46v-.04Zm0,7.1c1.09.11,2.09.41,3.01.9.92.49,1.73,1.11,2.42,1.88.69.77,1.24,1.64,1.63,2.63.39.99.58,2.02.58,3.11s-.19,2.06-.58,3.01c-.39.95-.93,1.77-1.61,2.48-.68.71-1.49,1.29-2.42,1.75-.93.46-1.94.74-3.03.86v-16.61Z"/>
            <path class="cls-1" d="m273.05,183.39l-19.66.04v30.6h19.66v-7.05h-12.61v-4.84h10.23v-7.05h-10.23v-4.63h12.61v-7.05Z"/>
            <path class="cls-2" d="m295.17,183.39h-18.49v30.64h7.05v-11.9h9.06v-7.05h-9.06v-4.63h11.44v-7.05Z"/>
            <path class="cls-2" d="m312.29,214.03h8.31l-6.76-10.92c1.25-1.03,2.23-2.24,2.92-3.65.7-1.4,1.04-2.93,1.04-4.56s-.33-3.01-.98-4.38c-.65-1.36-1.56-2.56-2.71-3.59-1.15-1.03-2.5-1.85-4.03-2.46-1.53-.61-3.17-.93-4.93-.96h-7.05v30.51h7.05v-7.72c.39-.03.76-.06,1.13-.08.36-.03.72-.07,1.08-.12l4.93,7.93Zm-7.14-23.46c.75.03,1.47.16,2.15.4.68.24,1.28.55,1.79.94.51.39.92.83,1.21,1.34s.44,1.04.44,1.63-.15,1.13-.44,1.65c-.29.52-.7.97-1.21,1.36-.52.39-1.11.7-1.79.94-.68.24-1.4.37-2.15.4v-8.64Z"/>
            <path class="cls-2" d="m330.93,184.56c-1.86.81-3.48,1.9-4.86,3.28s-2.47,3-3.27,4.86c-.81,1.86-1.21,3.85-1.21,5.97s.4,4.1,1.21,5.97,1.9,3.49,3.27,4.86,2.99,2.47,4.86,3.28c1.86.81,3.85,1.21,5.96,1.21s4.1-.4,5.96-1.21c1.86-.81,3.49-1.9,4.88-3.28,1.39-1.38,2.49-3,3.29-4.86.81-1.86,1.21-3.85,1.21-5.97s-.4-4.1-1.21-5.97c-.81-1.86-1.9-3.49-3.29-4.86-1.39-1.38-3.02-2.47-4.88-3.28-1.86-.81-3.85-1.21-5.96-1.21s-4.1.4-5.96,1.21Zm2.77,21.73c-1-.43-1.88-1.02-2.63-1.77-.75-.75-1.34-1.63-1.77-2.63-.43-1-.65-2.07-.65-3.21s.22-2.21.65-3.21c.43-1,1.02-1.88,1.77-2.63.75-.75,1.63-1.34,2.63-1.77,1-.43,2.07-.65,3.21-.65s2.21.22,3.21.65c1,.43,1.88,1.02,2.63,1.77.75.75,1.34,1.63,1.77,2.63.43,1,.65,2.07.65,3.21s-.22,2.21-.65,3.21c-.43,1-1.02,1.88-1.77,2.63-.75.75-1.63,1.34-2.63,1.77-1,.43-2.07.65-3.21.65s-2.21-.21-3.21-.65Z"/>
          </g>
        </g>
        <g>
          <rect class="cls-10" x="-229.85" y="178.13" width="344.78" height="39.58"/>
          <g>
            <path class="cls-2" d="m-13.85,184.56c-1.86.81-3.48,1.9-4.86,3.28s-2.47,3-3.27,4.86c-.81,1.86-1.21,3.85-1.21,5.97s.4,4.1,1.21,5.97,1.9,3.49,3.27,4.86,2.99,2.47,4.86,3.28c1.86.81,3.85,1.21,5.96,1.21s4.1-.4,5.96-1.21c1.86-.81,3.49-1.9,4.88-3.28,1.39-1.38,2.49-3,3.29-4.86.81-1.86,1.21-3.85,1.21-5.97s-.4-4.1-1.21-5.97c-.81-1.86-1.9-3.49-3.29-4.86-1.39-1.38-3.02-2.47-4.88-3.28-1.86-.81-3.85-1.21-5.96-1.21s-4.1.4-5.96,1.21Zm2.77,21.73c-1-.43-1.88-1.02-2.63-1.77-.75-.75-1.34-1.63-1.77-2.63-.43-1-.65-2.07-.65-3.21s.22-2.21.65-3.21c.43-1,1.02-1.88,1.77-2.63.75-.75,1.63-1.34,2.63-1.77,1-.43,2.07-.65,3.21-.65s2.21.22,3.21.65c1,.43,1.88,1.02,2.63,1.77.75.75,1.34,1.63,1.77,2.63.43,1,.65,2.07.65,3.21s-.22,2.21-.65,3.21c-.43,1-1.02,1.88-1.77,2.63-.75.75-1.63,1.34-2.63,1.77-1,.43-2.07.65-3.21.65s-2.21-.21-3.21-.65Z"/>
            <path class="cls-2" d="m27.24,201.3l-9.98-17.82h-7.68v30.55h7.05v-17.87l10.02,17.87h7.64v-30.64h-7.05v17.91Z"/>
            <path class="cls-2" d="m36.96,183.27v7.05h5.84v23.71h7.05v-23.71h5.89v-7.05h-18.78Z"/>
            <path class="cls-2" d="m77.95,183.39l-19.66.04v30.6h19.66v-7.05h-12.61v-4.84h10.23v-7.05h-10.23v-4.63h12.61v-7.05Z"/>
            <path class="cls-2" d="m88.83,184.56c-1.86.81-3.48,1.9-4.86,3.28s-2.47,3-3.27,4.86c-.81,1.86-1.21,3.85-1.21,5.97s.4,4.1,1.21,5.97,1.9,3.49,3.27,4.86,2.99,2.47,4.86,3.28c1.86.81,3.85,1.21,5.96,1.21s4.1-.4,5.96-1.21c1.86-.81,3.49-1.9,4.88-3.28,1.39-1.38,2.49-3,3.29-4.86.81-1.86,1.21-3.85,1.21-5.97s-.4-4.1-1.21-5.97c-.81-1.86-1.9-3.49-3.29-4.86-1.39-1.38-3.02-2.47-4.88-3.28-1.86-.81-3.85-1.21-5.96-1.21s-4.1.4-5.96,1.21Zm2.77,21.73c-1-.43-1.88-1.02-2.63-1.77-.75-.75-1.34-1.63-1.77-2.63-.43-1-.65-2.07-.65-3.21s.22-2.21.65-3.21c.43-1,1.02-1.88,1.77-2.63.75-.75,1.63-1.34,2.63-1.77,1-.43,2.07-.65,3.21-.65s2.21.22,3.21.65c1,.43,1.88,1.02,2.63,1.77.75.75,1.34,1.63,1.77,2.63.43,1,.65,2.07.65,3.21s-.22,2.21-.65,3.21c-.43,1-1.02,1.88-1.77,2.63-.75.75-1.63,1.34-2.63,1.77-1,.43-2.07.65-3.21.65s-2.21-.21-3.21-.65Z"/>
          </g>
        </g>
        <g>
          <rect class="cls-10" x="229.85" y="138.54" width="344.78" height="39.58"/>
          <g>
            <path class="cls-1" d="m248.56,157.29v7.05h6.14v1.54c-.81.58-1.68,1-2.63,1.25-.95.25-1.9.34-2.86.27-.96-.07-1.89-.31-2.8-.71-.9-.4-1.72-.97-2.44-1.69-.81-.81-1.42-1.73-1.84-2.75-.42-1.03-.63-2.07-.63-3.13s.21-2.1.63-3.13c.42-1.03,1.03-1.95,1.84-2.75s1.73-1.41,2.75-1.82c1.03-.4,2.07-.6,3.13-.6s2.1.2,3.13.6c1.03.4,1.95,1.01,2.75,1.82l5.01-5.01c-1.5-1.5-3.2-2.63-5.09-3.38-1.89-.75-3.83-1.13-5.8-1.13s-3.91.38-5.8,1.13c-1.89.75-3.59,1.88-5.09,3.38-1.5,1.5-2.62,3.2-3.36,5.09-.74,1.89-1.11,3.83-1.11,5.8s.37,3.9,1.11,5.78c.74,1.88,1.86,3.57,3.36,5.07s3.2,2.63,5.09,3.38c1.89.75,3.83,1.13,5.8,1.13.81,0,1.62-.06,2.44-.19.82-.13,1.62-.33,2.4-.61v.75h7.1v-17.16h-13.23Z"/>
            <path class="cls-1" d="m279.32,174.45h8.31l-6.76-10.92c1.25-1.03,2.23-2.24,2.92-3.65.7-1.4,1.04-2.93,1.04-4.56s-.33-3.01-.98-4.38c-.65-1.36-1.56-2.56-2.71-3.59-1.15-1.03-2.5-1.85-4.03-2.46-1.53-.61-3.17-.93-4.93-.96h-7.05v30.51h7.05v-7.72c.39-.03.76-.06,1.13-.08.36-.03.72-.07,1.08-.12l4.93,7.93Zm-7.14-23.46c.75.03,1.47.16,2.15.4.68.24,1.28.55,1.79.94.51.39.92.83,1.21,1.34s.44,1.04.44,1.63-.15,1.13-.44,1.65c-.29.52-.7.97-1.21,1.36-.52.39-1.11.7-1.79.94-.68.24-1.4.37-2.15.4v-8.64Z"/>
            <path class="cls-1" d="m315.68,174.45l-9.89-30.64h-6.68l-10.44,30.64h7.47l1.25-3.71h9.64l1.21,3.71h7.43Zm-13.32-18.2l2.42,7.43h-4.97l2.55-7.43Z"/>
            <path class="cls-1" d="m335.42,161.72l-9.98-17.82h-7.68v30.55h7.05v-17.87l10.02,17.87h7.64v-30.64h-7.05v17.91Z"/>
          </g>
        </g>
        <g>
          <rect class="cls-10" x="-114.93" y="138.54" width="344.78" height="39.58"/>
          <g>
            <path class="cls-1" d="m7.67,143.64H.62v30.81h7.05c2.09-.11,4.02-.58,5.8-1.4,1.78-.82,3.33-1.91,4.65-3.28,1.32-1.36,2.36-2.94,3.11-4.74.75-1.79,1.13-3.72,1.13-5.78s-.38-4.05-1.15-5.89c-.77-1.84-1.81-3.45-3.13-4.84-1.32-1.39-2.88-2.52-4.67-3.38-1.79-.86-3.71-1.35-5.74-1.46v-.04Zm0,7.1c1.09.11,2.09.41,3.01.9.92.49,1.73,1.11,2.42,1.88.69.77,1.24,1.64,1.63,2.63.39.99.58,2.02.58,3.11s-.19,2.06-.58,3.01c-.39.95-.93,1.77-1.61,2.48-.68.71-1.49,1.29-2.42,1.75-.93.46-1.94.74-3.03.86v-16.61Z"/>
            <path class="cls-1" d="m43.2,143.81l-19.66.04v30.6h19.66v-7.05h-12.61v-4.84h10.23v-7.05h-10.23v-4.63h12.61v-7.05Z"/>
            <path class="cls-2" d="m65.32,143.81h-18.49v30.64h7.05v-11.9h9.06v-7.05h-9.06v-4.63h11.44v-7.05Z"/>
            <path class="cls-2" d="m82.43,174.45h8.31l-6.76-10.92c1.25-1.03,2.23-2.24,2.92-3.65.7-1.4,1.04-2.93,1.04-4.56s-.33-3.01-.98-4.38c-.65-1.36-1.56-2.56-2.71-3.59-1.15-1.03-2.5-1.85-4.03-2.46-1.53-.61-3.17-.93-4.93-.96h-7.05v30.51h7.05v-7.72c.39-.03.76-.06,1.13-.08.36-.03.72-.07,1.08-.12l4.93,7.93Zm-7.14-23.46c.75.03,1.47.16,2.15.4.68.24,1.28.55,1.79.94.51.39.92.83,1.21,1.34s.44,1.04.44,1.63-.15,1.13-.44,1.65c-.29.52-.7.97-1.21,1.36-.52.39-1.11.7-1.79.94-.68.24-1.4.37-2.15.4v-8.64Z"/>
            <path class="cls-2" d="m101.08,144.98c-1.86.81-3.48,1.9-4.86,3.28s-2.47,3-3.27,4.86c-.81,1.86-1.21,3.85-1.21,5.97s.4,4.1,1.21,5.97,1.9,3.49,3.27,4.86,2.99,2.47,4.86,3.28c1.86.81,3.85,1.21,5.96,1.21s4.1-.4,5.96-1.21c1.86-.81,3.49-1.9,4.88-3.28,1.39-1.38,2.49-3,3.29-4.86.81-1.86,1.21-3.85,1.21-5.97s-.4-4.1-1.21-5.97c-.81-1.86-1.9-3.49-3.29-4.86-1.39-1.38-3.02-2.47-4.88-3.28-1.86-.81-3.85-1.21-5.96-1.21s-4.1.4-5.96,1.21Zm2.77,21.73c-1-.43-1.88-1.02-2.63-1.77-.75-.75-1.34-1.63-1.77-2.63-.43-1-.65-2.07-.65-3.21s.22-2.21.65-3.21c.43-1,1.02-1.88,1.77-2.63.75-.75,1.63-1.34,2.63-1.77,1-.43,2.07-.65,3.21-.65s2.21.22,3.21.65c1,.43,1.88,1.02,2.63,1.77.75.75,1.34,1.63,1.77,2.63.43,1,.65,2.07.65,3.21s-.22,2.21-.65,3.21c-.43,1-1.02,1.88-1.77,2.63-.75.75-1.63,1.34-2.63,1.77-1,.43-2.07.65-3.21.65s-2.21-.21-3.21-.65Z"/>
            <path class="cls-2" d="m142.16,161.72l-9.98-17.82h-7.68v30.55h7.05v-17.87l10.02,17.87h7.64v-30.64h-7.05v17.91Z"/>
            <path class="cls-2" d="m151.89,143.68v7.05h5.84v23.71h7.05v-23.71h5.89v-7.05h-18.78Z"/>
            <path class="cls-2" d="m192.88,143.81l-19.66.04v30.6h19.66v-7.05h-12.61v-4.84h10.23v-7.05h-10.23v-4.63h12.61v-7.05Z"/>
            <path class="cls-2" d="m203.76,144.98c-1.86.81-3.48,1.9-4.86,3.28s-2.47,3-3.27,4.86c-.81,1.86-1.21,3.85-1.21,5.97s.4,4.1,1.21,5.97,1.9,3.49,3.27,4.86,2.99,2.47,4.86,3.28c1.86.81,3.85,1.21,5.96,1.21s4.1-.4,5.96-1.21c1.86-.81,3.49-1.9,4.88-3.28,1.39-1.38,2.49-3,3.29-4.86.81-1.86,1.21-3.85,1.21-5.97s-.4-4.1-1.21-5.97c-.81-1.86-1.9-3.49-3.29-4.86-1.39-1.38-3.02-2.47-4.88-3.28-1.86-.81-3.85-1.21-5.96-1.21s-4.1.4-5.96,1.21Zm2.77,21.73c-1-.43-1.88-1.02-2.63-1.77-.75-.75-1.34-1.63-1.77-2.63-.43-1-.65-2.07-.65-3.21s.22-2.21.65-3.21c.43-1,1.02-1.88,1.77-2.63.75-.75,1.63-1.34,2.63-1.77,1-.43,2.07-.65,3.21-.65s2.21.22,3.21.65c1,.43,1.88,1.02,2.63,1.77.75.75,1.34,1.63,1.77,2.63.43,1,.65,2.07.65,3.21s-.22,2.21-.65,3.21c-.43,1-1.02,1.88-1.77,2.63-.75.75-1.63,1.34-2.63,1.77-1,.43-2.07.65-3.21.65s-2.21-.21-3.21-.65Z"/>
          </g>
        </g>
        <g>
          <rect class="cls-10" x="0" y="98.96" width="344.78" height="39.58"/>
          <g>
            <path class="cls-1" d="m18.71,117.71v7.05h6.14v1.54c-.81.58-1.68,1-2.63,1.25-.95.25-1.9.34-2.86.27-.96-.07-1.89-.31-2.8-.71-.9-.4-1.72-.97-2.44-1.69-.81-.81-1.42-1.73-1.84-2.75-.42-1.03-.63-2.07-.63-3.13s.21-2.1.63-3.13c.42-1.03,1.03-1.95,1.84-2.75s1.73-1.41,2.75-1.82c1.03-.4,2.07-.6,3.13-.6s2.1.2,3.13.6c1.03.4,1.95,1.01,2.75,1.82l5.01-5.01c-1.5-1.5-3.2-2.63-5.09-3.38-1.89-.75-3.83-1.13-5.8-1.13s-3.91.38-5.8,1.13c-1.89.75-3.59,1.88-5.09,3.38-1.5,1.5-2.62,3.2-3.36,5.09-.74,1.89-1.11,3.83-1.11,5.8s.37,3.9,1.11,5.78c.74,1.88,1.86,3.57,3.36,5.07s3.2,2.63,5.09,3.38c1.89.75,3.83,1.13,5.8,1.13.81,0,1.62-.06,2.44-.19.82-.13,1.62-.33,2.4-.61v.75h7.1v-17.16h-13.23Z"/>
            <path class="cls-1" d="m49.47,134.86h8.31l-6.76-10.92c1.25-1.03,2.23-2.24,2.92-3.65.7-1.4,1.04-2.93,1.04-4.56s-.33-3.01-.98-4.38c-.65-1.36-1.56-2.56-2.71-3.59-1.15-1.03-2.5-1.85-4.03-2.46-1.53-.61-3.17-.93-4.93-.96h-7.05v30.51h7.05v-7.72c.39-.03.76-.06,1.13-.08.36-.03.72-.07,1.08-.12l4.93,7.93Zm-7.14-23.46c.75.03,1.47.16,2.15.4.68.24,1.28.55,1.79.94.51.39.92.83,1.21,1.34s.44,1.04.44,1.63-.15,1.13-.44,1.65c-.29.52-.7.97-1.21,1.36-.52.39-1.11.7-1.79.94-.68.24-1.4.37-2.15.4v-8.64Z"/>
            <path class="cls-1" d="m85.83,134.86l-9.89-30.64h-6.68l-10.44,30.64h7.47l1.25-3.71h9.64l1.21,3.71h7.43Zm-13.32-18.2l2.42,7.43h-4.97l2.55-7.43Z"/>
            <path class="cls-1" d="m105.57,122.13l-9.98-17.82h-7.68v30.55h7.05v-17.87l10.02,17.87h7.64v-30.64h-7.05v17.91Z"/>
            <path class="cls-1" d="m122.6,104.06h-7.05v30.81h7.05c2.09-.11,4.02-.58,5.8-1.4,1.78-.82,3.33-1.91,4.65-3.28,1.32-1.36,2.36-2.94,3.11-4.74.75-1.79,1.13-3.72,1.13-5.78s-.38-4.05-1.15-5.89c-.77-1.84-1.81-3.45-3.13-4.84-1.32-1.39-2.88-2.52-4.67-3.38-1.79-.86-3.71-1.35-5.74-1.46v-.04Zm0,7.1c1.09.11,2.09.41,3.01.9.92.49,1.73,1.11,2.42,1.88.69.77,1.24,1.64,1.63,2.63.39.99.58,2.02.58,3.11s-.19,2.06-.58,3.01c-.39.95-.93,1.77-1.61,2.48-.68.71-1.49,1.29-2.42,1.75-.93.46-1.94.74-3.03.86v-16.61Z"/>
            <path class="cls-1" d="m158.12,104.22l-19.66.04v30.6h19.66v-7.05h-12.61v-4.84h10.23v-7.05h-10.23v-4.63h12.61v-7.05Z"/>
            <path class="cls-2" d="m180.24,104.22h-18.49v30.64h7.05v-11.9h9.06v-7.05h-9.06v-4.63h11.44v-7.05Z"/>
            <path class="cls-2" d="m197.36,134.86h8.31l-6.76-10.92c1.25-1.03,2.23-2.24,2.92-3.65.7-1.4,1.04-2.93,1.04-4.56s-.33-3.01-.98-4.38c-.65-1.36-1.56-2.56-2.71-3.59-1.15-1.03-2.5-1.85-4.03-2.46-1.53-.61-3.17-.93-4.93-.96h-7.05v30.51h7.05v-7.72c.39-.03.76-.06,1.13-.08.36-.03.72-.07,1.08-.12l4.93,7.93Zm-7.14-23.46c.75.03,1.47.16,2.15.4.68.24,1.28.55,1.79.94.51.39.92.83,1.21,1.34s.44,1.04.44,1.63-.15,1.13-.44,1.65c-.29.52-.7.97-1.21,1.36-.52.39-1.11.7-1.79.94-.68.24-1.4.37-2.15.4v-8.64Z"/>
            <path class="cls-2" d="m216,105.39c-1.86.81-3.48,1.9-4.86,3.28s-2.47,3-3.27,4.86c-.81,1.86-1.21,3.85-1.21,5.97s.4,4.1,1.21,5.97,1.9,3.49,3.27,4.86,2.99,2.47,4.86,3.28c1.86.81,3.85,1.21,5.96,1.21s4.1-.4,5.96-1.21c1.86-.81,3.49-1.9,4.88-3.28,1.39-1.38,2.49-3,3.29-4.86.81-1.86,1.21-3.85,1.21-5.97s-.4-4.1-1.21-5.97c-.81-1.86-1.9-3.49-3.29-4.86-1.39-1.38-3.02-2.47-4.88-3.28-1.86-.81-3.85-1.21-5.96-1.21s-4.1.4-5.96,1.21Zm2.77,21.73c-1-.43-1.88-1.02-2.63-1.77-.75-.75-1.34-1.63-1.77-2.63-.43-1-.65-2.07-.65-3.21s.22-2.21.65-3.21c.43-1,1.02-1.88,1.77-2.63.75-.75,1.63-1.34,2.63-1.77,1-.43,2.07-.65,3.21-.65s2.21.22,3.21.65c1,.43,1.88,1.02,2.63,1.77.75.75,1.34,1.63,1.77,2.63.43,1,.65,2.07.65,3.21s-.22,2.21-.65,3.21c-.43,1-1.02,1.88-1.77,2.63-.75.75-1.63,1.34-2.63,1.77-1,.43-2.07.65-3.21.65s-2.21-.21-3.21-.65Z"/>
            <path class="cls-2" d="m257.09,122.13l-9.98-17.82h-7.68v30.55h7.05v-17.87l10.02,17.87h7.64v-30.64h-7.05v17.91Z"/>
            <path class="cls-2" d="m266.82,104.1v7.05h5.84v23.71h7.05v-23.71h5.89v-7.05h-18.78Z"/>
            <path class="cls-2" d="m307.81,104.22l-19.66.04v30.6h19.66v-7.05h-12.61v-4.84h10.23v-7.05h-10.23v-4.63h12.61v-7.05Z"/>
            <path class="cls-2" d="m318.69,105.39c-1.86.81-3.48,1.9-4.86,3.28s-2.47,3-3.27,4.86c-.81,1.86-1.21,3.85-1.21,5.97s.4,4.1,1.21,5.97,1.9,3.49,3.27,4.86,2.99,2.47,4.86,3.28c1.86.81,3.85,1.21,5.96,1.21s4.1-.4,5.96-1.21c1.86-.81,3.49-1.9,4.88-3.28,1.39-1.38,2.49-3,3.29-4.86.81-1.86,1.21-3.85,1.21-5.97s-.4-4.1-1.21-5.97c-.81-1.86-1.9-3.49-3.29-4.86-1.39-1.38-3.02-2.47-4.88-3.28-1.86-.81-3.85-1.21-5.96-1.21s-4.1.4-5.96,1.21Zm2.77,21.73c-1-.43-1.88-1.02-2.63-1.77-.75-.75-1.34-1.63-1.77-2.63-.43-1-.65-2.07-.65-3.21s.22-2.21.65-3.21c.43-1,1.02-1.88,1.77-2.63.75-.75,1.63-1.34,2.63-1.77,1-.43,2.07-.65,3.21-.65s2.21.22,3.21.65c1,.43,1.88,1.02,2.63,1.77.75.75,1.34,1.63,1.77,2.63.43,1,.65,2.07.65,3.21s-.22,2.21-.65,3.21c-.43,1-1.02,1.88-1.77,2.63-.75.75-1.63,1.34-2.63,1.77-1,.43-2.07.65-3.21.65s-2.21-.21-3.21-.65Z"/>
          </g>
        </g>
        <g>
          <rect class="cls-10" x="114.93" y="59.38" width="344.78" height="39.58"/>
          <g>
            <path class="cls-1" d="m133.63,78.12v7.05h6.14v1.54c-.81.58-1.68,1-2.63,1.25-.95.25-1.9.34-2.86.27-.96-.07-1.89-.31-2.8-.71-.9-.4-1.72-.97-2.44-1.69-.81-.81-1.42-1.73-1.84-2.75-.42-1.03-.63-2.07-.63-3.13s.21-2.1.63-3.13c.42-1.03,1.03-1.95,1.84-2.75s1.73-1.41,2.75-1.82c1.03-.4,2.07-.6,3.13-.6s2.1.2,3.13.6c1.03.4,1.95,1.01,2.75,1.82l5.01-5.01c-1.5-1.5-3.2-2.63-5.09-3.38-1.89-.75-3.83-1.13-5.8-1.13s-3.91.38-5.8,1.13c-1.89.75-3.59,1.88-5.09,3.38-1.5,1.5-2.62,3.2-3.36,5.09-.74,1.89-1.11,3.83-1.11,5.8s.37,3.9,1.11,5.78c.74,1.88,1.86,3.57,3.36,5.07s3.2,2.63,5.09,3.38c1.89.75,3.83,1.13,5.8,1.13.81,0,1.62-.06,2.44-.19.82-.13,1.62-.33,2.4-.61v.75h7.1v-17.16h-13.23Z"/>
            <path class="cls-1" d="m164.4,95.28h8.31l-6.76-10.92c1.25-1.03,2.23-2.24,2.92-3.65.7-1.4,1.04-2.93,1.04-4.56s-.33-3.01-.98-4.38c-.65-1.36-1.56-2.56-2.71-3.59-1.15-1.03-2.5-1.85-4.03-2.46-1.53-.61-3.17-.93-4.93-.96h-7.05v30.51h7.05v-7.72c.39-.03.76-.06,1.13-.08.36-.03.72-.07,1.08-.12l4.93,7.93Zm-7.14-23.46c.75.03,1.47.16,2.15.4.68.24,1.28.55,1.79.94.51.39.92.83,1.21,1.34s.44,1.04.44,1.63-.15,1.13-.44,1.65c-.29.52-.7.97-1.21,1.36-.52.39-1.11.7-1.79.94-.68.24-1.4.37-2.15.4v-8.64Z"/>
            <path class="cls-1" d="m200.75,95.28l-9.89-30.64h-6.68l-10.44,30.64h7.47l1.25-3.71h9.64l1.21,3.71h7.43Zm-13.32-18.2l2.42,7.43h-4.97l2.55-7.43Z"/>
            <path class="cls-1" d="m220.5,82.55l-9.98-17.82h-7.68v30.55h7.05v-17.87l10.02,17.87h7.64v-30.64h-7.05v17.91Z"/>
            <path class="cls-1" d="m237.53,64.47h-7.05v30.81h7.05c2.09-.11,4.02-.58,5.8-1.4,1.78-.82,3.33-1.91,4.65-3.28,1.32-1.36,2.36-2.94,3.11-4.74.75-1.79,1.13-3.72,1.13-5.78s-.38-4.05-1.15-5.89c-.77-1.84-1.81-3.45-3.13-4.84-1.32-1.39-2.88-2.52-4.67-3.38-1.79-.86-3.71-1.35-5.74-1.46v-.04Zm0,7.1c1.09.11,2.09.41,3.01.9.92.49,1.73,1.11,2.42,1.88.69.77,1.24,1.64,1.63,2.63.39.99.58,2.02.58,3.11s-.19,2.06-.58,3.01c-.39.95-.93,1.77-1.61,2.48-.68.71-1.49,1.29-2.42,1.75-.93.46-1.94.74-3.03.86v-16.61Z"/>
            <path class="cls-1" d="m273.05,64.64l-19.66.04v30.6h19.66v-7.05h-12.61v-4.84h10.23v-7.05h-10.23v-4.63h12.61v-7.05Z"/>
            <path class="cls-2" d="m295.17,64.64h-18.49v30.64h7.05v-11.9h9.06v-7.05h-9.06v-4.63h11.44v-7.05Z"/>
            <path class="cls-2" d="m312.29,95.28h8.31l-6.76-10.92c1.25-1.03,2.23-2.24,2.92-3.65.7-1.4,1.04-2.93,1.04-4.56s-.33-3.01-.98-4.38c-.65-1.36-1.56-2.56-2.71-3.59-1.15-1.03-2.5-1.85-4.03-2.46-1.53-.61-3.17-.93-4.93-.96h-7.05v30.51h7.05v-7.72c.39-.03.76-.06,1.13-.08.36-.03.72-.07,1.08-.12l4.93,7.93Zm-7.14-23.46c.75.03,1.47.16,2.15.4.68.24,1.28.55,1.79.94.51.39.92.83,1.21,1.34s.44,1.04.44,1.63-.15,1.13-.44,1.65c-.29.52-.7.97-1.21,1.36-.52.39-1.11.7-1.79.94-.68.24-1.4.37-2.15.4v-8.64Z"/>
            <path class="cls-2" d="m330.93,65.81c-1.86.81-3.48,1.9-4.86,3.28s-2.47,3-3.27,4.86c-.81,1.86-1.21,3.85-1.21,5.97s.4,4.1,1.21,5.97,1.9,3.49,3.27,4.86,2.99,2.47,4.86,3.28c1.86.81,3.85,1.21,5.96,1.21s4.1-.4,5.96-1.21c1.86-.81,3.49-1.9,4.88-3.28,1.39-1.38,2.49-3,3.29-4.86.81-1.86,1.21-3.85,1.21-5.97s-.4-4.1-1.21-5.97c-.81-1.86-1.9-3.49-3.29-4.86-1.39-1.38-3.02-2.47-4.88-3.28-1.86-.81-3.85-1.21-5.96-1.21s-4.1.4-5.96,1.21Zm2.77,21.73c-1-.43-1.88-1.02-2.63-1.77-.75-.75-1.34-1.63-1.77-2.63-.43-1-.65-2.07-.65-3.21s.22-2.21.65-3.21c.43-1,1.02-1.88,1.77-2.63.75-.75,1.63-1.34,2.63-1.77,1-.43,2.07-.65,3.21-.65s2.21.22,3.21.65c1,.43,1.88,1.02,2.63,1.77.75.75,1.34,1.63,1.77,2.63.43,1,.65,2.07.65,3.21s-.22,2.21-.65,3.21c-.43,1-1.02,1.88-1.77,2.63-.75.75-1.63,1.34-2.63,1.77-1,.43-2.07.65-3.21.65s-2.21-.21-3.21-.65Z"/>
          </g>
        </g>
        <g>
          <rect class="cls-10" x="-229.85" y="59.38" width="344.78" height="39.58"/>
          <g>
            <path class="cls-2" d="m-13.85,65.81c-1.86.81-3.48,1.9-4.86,3.28s-2.47,3-3.27,4.86c-.81,1.86-1.21,3.85-1.21,5.97s.4,4.1,1.21,5.97,1.9,3.49,3.27,4.86,2.99,2.47,4.86,3.28c1.86.81,3.85,1.21,5.96,1.21s4.1-.4,5.96-1.21c1.86-.81,3.49-1.9,4.88-3.28,1.39-1.38,2.49-3,3.29-4.86.81-1.86,1.21-3.85,1.21-5.97s-.4-4.1-1.21-5.97c-.81-1.86-1.9-3.49-3.29-4.86-1.39-1.38-3.02-2.47-4.88-3.28-1.86-.81-3.85-1.21-5.96-1.21s-4.1.4-5.96,1.21Zm2.77,21.73c-1-.43-1.88-1.02-2.63-1.77-.75-.75-1.34-1.63-1.77-2.63-.43-1-.65-2.07-.65-3.21s.22-2.21.65-3.21c.43-1,1.02-1.88,1.77-2.63.75-.75,1.63-1.34,2.63-1.77,1-.43,2.07-.65,3.21-.65s2.21.22,3.21.65c1,.43,1.88,1.02,2.63,1.77.75.75,1.34,1.63,1.77,2.63.43,1,.65,2.07.65,3.21s-.22,2.21-.65,3.21c-.43,1-1.02,1.88-1.77,2.63-.75.75-1.63,1.34-2.63,1.77-1,.43-2.07.65-3.21.65s-2.21-.21-3.21-.65Z"/>
            <path class="cls-2" d="m27.24,82.55l-9.98-17.82h-7.68v30.55h7.05v-17.87l10.02,17.87h7.64v-30.64h-7.05v17.91Z"/>
            <path class="cls-2" d="m36.96,64.52v7.05h5.84v23.71h7.05v-23.71h5.89v-7.05h-18.78Z"/>
            <path class="cls-2" d="m77.95,64.64l-19.66.04v30.6h19.66v-7.05h-12.61v-4.84h10.23v-7.05h-10.23v-4.63h12.61v-7.05Z"/>
            <path class="cls-2" d="m88.83,65.81c-1.86.81-3.48,1.9-4.86,3.28s-2.47,3-3.27,4.86c-.81,1.86-1.21,3.85-1.21,5.97s.4,4.1,1.21,5.97,1.9,3.49,3.27,4.86,2.99,2.47,4.86,3.28c1.86.81,3.85,1.21,5.96,1.21s4.1-.4,5.96-1.21c1.86-.81,3.49-1.9,4.88-3.28,1.39-1.38,2.49-3,3.29-4.86.81-1.86,1.21-3.85,1.21-5.97s-.4-4.1-1.21-5.97c-.81-1.86-1.9-3.49-3.29-4.86-1.39-1.38-3.02-2.47-4.88-3.28-1.86-.81-3.85-1.21-5.96-1.21s-4.1.4-5.96,1.21Zm2.77,21.73c-1-.43-1.88-1.02-2.63-1.77-.75-.75-1.34-1.63-1.77-2.63-.43-1-.65-2.07-.65-3.21s.22-2.21.65-3.21c.43-1,1.02-1.88,1.77-2.63.75-.75,1.63-1.34,2.63-1.77,1-.43,2.07-.65,3.21-.65s2.21.22,3.21.65c1,.43,1.88,1.02,2.63,1.77.75.75,1.34,1.63,1.77,2.63.43,1,.65,2.07.65,3.21s-.22,2.21-.65,3.21c-.43,1-1.02,1.88-1.77,2.63-.75.75-1.63,1.34-2.63,1.77-1,.43-2.07.65-3.21.65s-2.21-.21-3.21-.65Z"/>
          </g>
        </g>
        <g>
          <rect class="cls-10" x="229.85" y="19.79" width="344.78" height="39.58"/>
          <g>
            <path class="cls-1" d="m248.56,38.54v7.05h6.14v1.54c-.81.58-1.68,1-2.63,1.25-.95.25-1.9.34-2.86.27-.96-.07-1.89-.31-2.8-.71-.9-.4-1.72-.97-2.44-1.69-.81-.81-1.42-1.73-1.84-2.75-.42-1.03-.63-2.07-.63-3.13s.21-2.1.63-3.13c.42-1.03,1.03-1.95,1.84-2.75s1.73-1.41,2.75-1.82c1.03-.4,2.07-.6,3.13-.6s2.1.2,3.13.6c1.03.4,1.95,1.01,2.75,1.82l5.01-5.01c-1.5-1.5-3.2-2.63-5.09-3.38-1.89-.75-3.83-1.13-5.8-1.13s-3.91.38-5.8,1.13c-1.89.75-3.59,1.88-5.09,3.38-1.5,1.5-2.62,3.2-3.36,5.09-.74,1.89-1.11,3.83-1.11,5.8s.37,3.9,1.11,5.78c.74,1.88,1.86,3.57,3.36,5.07s3.2,2.63,5.09,3.38c1.89.75,3.83,1.13,5.8,1.13.81,0,1.62-.06,2.44-.19.82-.13,1.62-.33,2.4-.61v.75h7.1v-17.16h-13.23Z"/>
            <path class="cls-1" d="m279.32,55.69h8.31l-6.76-10.92c1.25-1.03,2.23-2.24,2.92-3.65.7-1.4,1.04-2.93,1.04-4.56s-.33-3.01-.98-4.38c-.65-1.36-1.56-2.56-2.71-3.59-1.15-1.03-2.5-1.85-4.03-2.46-1.53-.61-3.17-.93-4.93-.96h-7.05v30.51h7.05v-7.72c.39-.03.76-.06,1.13-.08.36-.03.72-.07,1.08-.12l4.93,7.93Zm-7.14-23.46c.75.03,1.47.16,2.15.4.68.24,1.28.55,1.79.94.51.39.92.83,1.21,1.34s.44,1.04.44,1.63-.15,1.13-.44,1.65c-.29.52-.7.97-1.21,1.36-.52.39-1.11.7-1.79.94-.68.24-1.4.37-2.15.4v-8.64Z"/>
            <path class="cls-1" d="m315.68,55.69l-9.89-30.64h-6.68l-10.44,30.64h7.47l1.25-3.71h9.64l1.21,3.71h7.43Zm-13.32-18.2l2.42,7.43h-4.97l2.55-7.43Z"/>
            <path class="cls-1" d="m335.42,42.96l-9.98-17.82h-7.68v30.55h7.05v-17.87l10.02,17.87h7.64v-30.64h-7.05v17.91Z"/>
          </g>
        </g>
        <g>
          <rect class="cls-10" x="-114.93" y="19.79" width="344.78" height="39.58"/>
          <g>
            <path class="cls-1" d="m7.67,24.89H.62v30.81h7.05c2.09-.11,4.02-.58,5.8-1.4,1.78-.82,3.33-1.91,4.65-3.28,1.32-1.36,2.36-2.94,3.11-4.74.75-1.79,1.13-3.72,1.13-5.78s-.38-4.05-1.15-5.89c-.77-1.84-1.81-3.45-3.13-4.84-1.32-1.39-2.88-2.52-4.67-3.38-1.79-.86-3.71-1.35-5.74-1.46v-.04Zm0,7.1c1.09.11,2.09.41,3.01.9.92.49,1.73,1.11,2.42,1.88.69.77,1.24,1.64,1.63,2.63.39.99.58,2.02.58,3.11s-.19,2.06-.58,3.01c-.39.95-.93,1.77-1.61,2.48-.68.71-1.49,1.29-2.42,1.75-.93.46-1.94.74-3.03.86v-16.61Z"/>
            <path class="cls-1" d="m43.2,25.06l-19.66.04v30.6h19.66v-7.05h-12.61v-4.84h10.23v-7.05h-10.23v-4.63h12.61v-7.05Z"/>
            <path class="cls-2" d="m65.32,25.06h-18.49v30.64h7.05v-11.9h9.06v-7.05h-9.06v-4.63h11.44v-7.05Z"/>
            <path class="cls-2" d="m82.43,55.69h8.31l-6.76-10.92c1.25-1.03,2.23-2.24,2.92-3.65.7-1.4,1.04-2.93,1.04-4.56s-.33-3.01-.98-4.38c-.65-1.36-1.56-2.56-2.71-3.59-1.15-1.03-2.5-1.85-4.03-2.46-1.53-.61-3.17-.93-4.93-.96h-7.05v30.51h7.05v-7.72c.39-.03.76-.06,1.13-.08.36-.03.72-.07,1.08-.12l4.93,7.93Zm-7.14-23.46c.75.03,1.47.16,2.15.4.68.24,1.28.55,1.79.94.51.39.92.83,1.21,1.34s.44,1.04.44,1.63-.15,1.13-.44,1.65c-.29.52-.7.97-1.21,1.36-.52.39-1.11.7-1.79.94-.68.24-1.4.37-2.15.4v-8.64Z"/>
            <path class="cls-2" d="m101.08,26.23c-1.86.81-3.48,1.9-4.86,3.28s-2.47,3-3.27,4.86c-.81,1.86-1.21,3.85-1.21,5.97s.4,4.1,1.21,5.97,1.9,3.49,3.27,4.86,2.99,2.47,4.86,3.28c1.86.81,3.85,1.21,5.96,1.21s4.1-.4,5.96-1.21c1.86-.81,3.49-1.9,4.88-3.28,1.39-1.38,2.49-3,3.29-4.86.81-1.86,1.21-3.85,1.21-5.97s-.4-4.1-1.21-5.97c-.81-1.86-1.9-3.49-3.29-4.86-1.39-1.38-3.02-2.47-4.88-3.28-1.86-.81-3.85-1.21-5.96-1.21s-4.1.4-5.96,1.21Zm2.77,21.73c-1-.43-1.88-1.02-2.63-1.77-.75-.75-1.34-1.63-1.77-2.63-.43-1-.65-2.07-.65-3.21s.22-2.21.65-3.21c.43-1,1.02-1.88,1.77-2.63.75-.75,1.63-1.34,2.63-1.77,1-.43,2.07-.65,3.21-.65s2.21.22,3.21.65c1,.43,1.88,1.02,2.63,1.77.75.75,1.34,1.63,1.77,2.63.43,1,.65,2.07.65,3.21s-.22,2.21-.65,3.21c-.43,1-1.02,1.88-1.77,2.63-.75.75-1.63,1.34-2.63,1.77-1,.43-2.07.65-3.21.65s-2.21-.21-3.21-.65Z"/>
            <path class="cls-2" d="m142.16,42.96l-9.98-17.82h-7.68v30.55h7.05v-17.87l10.02,17.87h7.64v-30.64h-7.05v17.91Z"/>
            <path class="cls-2" d="m151.89,24.93v7.05h5.84v23.71h7.05v-23.71h5.89v-7.05h-18.78Z"/>
            <path class="cls-2" d="m192.88,25.06l-19.66.04v30.6h19.66v-7.05h-12.61v-4.84h10.23v-7.05h-10.23v-4.63h12.61v-7.05Z"/>
            <path class="cls-2" d="m203.76,26.23c-1.86.81-3.48,1.9-4.86,3.28s-2.47,3-3.27,4.86c-.81,1.86-1.21,3.85-1.21,5.97s.4,4.1,1.21,5.97,1.9,3.49,3.27,4.86,2.99,2.47,4.86,3.28c1.86.81,3.85,1.21,5.96,1.21s4.1-.4,5.96-1.21c1.86-.81,3.49-1.9,4.88-3.28,1.39-1.38,2.49-3,3.29-4.86.81-1.86,1.21-3.85,1.21-5.97s-.4-4.1-1.21-5.97c-.81-1.86-1.9-3.49-3.29-4.86-1.39-1.38-3.02-2.47-4.88-3.28-1.86-.81-3.85-1.21-5.96-1.21s-4.1.4-5.96,1.21Zm2.77,21.73c-1-.43-1.88-1.02-2.63-1.77-.75-.75-1.34-1.63-1.77-2.63-.43-1-.65-2.07-.65-3.21s.22-2.21.65-3.21c.43-1,1.02-1.88,1.77-2.63.75-.75,1.63-1.34,2.63-1.77,1-.43,2.07-.65,3.21-.65s2.21.22,3.21.65c1,.43,1.88,1.02,2.63,1.77.75.75,1.34,1.63,1.77,2.63.43,1,.65,2.07.65,3.21s-.22,2.21-.65,3.21c-.43,1-1.02,1.88-1.77,2.63-.75.75-1.63,1.34-2.63,1.77-1,.43-2.07.65-3.21.65s-2.21-.21-3.21-.65Z"/>
          </g>
        </g>
        <g>
          <rect class="cls-10" x="0" y="-19.79" width="344.78" height="39.58"/>
          <g>
            <path class="cls-1" d="m18.71-1.05v7.05h6.14v1.54c-.81.58-1.68,1-2.63,1.25-.95.25-1.9.34-2.86.27-.96-.07-1.89-.31-2.8-.71-.9-.4-1.72-.97-2.44-1.69-.81-.81-1.42-1.73-1.84-2.75-.42-1.03-.63-2.07-.63-3.13s.21-2.1.63-3.13c.42-1.03,1.03-1.95,1.84-2.75s1.73-1.41,2.75-1.82c1.03-.4,2.07-.6,3.13-.6s2.1.2,3.13.6c1.03.4,1.95,1.01,2.75,1.82l5.01-5.01c-1.5-1.5-3.2-2.63-5.09-3.38-1.89-.75-3.83-1.13-5.8-1.13s-3.91.38-5.8,1.13c-1.89.75-3.59,1.88-5.09,3.38-1.5,1.5-2.62,3.2-3.36,5.09-.74,1.89-1.11,3.83-1.11,5.8s.37,3.9,1.11,5.78c.74,1.88,1.86,3.57,3.36,5.07s3.2,2.63,5.09,3.38c1.89.75,3.83,1.13,5.8,1.13.81,0,1.62-.06,2.44-.19.82-.13,1.62-.33,2.4-.61v.75h7.1V-1.05h-13.23Z"/>
            <path class="cls-1" d="m49.47,16.11h8.31l-6.76-10.92c1.25-1.03,2.23-2.24,2.92-3.65.7-1.4,1.04-2.93,1.04-4.56s-.33-3.01-.98-4.38c-.65-1.36-1.56-2.56-2.71-3.59-1.15-1.03-2.5-1.85-4.03-2.46-1.53-.61-3.17-.93-4.93-.96h-7.05v30.51h7.05v-7.72c.39-.03.76-.06,1.13-.08.36-.03.72-.07,1.08-.12l4.93,7.93Zm-7.14-23.46c.75.03,1.47.16,2.15.4.68.24,1.28.55,1.79.94.51.39.92.83,1.21,1.34s.44,1.04.44,1.63-.15,1.13-.44,1.65c-.29.52-.7.97-1.21,1.36-.52.39-1.11.7-1.79.94-.68.24-1.4.37-2.15.4V-7.35Z"/>
            <path class="cls-1" d="m85.83,16.11l-9.89-30.64h-6.68l-10.44,30.64h7.47l1.25-3.71h9.64l1.21,3.71h7.43Zm-13.32-18.2l2.42,7.43h-4.97l2.55-7.43Z"/>
            <path class="cls-1" d="m105.57,3.38l-9.98-17.82h-7.68v30.55h7.05V-1.75l10.02,17.87h7.64V-14.53h-7.05V3.38Z"/>
            <path class="cls-1" d="m122.6-14.69h-7.05v30.81h7.05c2.09-.11,4.02-.58,5.8-1.4,1.78-.82,3.33-1.91,4.65-3.28,1.32-1.36,2.36-2.94,3.11-4.74.75-1.79,1.13-3.72,1.13-5.78s-.38-4.05-1.15-5.89c-.77-1.84-1.81-3.45-3.13-4.84-1.32-1.39-2.88-2.52-4.67-3.38-1.79-.86-3.71-1.35-5.74-1.46v-.04Zm0,7.1c1.09.11,2.09.41,3.01.9.92.49,1.73,1.11,2.42,1.88.69.77,1.24,1.64,1.63,2.63.39.99.58,2.02.58,3.11s-.19,2.06-.58,3.01c-.39.95-.93,1.77-1.61,2.48-.68.71-1.49,1.29-2.42,1.75-.93.46-1.94.74-3.03.86V-7.6Z"/>
            <path class="cls-1" d="m158.12-14.53l-19.66.04v30.6h19.66v-7.05h-12.61v-4.84h10.23V-2.84h-10.23v-4.63h12.61v-7.05Z"/>
            <path class="cls-2" d="m180.24-14.53h-18.49v30.64h7.05V4.21h9.06V-2.84h-9.06v-4.63h11.44v-7.05Z"/>
            <path class="cls-2" d="m197.36,16.11h8.31l-6.76-10.92c1.25-1.03,2.23-2.24,2.92-3.65.7-1.4,1.04-2.93,1.04-4.56s-.33-3.01-.98-4.38c-.65-1.36-1.56-2.56-2.71-3.59-1.15-1.03-2.5-1.85-4.03-2.46-1.53-.61-3.17-.93-4.93-.96h-7.05v30.51h7.05v-7.72c.39-.03.76-.06,1.13-.08.36-.03.72-.07,1.08-.12l4.93,7.93Zm-7.14-23.46c.75.03,1.47.16,2.15.4.68.24,1.28.55,1.79.94.51.39.92.83,1.21,1.34s.44,1.04.44,1.63-.15,1.13-.44,1.65c-.29.52-.7.97-1.21,1.36-.52.39-1.11.7-1.79.94-.68.24-1.4.37-2.15.4V-7.35Z"/>
            <path class="cls-2" d="m216-13.36c-1.86.81-3.48,1.9-4.86,3.28s-2.47,3-3.27,4.86c-.81,1.86-1.21,3.85-1.21,5.97s.4,4.1,1.21,5.97,1.9,3.49,3.27,4.86,2.99,2.47,4.86,3.28c1.86.81,3.85,1.21,5.96,1.21s4.1-.4,5.96-1.21c1.86-.81,3.49-1.9,4.88-3.28,1.39-1.38,2.49-3,3.29-4.86.81-1.86,1.21-3.85,1.21-5.97s-.4-4.1-1.21-5.97c-.81-1.86-1.9-3.49-3.29-4.86-1.39-1.38-3.02-2.47-4.88-3.28-1.86-.81-3.85-1.21-5.96-1.21s-4.1.4-5.96,1.21Zm2.77,21.73c-1-.43-1.88-1.02-2.63-1.77-.75-.75-1.34-1.63-1.77-2.63-.43-1-.65-2.07-.65-3.21s.22-2.21.65-3.21c.43-1,1.02-1.88,1.77-2.63.75-.75,1.63-1.34,2.63-1.77,1-.43,2.07-.65,3.21-.65s2.21.22,3.21.65c1,.43,1.88,1.02,2.63,1.77.75.75,1.34,1.63,1.77,2.63.43,1,.65,2.07.65,3.21s-.22,2.21-.65,3.21c-.43,1-1.02,1.88-1.77,2.63-.75.75-1.63,1.34-2.63,1.77-1,.43-2.07.65-3.21.65s-2.21-.21-3.21-.65Z"/>
            <path class="cls-2" d="m257.09,3.38l-9.98-17.82h-7.68v30.55h7.05V-1.75l10.02,17.87h7.64V-14.53h-7.05V3.38Z"/>
            <path class="cls-2" d="m266.82-14.65v7.05h5.84v23.71h7.05V-7.6h5.89v-7.05h-18.78Z"/>
            <path class="cls-2" d="m307.81-14.53l-19.66.04v30.6h19.66v-7.05h-12.61v-4.84h10.23V-2.84h-10.23v-4.63h12.61v-7.05Z"/>
            <path class="cls-2" d="m318.69-13.36c-1.86.81-3.48,1.9-4.86,3.28s-2.47,3-3.27,4.86c-.81,1.86-1.21,3.85-1.21,5.97s.4,4.1,1.21,5.97,1.9,3.49,3.27,4.86,2.99,2.47,4.86,3.28c1.86.81,3.85,1.21,5.96,1.21s4.1-.4,5.96-1.21c1.86-.81,3.49-1.9,4.88-3.28,1.39-1.38,2.49-3,3.29-4.86.81-1.86,1.21-3.85,1.21-5.97s-.4-4.1-1.21-5.97c-.81-1.86-1.9-3.49-3.29-4.86-1.39-1.38-3.02-2.47-4.88-3.28-1.86-.81-3.85-1.21-5.96-1.21s-4.1.4-5.96,1.21Zm2.77,21.73c-1-.43-1.88-1.02-2.63-1.77-.75-.75-1.34-1.63-1.77-2.63-.43-1-.65-2.07-.65-3.21s.22-2.21.65-3.21c.43-1,1.02-1.88,1.77-2.63.75-.75,1.63-1.34,2.63-1.77,1-.43,2.07-.65,3.21-.65s2.21.22,3.21.65c1,.43,1.88,1.02,2.63,1.77.75.75,1.34,1.63,1.77,2.63.43,1,.65,2.07.65,3.21s-.22,2.21-.65,3.21c-.43,1-1.02,1.88-1.77,2.63-.75.75-1.63,1.34-2.63,1.77-1,.43-2.07.65-3.21.65s-2.21-.21-3.21-.65Z"/>
          </g>
        </g>
      </g>
    </pattern>
  </defs>
  <g class="cls-7">
    <g id="Capa_2" data-name="Capa 2">
      <g id="Capa_1-2" data-name="Capa 1">
        <g class="cls-9">
          <g class="cls-8">
            <polygon class="cls-5" points="-2493.78 1234.87 2984.29 -1631.28 6064.23 -19.07 586.16 2847.08 -2493.78 1234.87"/>
            <polygon class="cls-6" points="-2493.78 1234.87 2984.29 -1631.28 6064.23 -19.07 586.16 2847.08 -2493.78 1234.87"/>
          </g>
        </g>
      </g>
    </g>
  </g>
</svg>