<?xml version="1.0" encoding="UTF-8"?>
<svg id="Capa_2" data-name="Capa 2" xmlns="http://www.w3.org/2000/svg" xmlns:xlink="http://www.w3.org/1999/xlink" viewBox="0 0 61.35 62.67">
  <defs>
    <style>
      .cls-1 {
        fill: url(#Degradado_sin_nombre_28-15);
      }

      .cls-2 {
        fill: url(#Degradado_sin_nombre_10);
        opacity: .24;
      }

      .cls-2, .cls-3, .cls-4 {
        isolation: isolate;
      }

      .cls-3 {
        fill: #366e0d;
      }

      .cls-3, .cls-4 {
        opacity: .5;
      }

      .cls-5 {
        fill: url(#Degradado_sin_nombre_28);
      }

      .cls-6 {
        fill: url(#Degradado_sin_nombre_28-10);
      }

      .cls-7 {
        fill: url(#Degradado_sin_nombre_28-12);
      }

      .cls-8 {
        fill: url(#Degradado_sin_nombre_28-3);
      }

      .cls-9 {
        fill: url(#Degradado_sin_nombre_28-9);
      }

      .cls-10 {
        fill: url(#Degradado_sin_nombre_28-4);
      }

      .cls-11 {
        fill: url(#Degradado_sin_nombre_28-6);
      }

      .cls-12 {
        fill: #643800;
      }

      .cls-13 {
        fill: url(#Degradado_sin_nombre_28-2);
      }

      .cls-14 {
        fill: url(#Degradado_sin_nombre_28-14);
      }

      .cls-4 {
        fill: url(#Degradado_sin_nombre_3);
      }

      .cls-15 {
        fill: url(#Degradado_sin_nombre_28-13);
      }

      .cls-16 {
        fill: url(#Degradado_sin_nombre_28-8);
      }

      .cls-17 {
        fill: url(#Degradado_sin_nombre_28-5);
      }

      .cls-18 {
        fill: url(#Degradado_sin_nombre_28-11);
      }

      .cls-19 {
        fill: url(#Degradado_sin_nombre_2);
      }

      .cls-20 {
        fill: url(#Degradado_sin_nombre_4);
      }

      .cls-21 {
        fill: url(#Degradado_sin_nombre_8);
      }

      .cls-22 {
        fill: url(#Degradado_sin_nombre_28-16);
      }

      .cls-23 {
        fill: url(#Degradado_sin_nombre_23-4);
      }

      .cls-24 {
        fill: url(#Degradado_sin_nombre_28-7);
      }

      .cls-25 {
        fill: url(#Degradado_sin_nombre_23-3);
      }

      .cls-26 {
        fill: url(#Degradado_sin_nombre_23);
      }

      .cls-27 {
        fill: url(#Degradado_sin_nombre_23-2);
      }

      .cls-28 {
        fill: url(#Degradado_sin_nombre_7);
      }

      .cls-29 {
        fill: url(#Degradado_sin_nombre_23-5);
      }
    </style>
    <radialGradient id="Degradado_sin_nombre_2" data-name="Degradado sin nombre 2" cx="-2755.39" cy="837.73" fx="-2755.39" fy="837.73" r="1.06" gradientTransform="translate(95735.33 -29081.47) scale(34.74)" gradientUnits="userSpaceOnUse">
      <stop offset="0" stop-color="#ffdf30"/>
      <stop offset="1" stop-color="#ffb82e"/>
    </radialGradient>
    <radialGradient id="Degradado_sin_nombre_3" data-name="Degradado sin nombre 3" cx="-2733.32" cy="849.97" fx="-2733.32" fy="849.97" r="1.06" gradientTransform="translate(74712.42 -23208.03) scale(27.33)" gradientUnits="userSpaceOnUse">
      <stop offset="0" stop-color="#ffe95f"/>
      <stop offset="1" stop-color="#ffbb47" stop-opacity="0"/>
    </radialGradient>
    <radialGradient id="Degradado_sin_nombre_4" data-name="Degradado sin nombre 4" cx="-2647.24" cy="1083.82" fx="-2647.24" fy="1083.82" r="1.06" gradientTransform="translate(39547.03 -5789.24) scale(14.93 5.39)" gradientUnits="userSpaceOnUse">
      <stop offset="0" stop-color="#7a4400" stop-opacity=".5"/>
      <stop offset=".6" stop-color="#894d00" stop-opacity=".2"/>
      <stop offset=".99" stop-color="#965500" stop-opacity="0"/>
    </radialGradient>
    <linearGradient id="Degradado_sin_nombre_23" data-name="Degradado sin nombre 23" x1="17.46" y1="2379.83" x2="17.46" y2="2376.59" gradientTransform="translate(0 -2365.68)" gradientUnits="userSpaceOnUse">
      <stop offset="0" stop-color="#3c2200"/>
      <stop offset="1" stop-color="#7a4400"/>
    </linearGradient>
    <linearGradient id="Degradado_sin_nombre_23-2" data-name="Degradado sin nombre 23" x1="43.88" x2="43.88" xlink:href="#Degradado_sin_nombre_23"/>
    <radialGradient id="Degradado_sin_nombre_7" data-name="Degradado sin nombre 7" cx="-2531.29" cy="883.61" fx="-2531.29" fy="883.61" r="1.06" gradientTransform="translate(23505.98 -15189.01) scale(9.27 17.25)" gradientUnits="userSpaceOnUse">
      <stop offset="0" stop-color="#7ceb00"/>
      <stop offset="1" stop-color="#2f9200"/>
    </radialGradient>
    <radialGradient id="Degradado_sin_nombre_8" data-name="Degradado sin nombre 8" cx="-2714.84" cy="1314.2" fx="-2714.84" fy="1314.2" r="1.06" gradientTransform="translate(15010.48 -22386.7) rotate(-39.9) scale(9.54 5.79)" gradientUnits="userSpaceOnUse">
      <stop offset="0" stop-color="#fff" stop-opacity=".33"/>
      <stop offset="1" stop-color="#fff" stop-opacity="0"/>
    </radialGradient>
    <linearGradient id="Degradado_sin_nombre_28" data-name="Degradado sin nombre 28" x1="30.67" y1="2396.54" x2="30.67" y2="2409.04" gradientTransform="translate(0 -2365.68)" gradientUnits="userSpaceOnUse">
      <stop offset="0" stop-color="#3c2200"/>
      <stop offset="1" stop-color="#512d00"/>
    </linearGradient>
    <linearGradient id="Degradado_sin_nombre_10" data-name="Degradado sin nombre 10" x1="30.67" y1="2448.15" x2="30.67" y2="2403.98" gradientTransform="translate(0 -2365.68)" gradientUnits="userSpaceOnUse">
      <stop offset="0" stop-color="#7ceb00"/>
      <stop offset="1" stop-color="#2f9200"/>
    </linearGradient>
    <linearGradient id="Degradado_sin_nombre_23-3" data-name="Degradado sin nombre 23" x1="19.26" y1="2363.24" x2="19.26" y2="2422.55" xlink:href="#Degradado_sin_nombre_23"/>
    <linearGradient id="Degradado_sin_nombre_23-4" data-name="Degradado sin nombre 23" x1="42.08" y1="2363.24" x2="42.08" y2="2422.55" xlink:href="#Degradado_sin_nombre_23"/>
    <linearGradient id="Degradado_sin_nombre_28-2" data-name="Degradado sin nombre 28" x1="44.49" y1="2379.96" x2="44.49" y2="2390.66" xlink:href="#Degradado_sin_nombre_28"/>
    <linearGradient id="Degradado_sin_nombre_28-3" data-name="Degradado sin nombre 28" x1="43.05" y1="2380.52" x2="43.05" y2="2398.24" xlink:href="#Degradado_sin_nombre_28"/>
    <linearGradient id="Degradado_sin_nombre_28-4" data-name="Degradado sin nombre 28" x1="39.58" y1="2379.46" x2="39.58" y2="2391.2" xlink:href="#Degradado_sin_nombre_28"/>
    <linearGradient id="Degradado_sin_nombre_28-5" data-name="Degradado sin nombre 28" x1="41.15" y1="2390.6" x2="41.15" y2="2398.89" xlink:href="#Degradado_sin_nombre_28"/>
    <linearGradient id="Degradado_sin_nombre_28-6" data-name="Degradado sin nombre 28" x1="42.08" y1="2382.07" x2="42.08" y2="2383.87" xlink:href="#Degradado_sin_nombre_28"/>
    <linearGradient id="Degradado_sin_nombre_28-7" data-name="Degradado sin nombre 28" x1="21.68" y1="2379.96" x2="21.68" y2="2390.66" xlink:href="#Degradado_sin_nombre_28"/>
    <linearGradient id="Degradado_sin_nombre_28-8" data-name="Degradado sin nombre 28" x1="20.24" y1="2380.52" x2="20.24" y2="2398.24" xlink:href="#Degradado_sin_nombre_28"/>
    <linearGradient id="Degradado_sin_nombre_28-9" data-name="Degradado sin nombre 28" x1="16.77" y1="2379.46" x2="16.77" y2="2391.2" xlink:href="#Degradado_sin_nombre_28"/>
    <linearGradient id="Degradado_sin_nombre_28-10" data-name="Degradado sin nombre 28" x1="18.34" y1="2390.6" x2="18.34" y2="2398.89" xlink:href="#Degradado_sin_nombre_28"/>
    <linearGradient id="Degradado_sin_nombre_28-11" data-name="Degradado sin nombre 28" x1="19.27" y1="2382.07" x2="19.27" y2="2383.87" xlink:href="#Degradado_sin_nombre_28"/>
    <linearGradient id="Degradado_sin_nombre_23-5" data-name="Degradado sin nombre 23" x1="30.64" y1="2390.98" x2="30.64" y2="2435.08" xlink:href="#Degradado_sin_nombre_23"/>
    <linearGradient id="Degradado_sin_nombre_28-12" data-name="Degradado sin nombre 28" x1="32.76" y1="2408.75" x2="32.76" y2="2418.12" xlink:href="#Degradado_sin_nombre_28"/>
    <linearGradient id="Degradado_sin_nombre_28-13" data-name="Degradado sin nombre 28" x1="31.53" y1="2409.23" x2="31.53" y2="2424.75" xlink:href="#Degradado_sin_nombre_28"/>
    <linearGradient id="Degradado_sin_nombre_28-14" data-name="Degradado sin nombre 28" x1="28.49" y1="2408.31" x2="28.49" y2="2418.58" xlink:href="#Degradado_sin_nombre_28"/>
    <linearGradient id="Degradado_sin_nombre_28-15" data-name="Degradado sin nombre 28" x1="29.86" y1="2418.06" x2="29.86" y2="2425.32" xlink:href="#Degradado_sin_nombre_28"/>
    <linearGradient id="Degradado_sin_nombre_28-16" data-name="Degradado sin nombre 28" x1="30.67" y1="2410.6" x2="30.67" y2="2412.17" xlink:href="#Degradado_sin_nombre_28"/>
  </defs>
  <g id="Capa_2-2" data-name="Capa 2">
    <g id="Capa_1-2" data-name="Capa 1-2">
      <g>
        <path class="cls-19" d="m30.67,61.35c16.94,0,30.67-13.74,30.67-30.67S47.61,0,30.67,0,0,13.74,0,30.67s13.74,30.67,30.67,30.67Z"/>
        <path class="cls-4" d="m30.67,61.35c16.94,0,30.67-13.74,30.67-30.67S47.61,0,30.67,0,0,13.74,0,30.67s13.74,30.67,30.67,30.67Z"/>
        <path class="cls-20" d="m30.67,61.35c16.94,0,30.67-13.74,30.67-30.67S47.61,0,30.67,0,0,13.74,0,30.67s13.74,30.67,30.67,30.67Z"/>
        <path class="cls-26" d="m23.93,12.1c0-1.23-1.33-2-3.6-2-1.94,0-6.21,1.07-9.14,4.85-.55.69.28,1.08.83.63,1.81-1.55,6.65-3.51,10.42-3.09,1.51.17,1.5-.39,1.5-.39Z"/>
        <path class="cls-27" d="m37.42,12.1c0-1.23,1.33-2,3.6-2,1.94,0,6.21,1.07,9.14,4.85.55.69-.28,1.08-.83.63-1.81-1.55-6.65-3.51-10.42-3.09-1.51.17-1.5-.39-1.5-.39Z"/>
        <path class="cls-12" d="m30.67,50.78c-16.11,0-21.27-16.41-16.37-13.86,6.59,3.46,10.75,4.46,16.37,4.46s9.77-1,16.37-4.46c4.91-2.56-.26,13.86-16.37,13.86Z"/>
        <path class="cls-28" d="m40.35,44.06c0-.99-.94-1.72-1.9-1.42-2.28.68-4.88,1.08-7.79,1.08s-5.5-.41-7.79-1.08c-.94-.28-1.9.44-1.9,1.42v8.72c0,5.35,4.33,9.9,9.68,9.9s9.68-4.55,9.68-9.9v-8.72h.02Z"/>
        <path class="cls-21" d="m40.35,44.06c0-.99-.94-1.72-1.9-1.42-2.28.68-4.88,1.08-7.79,1.08s-5.5-.41-7.79-1.08c-.94-.28-1.9.44-1.9,1.42v8.72c0,5.35,4.33,9.9,9.68,9.9s9.68-4.55,9.68-9.9v-8.72h.02Z"/>
        <path class="cls-5" d="m47.04,36.93c-6.59,3.46-10.75,4.46-16.37,4.46s-9.77-1-16.37-4.46c-1.72-.9-2.19.51-1.42,2.73,0-.05.26-2.41,2.57-.78,0,0,.01,0,.01.01,3.43,2.64,8.49,4.82,15.21,4.82s11.78-2.18,15.21-4.82c0,0,.01,0,.01-.01,2.31-1.64,2.57.73,2.57.78.77-2.22.27-3.63-1.42-2.73Z"/>
        <path class="cls-3" d="m30.67,43.73c-2.91,0-5.5-.41-7.79-1.08-.94-.28-1.9.44-1.9,1.42v3.67s.11-2.33,9.68-2.33,9.68,2.33,9.68,2.33v-3.67c0-.99-.94-1.72-1.9-1.42-2.28.67-4.88,1.08-7.79,1.08h.02Z"/>
        <path class="cls-2" d="m30.67,43.73c-.34,0-.67-.02-1-.05.01,11.68.45,15.77,1,15.77s.99-4.02,1-15.77c-.33,0-.66.05-1,.05Z"/>
        <path class="cls-25" d="m19.86,32.45v1.96h-1.18v-1.96c-2.34-.22-3.86-1.63-3.99-3.69h1.83c.05,1.36,1.1,2.22,2.8,2.22s2.68-.82,2.68-2c0-1.33-.82-1.74-2.24-2.17l-1.78-.51c-1.74-.51-3.11-1.49-3.11-3.4,0-2.05,1.5-3.49,3.82-3.69v-1.98h1.18v2c2.13.24,3.52,1.63,3.63,3.65h-1.78c-.07-1.35-1.07-2.22-2.63-2.22s-2.46.82-2.46,2.07c0,1.14.9,1.66,2.05,1.98l2.22.65c2.19.65,2.93,1.91,2.93,3.48.02,2.07-1.58,3.42-3.96,3.63v-.02Z"/>
        <path class="cls-23" d="m42.67,32.45v1.96h-1.18v-1.96c-2.34-.22-3.86-1.63-3.99-3.69h1.83c.05,1.36,1.1,2.22,2.8,2.22s2.68-.82,2.68-2c0-1.33-.82-1.74-2.24-2.17l-1.78-.51c-1.74-.51-3.11-1.49-3.11-3.4,0-2.05,1.5-3.49,3.82-3.69v-1.98h1.18v2c2.13.24,3.52,1.63,3.63,3.65h-1.78c-.07-1.35-1.07-2.22-2.63-2.22s-2.46.82-2.46,2.07c0,1.14.9,1.66,2.05,1.98l2.22.65c2.22.65,2.97,1.9,2.97,3.47,0,2.08-1.61,3.43-3.98,3.64l-.02-.02Z"/>
        <path class="cls-13" d="m42.67,19.85c1.9.22,3.21,1.35,3.56,3.04h.09c-.11-2.02-1.5-3.41-3.63-3.65v.61h-.01Z"/>
        <path class="cls-8" d="m43.69,25.34l-2.22-.65c-1.02-.28-1.86-.74-2.01-1.68-.01.1-.02.22-.02.32,0,1.14.9,1.66,2.05,1.98l2.22.65c2.01.58,2.8,1.72,2.92,3.11,0-.09.02-.16.02-.24,0-1.57-.75-2.83-2.96-3.48Z"/>
        <path class="cls-10" d="m41.49,19.81v-.61c-2.33.19-3.82,1.66-3.82,3.69,0,.11.01.19.02.32.16-1.89,1.6-3.21,3.8-3.4Z"/>
        <path class="cls-17" d="m39.32,29.37c.05,1.36,1.1,2.22,2.8,2.22s2.68-.82,2.68-2c0-.13-.01-.24-.02-.35-.15,1.02-1.11,1.73-2.65,1.73-1.69,0-2.75-.84-2.8-2.22h-1.83c.01.22.06.41.1.61h1.73Z"/>
        <path class="cls-11" d="m42.67,17.22h-1.18v.61h1.18v-.61Z"/>
        <path class="cls-24" d="m19.86,19.85c1.9.22,3.21,1.35,3.56,3.04h.09c-.11-2.02-1.5-3.41-3.63-3.65v.61h-.01Z"/>
        <path class="cls-16" d="m20.88,25.34l-2.22-.65c-1.02-.28-1.86-.74-2.01-1.68-.01.1-.02.22-.02.32,0,1.14.9,1.66,2.05,1.98l2.22.65c2.01.58,2.8,1.72,2.92,3.11,0-.09.02-.16.02-.24,0-1.57-.75-2.83-2.96-3.48Z"/>
        <path class="cls-9" d="m18.68,19.81v-.61c-2.33.19-3.82,1.66-3.82,3.69,0,.11.01.19.02.32.16-1.89,1.6-3.21,3.8-3.4Z"/>
        <path class="cls-6" d="m16.51,29.37c.05,1.36,1.1,2.22,2.8,2.22s2.68-.82,2.68-2c0-.13-.01-.24-.02-.35-.15,1.02-1.11,1.73-2.65,1.73-1.69,0-2.75-.84-2.8-2.22h-1.83c.01.22.06.41.1.61h1.73Z"/>
        <path class="cls-18" d="m19.86,17.22h-1.18v.61h1.18v-.61Z"/>
        <path class="cls-29" d="m31.19,58.97v1.72h-1.02v-1.72c-2.06-.18-3.39-1.42-3.49-3.24h1.6c.05,1.19.95,1.94,2.44,1.94s2.35-.72,2.35-1.75c0-1.17-.72-1.52-1.96-1.9l-1.56-.45c-1.52-.45-2.73-1.3-2.73-2.97,0-1.78,1.32-3.07,3.35-3.24v-1.72h1.02v1.75c1.85.19,3.08,1.42,3.18,3.19h-1.57c-.06-1.18-.94-1.94-2.3-1.94s-2.14.72-2.14,1.8c0,1,.78,1.44,1.78,1.73l1.94.57c1.91.57,2.57,1.67,2.57,3.04,0,1.83-1.41,3.01-3.48,3.18h.05Z"/>
        <path class="cls-7" d="m31.19,47.93c1.67.18,2.81,1.18,3.09,2.65h.07c-.1-1.77-1.32-3-3.18-3.19v.55h.01Z"/>
        <path class="cls-15" d="m32.1,52.75l-1.94-.57c-.9-.26-1.63-.66-1.75-1.47-.01.09-.02.18-.02.28,0,1,.78,1.44,1.78,1.73l1.94.57c1.75.51,2.46,1.5,2.56,2.72,0-.07.01-.15.01-.22,0-1.36-.66-2.48-2.57-3.04h0Z"/>
        <path class="cls-14" d="m30.16,47.92v-.55c-2.02.17-3.35,1.44-3.35,3.24,0,.1.01.18.02.27.13-1.64,1.4-2.81,3.32-2.97h0Z"/>
        <path class="cls-1" d="m28.26,56.28c.05,1.19.95,1.94,2.44,1.94s2.35-.72,2.35-1.75c0-.11-.01-.22-.02-.32-.13.9-.97,1.51-2.33,1.51-1.49,0-2.41-.73-2.44-1.94h-1.6c.01.18.05.37.09.55h1.51Z"/>
        <path class="cls-22" d="m31.19,45.65h-1.02v.55h1.02v-.55Z"/>
      </g>
    </g>
  </g>
</svg>