<svg xmlns="http://www.w3.org/2000/svg" id="Layer_1" x="0" y="0" version="1.1" viewBox="0 0 29 29" xml:space="preserve"><path d="M14.5 25.892a.997.997 0 0 1-.707-.293l-9.546-9.546c-2.924-2.924-2.924-7.682 0-10.606 2.808-2.81 7.309-2.923 10.253-.332 2.942-2.588 7.443-2.479 10.253.332 2.924 2.924 2.924 7.683 0 10.606l-9.546 9.546a.997.997 0 0 1-.707.293zM9.551 5.252a5.486 5.486 0 0 0-3.89 1.608 5.505 5.505 0 0 0 0 7.778l8.839 8.839 8.839-8.839a5.505 5.505 0 0 0 0-7.778 5.505 5.505 0 0 0-7.778 0l-.354.354a.999.999 0 0 1-1.414 0l-.354-.354a5.481 5.481 0 0 0-3.888-1.608z"/></svg>