<svg xmlns="http://www.w3.org/2000/svg" xmlns:xlink="http://www.w3.org/1999/xlink" viewBox="0 0 551.57 199.97"><defs><style>.cls-1{fill:#f2f2f2;}.cls-2{fill:#ff005f;}.cls-3{fill:url(#Degradado_sin_nombre_44);}.cls-11,.cls-30,.cls-31,.cls-33,.cls-4,.cls-41,.cls-42{isolation:isolate;}.cls-11,.cls-30,.cls-31,.cls-4{opacity:0.75;}.cls-4{fill:url(#Degradado_sin_nombre_11);}.cls-5{fill:url(#Degradado_sin_nombre_42);}.cls-6{fill:url(#Degradado_sin_nombre_32);}.cls-7{fill:url(#Degradado_sin_nombre_31);}.cls-8{fill:url(#Degradado_sin_nombre_31-2);}.cls-9{fill:url(#Degradado_sin_nombre_31-3);}.cls-10{fill:url(#Degradado_sin_nombre_44-2);}.cls-11{fill:url(#Degradado_sin_nombre_11-2);}.cls-12{fill:url(#Degradado_sin_nombre_42-2);}.cls-13{fill:url(#Degradado_sin_nombre_32-2);}.cls-14{fill:url(#Degradado_sin_nombre_39);}.cls-15{fill:url(#Degradado_sin_nombre_41);}.cls-16{fill:url(#Degradado_sin_nombre_39-2);}.cls-17{fill:url(#Degradado_sin_nombre_39-3);}.cls-18{fill:url(#Degradado_sin_nombre_31-4);}.cls-19{fill:url(#Degradado_sin_nombre_39-4);}.cls-20{fill:url(#Degradado_sin_nombre_39-5);}.cls-21{fill:url(#Degradado_sin_nombre_31-5);}.cls-22{fill:url(#Degradado_sin_nombre_39-6);}.cls-23{fill:url(#Degradado_sin_nombre_38);}.cls-24{fill:url(#Degradado_sin_nombre_31-6);}.cls-25{fill:url(#Degradado_sin_nombre_31-7);}.cls-26{fill:url(#Degradado_sin_nombre_36);}.cls-27{fill:url(#Degradado_sin_nombre_32-3);}.cls-28{fill:#975500;}.cls-29{fill:url(#Degradado_sin_nombre_31-8);}.cls-30{fill:url(#Degradado_sin_nombre_11-3);}.cls-31{fill:url(#Degradado_sin_nombre_11-4);}.cls-32{fill:url(#Degradado_sin_nombre_4);}.cls-33,.cls-41{opacity:0.5;}.cls-33{fill:url(#Degradado_sin_nombre_2);}.cls-34{fill:url(#Degradado_sin_nombre_117);}.cls-35{fill:url(#Degradado_sin_nombre_22);}.cls-36{fill:url(#Degradado_sin_nombre_22-2);}.cls-37{fill:#643800;}.cls-38{fill:url(#Degradado_sin_nombre_116);}.cls-39{fill:url(#Degradado_sin_nombre_115);}.cls-40{fill:url(#Degradado_sin_nombre_17);}.cls-41{fill:#366e0d;}.cls-42{opacity:0.24;fill:url(#Degradado_sin_nombre_114);}.cls-43{fill:url(#Degradado_sin_nombre_22-3);}.cls-44{fill:url(#Degradado_sin_nombre_22-4);}.cls-45{fill:url(#Degradado_sin_nombre_17-2);}.cls-46{fill:url(#Degradado_sin_nombre_17-3);}.cls-47{fill:url(#Degradado_sin_nombre_17-4);}.cls-48{fill:url(#Degradado_sin_nombre_17-5);}.cls-49{fill:url(#Degradado_sin_nombre_17-6);}.cls-50{fill:url(#Degradado_sin_nombre_17-7);}.cls-51{fill:url(#Degradado_sin_nombre_17-8);}.cls-52{fill:url(#Degradado_sin_nombre_17-9);}.cls-53{fill:url(#Degradado_sin_nombre_17-10);}.cls-54{fill:url(#Degradado_sin_nombre_17-11);}.cls-55{fill:url(#Degradado_sin_nombre_22-5);}.cls-56{fill:url(#Degradado_sin_nombre_17-12);}.cls-57{fill:url(#Degradado_sin_nombre_17-13);}.cls-58{fill:url(#Degradado_sin_nombre_17-14);}.cls-59{fill:url(#Degradado_sin_nombre_17-15);}.cls-60{fill:url(#Degradado_sin_nombre_17-16);}</style><linearGradient id="Degradado_sin_nombre_44" x1="3208.77" y1="6783.84" x2="3223.44" y2="6815.98" gradientTransform="matrix(0.98, -0.2, -0.2, -0.98, -1532.68, 7391.3)" gradientUnits="userSpaceOnUse"><stop offset="0" stop-color="#ffba47"/><stop offset="1" stop-color="#ffd748"/></linearGradient><radialGradient id="Degradado_sin_nombre_11" cx="3050.9" cy="5081.25" r="1.55" gradientTransform="matrix(-1.99, -1.53, -0.81, 1.06, 10495.27, -707.04)" gradientUnits="userSpaceOnUse"><stop offset="0" stop-color="#fbe07a"/><stop offset="0.27" stop-color="#fcdf73" stop-opacity="0.73"/><stop offset="0.65" stop-color="#fddb5f" stop-opacity="0.35"/><stop offset="1" stop-color="#ffd748" stop-opacity="0"/></radialGradient><radialGradient id="Degradado_sin_nombre_42" cx="2787.24" cy="5824.51" r="1.55" gradientTransform="matrix(-0.61, 28.25, 20.85, 0.45, -119475.31, -81353.25)" gradientUnits="userSpaceOnUse"><stop offset="0.14" stop-color="#ffbc47" stop-opacity="0"/><stop offset="1" stop-color="#ff8900"/></radialGradient><linearGradient id="Degradado_sin_nombre_32" x1="3230.04" y1="6905.27" x2="3274.98" y2="6782.26" gradientTransform="matrix(0.98, -0.2, -0.2, -0.98, -1532.68, 7391.3)" gradientUnits="userSpaceOnUse"><stop offset="0" stop-color="#ffbc47" stop-opacity="0"/><stop offset="1" stop-color="#ffbc47"/></linearGradient><linearGradient id="Degradado_sin_nombre_31" x1="3257.9" y1="6887.69" x2="3211.31" y2="6794.6" gradientTransform="matrix(0.98, -0.2, -0.2, -0.98, -1532.68, 7391.3)" gradientUnits="userSpaceOnUse"><stop offset="0" stop-color="#ffbc47" stop-opacity="0"/><stop offset="1" stop-color="#c86f34"/></linearGradient><linearGradient id="Degradado_sin_nombre_31-2" x1="3246.19" y1="6880.68" x2="3240.99" y2="6853.94" xlink:href="#Degradado_sin_nombre_31"/><linearGradient id="Degradado_sin_nombre_31-3" x1="3227.86" y1="6829.35" x2="3243.26" y2="6857.53" xlink:href="#Degradado_sin_nombre_31"/><linearGradient id="Degradado_sin_nombre_44-2" x1="3256.44" y1="6815.62" x2="3244.11" y2="6844.17" xlink:href="#Degradado_sin_nombre_44"/><radialGradient id="Degradado_sin_nombre_11-2" cx="2779.78" cy="4976" r="1.55" gradientTransform="matrix(-2.51, -0.07, -0.04, 1.33, 7430.02, -6447.97)" xlink:href="#Degradado_sin_nombre_11"/><radialGradient id="Degradado_sin_nombre_42-2" cx="2832.01" cy="5832.32" r="1.55" gradientTransform="matrix(75.59, -15.28, -15.28, -75.58, -124661.32, 484108.27)" xlink:href="#Degradado_sin_nombre_42"/><linearGradient id="Degradado_sin_nombre_32-2" x1="3252.09" y1="6857.64" x2="3204.34" y2="6748.6" xlink:href="#Degradado_sin_nombre_32"/><linearGradient id="Degradado_sin_nombre_39" x1="3201.25" y1="6822.1" x2="3256.76" y2="6822.1" gradientTransform="matrix(0.98, -0.2, -0.2, -0.98, -1532.68, 7391.3)" gradientUnits="userSpaceOnUse"><stop offset="0" stop-color="#ffcb4b"/><stop offset="1" stop-color="#ffd748"/></linearGradient><linearGradient id="Degradado_sin_nombre_41" x1="3217.51" y1="6795.91" x2="3223.55" y2="6847.1" gradientTransform="matrix(0.98, -0.2, -0.2, -0.98, -1532.68, 7391.3)" gradientUnits="userSpaceOnUse"><stop offset="0" stop-color="#a1541e" stop-opacity="0"/><stop offset="1" stop-color="#c86f34"/></linearGradient><linearGradient id="Degradado_sin_nombre_39-2" x1="3206.24" y1="6841.5" x2="3206.24" y2="6817.18" xlink:href="#Degradado_sin_nombre_39"/><linearGradient id="Degradado_sin_nombre_39-3" x1="3220.23" y1="6841.5" x2="3220.23" y2="6817.18" xlink:href="#Degradado_sin_nombre_39"/><linearGradient id="Degradado_sin_nombre_31-4" x1="3220.57" y1="6842.1" x2="3220.57" y2="6809.88" xlink:href="#Degradado_sin_nombre_31"/><linearGradient id="Degradado_sin_nombre_39-4" x1="3206.26" y1="6837.95" x2="3206.26" y2="6856.62" xlink:href="#Degradado_sin_nombre_39"/><linearGradient id="Degradado_sin_nombre_39-5" x1="3220.18" y1="6837.95" x2="3220.18" y2="6856.62" xlink:href="#Degradado_sin_nombre_39"/><linearGradient id="Degradado_sin_nombre_31-5" x1="3210.82" y1="6846.66" x2="3270.78" y2="6812.59" xlink:href="#Degradado_sin_nombre_31"/><linearGradient id="Degradado_sin_nombre_39-6" x1="3201.25" y1="6812.74" x2="3256.76" y2="6812.74" xlink:href="#Degradado_sin_nombre_39"/><radialGradient id="Degradado_sin_nombre_38" cx="2832.95" cy="5835.01" r="1.55" gradientTransform="matrix(63.02, -12.74, -12.74, -63.01, -103906.83, 403790.52)" gradientUnits="userSpaceOnUse"><stop offset="0.61" stop-color="#ffbc47" stop-opacity="0"/><stop offset="1" stop-color="#ff8900"/></radialGradient><linearGradient id="Degradado_sin_nombre_31-6" x1="3206.03" y1="6842.11" x2="3207.69" y2="6814.53" xlink:href="#Degradado_sin_nombre_31"/><linearGradient id="Degradado_sin_nombre_31-7" x1="3191.45" y1="6849.79" x2="3283.98" y2="6791.03" xlink:href="#Degradado_sin_nombre_31"/><radialGradient id="Degradado_sin_nombre_36" cx="2836.06" cy="5877.14" r="1.55" gradientTransform="matrix(41.07, -8.3, -3.56, -17.58, -95288.83, 126943.29)" gradientUnits="userSpaceOnUse"><stop offset="0" stop-color="#ffbc47" stop-opacity="0"/><stop offset="1" stop-color="#ffa754"/></radialGradient><linearGradient id="Degradado_sin_nombre_32-3" x1="3242.44" y1="6841.05" x2="3233.33" y2="6795.73" xlink:href="#Degradado_sin_nombre_32"/><linearGradient id="Degradado_sin_nombre_31-8" x1="3215.77" y1="6811.66" x2="3228.5" y2="6850.51" xlink:href="#Degradado_sin_nombre_31"/><radialGradient id="Degradado_sin_nombre_11-3" cx="2861.97" cy="5629.36" r="1.55" gradientTransform="matrix(-10.33, -5.87, -2.68, 4.72, 44923.47, -9662.04)" xlink:href="#Degradado_sin_nombre_11"/><radialGradient id="Degradado_sin_nombre_11-4" cx="2788.17" cy="6131.41" r="1.55" gradientTransform="matrix(8.18, 4.13, 1.52, -3.01, -31836.65, 7011.66)" xlink:href="#Degradado_sin_nombre_11"/><radialGradient id="Degradado_sin_nombre_4" cx="2827.4" cy="5845.86" r="1.61" gradientTransform="matrix(34.74, 0, 0, -34.74, -98056.83, 203238.39)" gradientUnits="userSpaceOnUse"><stop offset="0" stop-color="#ffdf30"/><stop offset="1" stop-color="#ffb82e"/></radialGradient><radialGradient id="Degradado_sin_nombre_2" cx="2827.44" cy="5853.3" r="1.61" gradientTransform="matrix(27.33, 0, 0, -27.33, -77108.85, 160127.94)" gradientUnits="userSpaceOnUse"><stop offset="0" stop-color="#ffe95f"/><stop offset="1" stop-color="#ffbb47" stop-opacity="0"/></radialGradient><radialGradient id="Degradado_sin_nombre_117" cx="2827.83" cy="5991.43" r="1.61" gradientTransform="matrix(14.93, 0, 0, -5.39, -42039.49, 32459.2)" gradientUnits="userSpaceOnUse"><stop offset="0" stop-color="#7a4400" stop-opacity="0.5"/><stop offset="0.6" stop-color="#894d00" stop-opacity="0.2"/><stop offset="0.99" stop-color="#965500" stop-opacity="0"/></radialGradient><linearGradient id="Degradado_sin_nombre_22" x1="2851.72" y1="6754.51" x2="2851.72" y2="6759.41" gradientTransform="matrix(1, 0, 0, -1, -2685.71, 6880.97)" gradientUnits="userSpaceOnUse"><stop offset="0" stop-color="#3c2200"/><stop offset="1" stop-color="#7a4400"/></linearGradient><linearGradient id="Degradado_sin_nombre_22-2" x1="2891.76" y1="6754.51" x2="2891.76" y2="6759.41" xlink:href="#Degradado_sin_nombre_22"/><radialGradient id="Degradado_sin_nombre_116" cx="2828.17" cy="5872.62" r="1.61" gradientTransform="matrix(9.27, 0, 0, -17.25, -26021.66, 101509.62)" gradientUnits="userSpaceOnUse"><stop offset="0" stop-color="#7ceb00"/><stop offset="1" stop-color="#2f9200"/></radialGradient><radialGradient id="Degradado_sin_nombre_115" cx="2890.69" cy="5940.78" r="1.61" gradientTransform="matrix(7.32, -6.12, -3.71, -4.44, 1082.6, 44267.11)" gradientUnits="userSpaceOnUse"><stop offset="0" stop-color="#fff" stop-opacity="0.33"/><stop offset="1" stop-color="#fff" stop-opacity="0"/></radialGradient><linearGradient id="Degradado_sin_nombre_17" x1="2871.74" y1="6729.18" x2="2871.74" y2="6710.24" gradientTransform="matrix(1, 0, 0, -1, -2685.71, 6880.97)" gradientUnits="userSpaceOnUse"><stop offset="0" stop-color="#3c2200"/><stop offset="1" stop-color="#512d00"/></linearGradient><linearGradient id="Degradado_sin_nombre_114" x1="2871.74" y1="6650.99" x2="2871.74" y2="6717.9" gradientTransform="matrix(1, 0, 0, -1, -2685.71, 6880.97)" xlink:href="#Degradado_sin_nombre_116"/><linearGradient id="Degradado_sin_nombre_22-3" x1="2854.43" y1="6779.64" x2="2854.43" y2="6689.77" xlink:href="#Degradado_sin_nombre_22"/><linearGradient id="Degradado_sin_nombre_22-4" x1="2889.01" y1="6779.64" x2="2889.01" y2="6689.77" xlink:href="#Degradado_sin_nombre_22"/><linearGradient id="Degradado_sin_nombre_17-2" x1="2892.67" y1="6754.31" x2="2892.67" y2="6738.09" xlink:href="#Degradado_sin_nombre_17"/><linearGradient id="Degradado_sin_nombre_17-3" x1="2890.49" y1="6753.46" x2="2890.49" y2="6726.6" xlink:href="#Degradado_sin_nombre_17"/><linearGradient id="Degradado_sin_nombre_17-4" x1="2885.23" y1="6755.06" x2="2885.23" y2="6737.28" xlink:href="#Degradado_sin_nombre_17"/><linearGradient id="Degradado_sin_nombre_17-5" x1="2887.61" y1="6738.17" x2="2887.61" y2="6725.61" xlink:href="#Degradado_sin_nombre_17"/><linearGradient id="Degradado_sin_nombre_17-6" x1="2889.02" y1="6751.12" x2="2889.02" y2="6748.38" xlink:href="#Degradado_sin_nombre_17"/><linearGradient id="Degradado_sin_nombre_17-7" x1="2858.12" y1="6754.31" x2="2858.12" y2="6738.09" xlink:href="#Degradado_sin_nombre_17"/><linearGradient id="Degradado_sin_nombre_17-8" x1="2855.93" y1="6753.46" x2="2855.93" y2="6726.6" xlink:href="#Degradado_sin_nombre_17"/><linearGradient id="Degradado_sin_nombre_17-9" x1="2850.67" y1="6755.06" x2="2850.67" y2="6737.28" xlink:href="#Degradado_sin_nombre_17"/><linearGradient id="Degradado_sin_nombre_17-10" x1="2853.05" y1="6738.17" x2="2853.05" y2="6725.61" xlink:href="#Degradado_sin_nombre_17"/><linearGradient id="Degradado_sin_nombre_17-11" x1="2854.46" y1="6751.12" x2="2854.46" y2="6748.38" xlink:href="#Degradado_sin_nombre_17"/><linearGradient id="Degradado_sin_nombre_22-5" x1="2871.73" y1="6737.6" x2="2871.73" y2="6670.79" xlink:href="#Degradado_sin_nombre_22"/><linearGradient id="Degradado_sin_nombre_17-12" x1="2874.91" y1="6710.69" x2="2874.91" y2="6696.49" xlink:href="#Degradado_sin_nombre_17"/><linearGradient id="Degradado_sin_nombre_17-13" x1="2873.03" y1="6709.95" x2="2873.03" y2="6686.45" xlink:href="#Degradado_sin_nombre_17"/><linearGradient id="Degradado_sin_nombre_17-14" x1="2868.42" y1="6711.35" x2="2868.42" y2="6695.78" xlink:href="#Degradado_sin_nombre_17"/><linearGradient id="Degradado_sin_nombre_17-15" x1="2870.51" y1="6696.57" x2="2870.51" y2="6685.58" xlink:href="#Degradado_sin_nombre_17"/><linearGradient id="Degradado_sin_nombre_17-16" x1="2871.74" y1="6707.9" x2="2871.74" y2="6705.5" xlink:href="#Degradado_sin_nombre_17"/></defs><g id="Capa_2" data-name="Capa 2"><g id="Capa_1-2" data-name="Capa 1"><path class="cls-1" d="M170.47,43.44V95.25H149V93a39.19,39.19,0,0,1-7.24,1.83,48.77,48.77,0,0,1-7.38.57A47,47,0,0,1,116.9,92a45.13,45.13,0,0,1-15.38-10.21A44.58,44.58,0,0,1,91.37,66.45a47.46,47.46,0,0,1,0-35,44.38,44.38,0,0,1,10.15-15.38A45.13,45.13,0,0,1,116.9,5.88a46.71,46.71,0,0,1,35,0,45.13,45.13,0,0,1,15.38,10.21L152.19,31.21a24.15,24.15,0,0,0-8.32-5.48,25.31,25.31,0,0,0-18.9,0,24.15,24.15,0,0,0-8.32,5.48,25,25,0,0,0,0,35.55A24.35,24.35,0,0,0,124,71.87,25,25,0,0,0,132.47,74a26,26,0,0,0,8.63-.82A24,24,0,0,0,149,69.41V64.74H130.51V43.44Z"/><path class="cls-1" d="M208.6,71.05c-1.09.17-2.19.29-3.28.38l-3.4.25V95h-21.3V2.85h21.3a41.57,41.57,0,0,1,14.87,2.9A41,41,0,0,1,229,13.18,34.19,34.19,0,0,1,237.15,24a30.21,30.21,0,0,1,3,13.22A30.58,30.58,0,0,1,237,51a33.29,33.29,0,0,1-8.82,11l20.42,33H223.47Zm-6.68-20.8a21.88,21.88,0,0,0,6.49-1.2,19.22,19.22,0,0,0,5.42-2.84,13.61,13.61,0,0,0,3.66-4.09,10,10,0,0,0,1.32-5,9.63,9.63,0,0,0-1.32-4.92,14,14,0,0,0-3.66-4,19.48,19.48,0,0,0-5.42-2.84,22.19,22.19,0,0,0-6.49-1.19Z"/><polygon class="cls-1" points="340.47 56.74 370.6 2.92 393.79 2.92 393.79 95.19 372.49 95.19 372.49 41.24 342.24 95.19 319.17 95.19 319.17 2.66 340.47 2.66 340.47 56.74"/><path class="cls-1" d="M425.45,2.54A45.33,45.33,0,0,1,442.79,7a47.32,47.32,0,0,1,23.57,24.83,45.78,45.78,0,0,1,3.46,17.78A44.68,44.68,0,0,1,466.42,67,45.79,45.79,0,0,1,457,81.32a46.51,46.51,0,0,1-14,9.9,47.57,47.57,0,0,1-17.53,4.22h-21.3v-93h21.3Zm0,71.47a26.62,26.62,0,0,0,9.14-2.58,26,26,0,0,0,7.31-5.3,23.86,23.86,0,0,0,6.62-16.57,25.47,25.47,0,0,0-1.76-9.39,25.88,25.88,0,0,0-4.92-8,26.75,26.75,0,0,0-7.31-5.67,24.59,24.59,0,0,0-9.08-2.71Z"/><polygon class="cls-1" points="536.62 23.97 498.55 23.97 498.55 37.96 529.43 37.96 529.43 59.26 498.55 59.26 498.55 73.88 536.62 73.88 536.62 95.19 477.24 95.19 477.24 2.79 536.62 2.66 536.62 23.97"/><path class="cls-2" d="M76.4,56.06l.13,20.8H62L59.55,95.19h-21L41,77H32.36L30,95.19H9L11.44,77,.12,77.1,0,56.31l14.15-.13,1.6-12.67H4.18L4.06,22.84h14.4l2.7-20.18H42.08L39.49,22.72H48L50.69,2.66H71.61L69,22.6H80.46l.13,20.67-14.28.12L64.72,56.06Zm-41.21.12,8.49-.12,1.6-12.67-8.49.12Z"/><path class="cls-3" d="M274.15,39.1l.45-1.74c2.56-10.17,6.87-30.83,7.92-33.44,1.11-2.78,3.16-4.57,7.34-3.7s5.4,5.2,3.81,10.33-2.93,23.28-3.5,32a135.19,135.19,0,0,1-3.92,25.57l-15-13.33Z"/><path class="cls-4" d="M285.83,1.61c.41-1.18,3.25-.66,4.61.38s2.13,2.85,1.72,4-2.14.67-3.66.24A3.83,3.83,0,0,1,285.83,1.61Z"/><path class="cls-5" d="M282.52,3.92c-.54,1.35-2,7.55-3.56,14.61-1.48,6.59-.2,13.68,2.61-6.27C282.74,4,286,.26,287.45,0h0C284.85.19,283.39,1.74,282.52,3.92Z"/><path class="cls-6" d="M290.17,42.55c.57-8.72,1.9-26.87,3.5-32a10.52,10.52,0,0,0,.05-7.19c-1.17,7.48-5.77,18.05-6.28,28C286.49,50.11,289.52,52.53,290.17,42.55Z"/><path class="cls-7" d="M274.15,39.1l.45-1.74c2.56-10.17,6.87-30.83,7.92-33.44,1.11-2.78,3.16-4.57,7.34-3.7s5.4,5.2,3.81,10.33-2.93,23.28-3.5,32a135.19,135.19,0,0,1-3.92,25.57l-15-13.33Z"/><path class="cls-8" d="M282.15,5.11c-.62,2.19-1.65,6.65-2.82,11.8l1.76,2.56,9.27,15.38.38-.33c.31-4.13.7-8.68,1.15-12.79C287.87,18,283.65,10.87,282.15,5.11Z"/><path class="cls-9" d="M277.14,26.56c-.5,2.21-1,4.37-1.46,6.35,3.53,4.4,4.21,14.65,2.7,18.49-1.31,3.3,6.38,3.24,10.56,3,.49-3.45.94-7.42,1.23-11.83,0-.3,0-.65.06-1l-.48-4.69Z"/><path class="cls-10" d="M287.29,50.4c-.2-.52-2.92-7-3.16-7.61-3.9-9.73-13.9-29-14.59-31.78-.74-2.9-.13-5.56,3.77-7.31s7.42,1,9.14,6.11S294.23,29.59,299,36.91c8.63,13.22,11.29,23.84,11.29,23.84l-19.95-2Z"/><path class="cls-11" d="M270.86,7.19c-.36-1.19,2.24-2.44,4-2.4s3.39,1,3.75,2.24-1.34,1.8-2.82,2.35A3.84,3.84,0,0,1,270.86,7.19Z"/><path class="cls-12" d="M271.24,5c-2,1.66-2.28,3.77-1.7,6.05.69,2.73,10.69,22.05,14.59,31.78.24.6,3,7.09,3.16,7.61L290,57.89c3.83,4.07,5.4-3.89-16.35-39.58C269.3,11.14,270.21,6,271.24,5Z"/><path class="cls-13" d="M299,36.87c-4.78-7.34-14.81-22-16.53-27.06h0a16.22,16.22,0,0,0-.78-1.89c0-.08-.09-.16-.14-.24a11.17,11.17,0,0,0-.84-1.41l-.07-.09A8,8,0,0,0,278.27,4h0c3.45,6.75,6,18,11.39,26.36C299.9,46,296.31,48.08,294.92,51h0c4-.88,11.87,9.13,15.38,9.79a8.2,8.2,0,0,1-1.39-3.37C307.71,52.28,303.61,44.61,299,36.87Z"/><path class="cls-14" d="M251.63,70.62c.63,3.15,2.46,4.26,3.34,4.61a2.36,2.36,0,0,0,.48.15L272,82.89l25.29-10.73-4.18-16.53c-14.61,1.06-28.85-3.19-43.86-1.41C248.66,59.84,250.88,66.94,251.63,70.62Z"/><path class="cls-15" d="M279.81,65.44c6.36-2,11.56,2.48,12.63,5.14l2-1.2L291.3,59l-7.78-3-9.67-.46-10.32-3-2.9-5.22-.55.11-8.76,2.72a3.5,3.5,0,0,0-1.69,1.85,21.69,21.69,0,0,0-.11,8.71,8.37,8.37,0,0,0,8.13,2.79c3.22-.65,4.65-3.48,5.39-5.77,0,0,1,3.68,6.43,4.05C269.47,61.7,274.55,67.09,279.81,65.44Z"/><path class="cls-16" d="M257.31,62.15c-3.79.77-7.55-1.69-9.24-7.37-.18-.62-3.54-11.74,2.94-13.05,6-1.21,8.18.76,10.13,8.4S261.24,61.36,257.31,62.15Z"/><path class="cls-17" d="M271.86,60.15c-4.68.94-7.44-.64-9.27-6.36s-6.78-15.71,1.69-18c8.13-2.2,9.32,2.86,11,11.35S275.89,59.33,271.86,60.15Z"/><path class="cls-18" d="M270,52.1c-3.21,2.52-5.6,3-7.63.89.09.27.19.55.27.8,1.83,5.72,4.59,7.3,9.27,6.36,3.29-.67,4.65-3.27,4.11-8.83C274.72,49.93,271.85,50.61,270,52.1Z"/><path class="cls-19" d="M255.68,54.72a6.19,6.19,0,0,1-7.42-4.44c.46,1.41-2.72-7.44,3-8.59,5.06-1,6.79.18,8.12,5.07S259,54.05,255.68,54.72Z"/><path class="cls-20" d="M269.44,51.53c-3.84.78-6-.89-7.47-4.91-.76-2.06-4.45-9.06,2.52-10.89,6.68-1.75,7.68,3.19,8.66,7.35C274.58,49.07,272.74,50.86,269.44,51.53Z"/><path class="cls-21" d="M269,60.36a10.39,10.39,0,0,0,2.87-.21c4-.82,5.17-4.53,3.45-13C273.66,39,272.48,34,265.12,35.59c3.25,1.15,6.42,4.61,7.86,11.74C275,57.48,273.08,59.52,269,60.36Z"/><path class="cls-22" d="M268.62,57.54c-.69-3.43,1.72-4,8.09-5.92,4.56-1.35,9.37-3.59,16.3-2.4,7.92,1.35,15.64,4.07,17.22,11.43,1.41,6.59,1,31.13-21.45,35.67s-32.44-5.94-37.15-25.7l40.81,0s-.58-7.18-5.8-8.29c-2.23-.47-6.47,1.13-9.39,1.72S269.56,62.17,268.62,57.54Z"/><path class="cls-23" d="M301.82,78.2c-8.12,8.87-6.57,12.57-15.44,14.37s-15.56-1.75-20.43-5-9.65-9.3-12.36-14.11a19.1,19.1,0,0,0-2-2.82c4.71,19.73,14.69,30.2,37.14,25.66s22.86-29.09,21.45-35.67A11.27,11.27,0,0,0,305.9,54C308.3,63.28,308.48,70.91,301.82,78.2Z"/><path class="cls-24" d="M256.62,58.54c-3.85.78-7.66-1.64-9.48-7.23.26,1.15.59,2.32.93,3.47,1.69,5.68,5.45,8.14,9.24,7.37s5.5-4,4.11-10.69C261.47,55.73,259.63,57.93,256.62,58.54Z"/><path class="cls-25" d="M261.14,50.13c-1.86-7.28-3.92-9.41-9.31-8.54,2.89-.11,10.51,9.59,5,20.61a4.57,4.57,0,0,0,.52-.05C261.24,61.36,263.09,57.77,261.14,50.13Z"/><path class="cls-26" d="M293.35,63.26c-1-4.08-6.9-7.18-11-5.9-3.56,1.11-10,2.93-13.51.83,1.24,4.19,5.65,6.38,8.42,5.82,2.92-.59,7.16-2.19,9.39-1.72,5.22,1.11,5.8,8.29,5.8,8.29A10.58,10.58,0,0,0,293.35,63.26Z"/><path class="cls-27" d="M310.23,60.65c-1.58-7.36-9.3-10.08-17.22-11.43-6.94-1.19-11.74,1.05-16.3,2.4-4.86,1.44-7.4,2.14-8,3.91a51.71,51.71,0,0,1,18.61-5.13c9.4-.81,17.49,3.45,19.62,7.53s3.55,12,3.58,12.22A33.12,33.12,0,0,0,310.23,60.65Z"/><path class="cls-28" d="M292.44,70.58a13,13,0,0,0-1.55-4.84,6.47,6.47,0,0,0-3.77-3.18c-1.61-.52-3.35,0-5,.36s-3.29.94-5,1.27A8.34,8.34,0,0,1,268.84,59a7,7,0,0,1-.54-2.57,2.89,2.89,0,0,1,1.26-2.34,18,18,0,0,1,4.8-2c3.31-.89,6.49-2.16,9.88-2.86a23.83,23.83,0,0,1,10.26.11,32.26,32.26,0,0,1,9.71,3.35,12,12,0,0,1,6,8,11.83,11.83,0,0,0-6.14-7.77,31.75,31.75,0,0,0-9.65-3.23,23.5,23.5,0,0,0-10.12,0c-3.31.72-6.52,2-9.81,2.93a17.49,17.49,0,0,0-4.68,1.87,2.46,2.46,0,0,0-1.1,2,6.38,6.38,0,0,0,.5,2.41,8,8,0,0,0,7.87,5.06c1.66-.31,3.3-.83,5-1.23s3.41-.87,5.12-.31a6.64,6.64,0,0,1,3.8,3.35A13,13,0,0,1,292.44,70.58Z"/><path class="cls-28" d="M260.32,47.3a27.77,27.77,0,0,1,1.74,7.38,10.81,10.81,0,0,1-.36,3.83,5.45,5.45,0,0,1-2.29,3.11,6.85,6.85,0,0,1-7.39-.46,11.08,11.08,0,0,1-4-6.38,12,12,0,0,0,4.14,6.11,6.42,6.42,0,0,0,6.94.31c2.18-1.26,2.72-4.07,2.58-6.5A36.2,36.2,0,0,0,260.32,47.3Z"/><path class="cls-28" d="M270,60.37a2.91,2.91,0,0,1-2.26,0,6.18,6.18,0,0,1-2-1A9.12,9.12,0,0,1,263,55.68c-.58-1.39-.9-2.82-1.4-4.2s-.91-2.8-1.26-4.23c.47,1.39,1,2.76,1.53,4.13s1,2.8,1.58,4.1a8.59,8.59,0,0,0,2.52,3.4,5.3,5.3,0,0,0,1.87.93A9.25,9.25,0,0,1,270,60.37Z"/><path class="cls-28" d="M268.22,35.27a6.1,6.1,0,0,1,2.43.61,5.38,5.38,0,0,1,1.85,1.73,15.34,15.34,0,0,1,2,4.64c.41,1.63.75,3.27,1,4.91.16.82.34,1.64.46,2.47a7.47,7.47,0,0,1,.13,1.26c0,.38-.07,1-.57,1.08.38-.22.27-.69.29-1.07a10.16,10.16,0,0,0-.15-1.22c-.15-.81-.36-1.62-.55-2.44-.37-1.62-.69-3.26-1.13-4.86a15.16,15.16,0,0,0-1.75-4.6A5.32,5.32,0,0,0,268.22,35.27Z"/><path class="cls-29" d="M279.81,65.44c-5.26,1.65-10.34-3.74-10.34-3.74C264,61.33,263,57.65,263,57.65c-.74,2.29-2.17,5.12-5.39,5.77a8.37,8.37,0,0,1-8.13-2.79c-.1-.63-.17-1.27-.23-1.9h0a47.29,47.29,0,0,0,.81,5.13,10,10,0,0,0,10.44.81c.71-.38,3.68-3.73,6.92-1.62,3.51,2.29,7.66,5.28,13.49,4s11.51,3.56,11.51,3.56C291.37,67.92,286.17,63.44,279.81,65.44Z"/><path class="cls-30" d="M255.9,70.46c-1.56,2.9,7.61,15.94,14.53,18.29s14.46-.32,15.39-3.49-6.4-6.32-12.66-10.18C262.35,68.41,257.47,67.56,255.9,70.46Z"/><path class="cls-31" d="M306.74,62.09c.8-1.7-6.54-9.75-11.41-11.33s-13.21,1.62-13.56,3.5,8.35,2.15,12.92,4.63C302.57,63.16,305.94,63.79,306.74,62.09Z"/><path class="cls-28" d="M277.07,27.27l5.24,10.63c.83,1.79,1.67,3.58,2.42,5.41.38.92.74,1.84,1.09,2.76a13.39,13.39,0,0,1,.86,2.85,26,26,0,0,1-1.16-2.73c-.37-.91-.76-1.82-1.16-2.72-.82-1.79-1.64-3.58-2.49-5.36C280.27,34.5,278.52,31,277.07,27.27Z"/><polygon class="cls-1" points="327.19 198.13 327.19 176.83 344.96 176.83 344.96 105.23 366.27 105.23 366.27 176.83 383.92 176.83 383.92 198.13 327.19 198.13"/><polygon class="cls-1" points="62.27 126.72 27.73 126.72 27.73 140.72 55.09 140.72 55.09 162.02 27.73 162.02 27.73 197.94 6.43 197.94 6.43 105.42 62.27 105.42 62.27 126.72"/><path class="cls-1" d="M100.62,173.81c-1.1.16-2.19.29-3.28.37l-3.4.26v23.32H72.63V105.61H93.94a41.57,41.57,0,0,1,14.87,2.9A41,41,0,0,1,121,115.93a34.49,34.49,0,0,1,8.19,10.83,30.21,30.21,0,0,1,3,13.22A30.61,30.61,0,0,1,129,153.76a33.29,33.29,0,0,1-8.82,11l20.42,33H115.49ZM93.94,153a22.53,22.53,0,0,0,6.49-1.2,19.36,19.36,0,0,0,5.42-2.84,13.44,13.44,0,0,0,3.65-4.09,9.89,9.89,0,0,0,1.33-5A9.51,9.51,0,0,0,109.5,135a13.85,13.85,0,0,0-3.65-4,19.62,19.62,0,0,0-5.42-2.84,22.53,22.53,0,0,0-6.49-1.2Z"/><polygon class="cls-1" points="263.51 159.5 293.64 105.67 316.83 105.67 316.83 197.94 295.53 197.94 295.53 143.99 265.27 197.94 242.21 197.94 242.21 105.42 263.51 105.42 263.51 159.5"/><polygon class="cls-1" points="453.65 126.72 415.58 126.72 415.58 140.72 446.46 140.72 446.46 162.02 415.58 162.02 415.58 176.64 453.65 176.64 453.65 197.94 394.27 197.94 394.27 105.55 453.65 105.42 453.65 126.72"/><path class="cls-1" d="M504.92,105a45.21,45.21,0,0,1,18.13,3.68,48.07,48.07,0,0,1,14.83,10,46.81,46.81,0,0,1,10,14.78,46.62,46.62,0,0,1,0,36.31,46.59,46.59,0,0,1-10,14.78,47.9,47.9,0,0,1-14.83,10,46.5,46.5,0,0,1-36.26,0,46.65,46.65,0,0,1-24.71-24.75,46.62,46.62,0,0,1,0-36.31,46.65,46.65,0,0,1,24.71-24.75A45.21,45.21,0,0,1,504.92,105Zm.06,71.72a24.52,24.52,0,0,0,9.78-2,25.3,25.3,0,0,0,13.39-13.39,25.24,25.24,0,0,0,0-19.55,25.39,25.39,0,0,0-13.39-13.39,25.24,25.24,0,0,0-19.55,0,25.3,25.3,0,0,0-13.39,13.39,25.24,25.24,0,0,0,0,19.55,25.21,25.21,0,0,0,13.39,13.39A24.47,24.47,0,0,0,505,176.74Z"/><path class="cls-32" d="M186,198a46.47,46.47,0,1,0-46.47-46.47A46.47,46.47,0,0,0,186,198Z"/><path class="cls-33" d="M186,198a46.47,46.47,0,1,0-46.47-46.47A46.47,46.47,0,0,0,186,198Z"/><path class="cls-34" d="M186,198a46.47,46.47,0,1,0-46.47-46.47A46.47,46.47,0,0,0,186,198Z"/><path class="cls-35" d="M175.81,123.35c0-1.86-2-3-5.47-3a19.07,19.07,0,0,0-13.86,7.35c-.82,1.06.44,1.64,1.26,1,2.74-2.33,10.07-5.31,15.8-4.69C175.83,124.19,175.81,123.35,175.81,123.35Z"/><path class="cls-36" d="M196.25,123.35c0-1.86,2-3,5.47-3a19,19,0,0,1,13.85,7.35c.82,1.06-.43,1.64-1.25,1-2.75-2.33-10.07-5.31-15.8-4.69C196.23,124.19,196.25,123.35,196.25,123.35Z"/><path class="cls-37" d="M186,181.94c-24.4,0-32.23-24.87-24.79-21,10,5.23,16.29,6.74,24.79,6.74s14.8-1.51,24.79-6.74C218.25,157.09,210.43,181.94,186,181.94Z"/><path class="cls-38" d="M200.7,171.76a2.24,2.24,0,0,0-2.87-2.16,40.87,40.87,0,0,1-11.8,1.64,41.57,41.57,0,0,1-11.8-1.64,2.25,2.25,0,0,0-2.88,2.16V185a14.68,14.68,0,1,0,29.35,0V171.76Z"/><path class="cls-39" d="M200.7,171.76a2.24,2.24,0,0,0-2.87-2.16,40.87,40.87,0,0,1-11.8,1.64,41.57,41.57,0,0,1-11.8-1.64,2.25,2.25,0,0,0-2.88,2.16V185a14.68,14.68,0,1,0,29.35,0V171.76Z"/><path class="cls-40" d="M210.82,161c-10,5.23-16.3,6.74-24.79,6.74s-14.81-1.51-24.79-6.74c-2.59-1.37-3.33.77-2.16,4.12,0-.06.39-3.65,3.89-1.18a0,0,0,0,1,0,0c5.21,4,12.86,7.3,23,7.3s17.83-3.3,23-7.3a0,0,0,0,0,0,0c3.5-2.49,3.89,1.1,3.89,1.18C214.15,161.75,213.39,159.61,210.82,161Z"/><path class="cls-41" d="M186,171.26a41.57,41.57,0,0,1-11.8-1.64,2.25,2.25,0,0,0-2.88,2.16v5.56s.18-3.53,14.68-3.53,14.67,3.53,14.67,3.53v-5.56a2.24,2.24,0,0,0-2.87-2.16A41.57,41.57,0,0,1,186,171.26Z"/><path class="cls-42" d="M186,171.26c-.52,0-1,0-1.51-.06,0,17.7.69,23.88,1.51,23.88s1.49-6.09,1.51-23.88C187,171.2,186.55,171.26,186,171.26Z"/><path class="cls-43" d="M169.65,154.19v3h-1.8v-3c-3.54-.32-5.86-2.46-6-5.6h2.77c.06,2.08,1.66,3.35,4.23,3.35s4.07-1.23,4.07-3c0-2-1.24-2.64-3.4-3.29l-2.7-.78c-2.64-.77-4.71-2.24-4.71-5.14,0-3.09,2.27-5.29,5.79-5.6v-3h1.8v3c3.22.37,5.33,2.47,5.49,5.54h-2.71c-.1-2.06-1.62-3.35-4-3.35s-3.72,1.23-3.72,3.13c0,1.73,1.36,2.51,3.09,3l3.35,1c3.33,1,4.45,2.89,4.45,5.27C175.68,151.83,173.23,153.89,169.65,154.19Z"/><path class="cls-44" d="M204.2,154.19v3h-1.79v-3c-3.54-.32-5.86-2.46-6-5.6h2.76c.07,2.08,1.67,3.35,4.24,3.35s4.06-1.23,4.06-3c0-2-1.23-2.64-3.39-3.29l-2.7-.78c-2.64-.77-4.71-2.24-4.71-5.14,0-3.09,2.27-5.29,5.79-5.6v-3h1.79v3c3.22.37,5.34,2.47,5.49,5.54H207c-.11-2.06-1.62-3.35-4-3.35s-3.71,1.23-3.71,3.13c0,1.73,1.36,2.51,3.09,3l3.35,1c3.35,1,4.49,2.87,4.49,5.25C210.23,151.83,207.79,153.89,204.2,154.19Z"/><path class="cls-45" d="M204.2,135.09a5.78,5.78,0,0,1,5.39,4.6h.12a5.72,5.72,0,0,0-5.48-5.53v.93Z"/><path class="cls-46" d="M205.76,143.41l-3.35-1c-1.56-.43-2.83-1.12-3-2.55a3.88,3.88,0,0,0,0,.48c0,1.73,1.36,2.51,3.09,3l3.35,1c3.05.88,4.24,2.59,4.43,4.71,0-.13,0-.24,0-.37C210.23,146.3,209.09,144.4,205.76,143.41Z"/><path class="cls-47" d="M202.41,135v-.93c-3.52.31-5.79,2.51-5.79,5.6a4.05,4.05,0,0,0,0,.48C196.9,137.33,199.08,135.32,202.41,135Z"/><path class="cls-48" d="M199.12,149.52c.07,2.08,1.67,3.35,4.24,3.35s4.06-1.23,4.06-3a4.41,4.41,0,0,0,0-.54c-.22,1.55-1.69,2.61-4,2.61-2.57,0-4.17-1.27-4.24-3.35h-2.76a5.47,5.47,0,0,0,.15.93h2.61Z"/><path class="cls-49" d="M204.2,131.11h-1.79V132h1.79Z"/><path class="cls-50" d="M169.65,135.09a5.78,5.78,0,0,1,5.38,4.6h.13a5.74,5.74,0,0,0-5.49-5.53v.93Z"/><path class="cls-51" d="M171.2,143.41l-3.35-1c-1.55-.43-2.83-1.12-3-2.55a3.88,3.88,0,0,0,0,.48c0,1.73,1.36,2.51,3.09,3l3.35,1c3.05.88,4.24,2.59,4.43,4.71,0-.13.05-.24.05-.37C175.68,146.3,174.53,144.4,171.2,143.41Z"/><path class="cls-52" d="M167.85,135v-.93c-3.52.31-5.79,2.51-5.79,5.6a4.05,4.05,0,0,0,0,.48C162.34,137.33,164.52,135.32,167.85,135Z"/><path class="cls-53" d="M164.57,149.52c.06,2.08,1.66,3.35,4.23,3.35s4.07-1.23,4.07-3a4.32,4.32,0,0,0-.05-.54c-.21,1.55-1.68,2.61-4,2.61-2.57,0-4.17-1.27-4.23-3.35H161.8a6.69,6.69,0,0,0,.15.93h2.62Z"/><path class="cls-54" d="M169.65,131.11h-1.8V132h1.8Z"/><path class="cls-55" d="M186.81,194.37V197h-1.56v-2.59c-3.11-.28-5.12-2.16-5.3-4.91h2.43c.06,1.82,1.44,2.94,3.69,2.94s3.57-1.08,3.57-2.66c0-1.77-1.08-2.31-3-2.87l-2.36-.69c-2.31-.69-4.13-2-4.13-4.5,0-2.7,2-4.65,5.08-4.9v-2.6h1.56v2.66a5,5,0,0,1,4.82,4.84h-2.38c-.09-1.79-1.43-2.94-3.48-2.94s-3.24,1.08-3.24,2.73,1.19,2.18,2.7,2.61l2.94.86c2.9.87,3.89,2.53,3.89,4.61C192.08,192.31,189.94,194.11,186.81,194.37Z"/><path class="cls-56" d="M186.81,177.64a5,5,0,0,1,4.69,4h.1a5,5,0,0,0-4.82-4.84v.82Z"/><path class="cls-57" d="M188.19,184.94l-2.94-.86c-1.36-.39-2.46-1-2.66-2.23a3,3,0,0,0,0,.44c0,1.51,1.19,2.18,2.7,2.61l2.94.87c2.66.77,3.72,2.27,3.87,4.1,0-.11,0-.21,0-.32C192.08,187.47,191.09,185.79,188.19,184.94Z"/><path class="cls-58" d="M185.25,177.62v-.82c-3.07.26-5.08,2.18-5.08,4.9a2.59,2.59,0,0,0,0,.41C180.41,179.63,182.33,177.86,185.25,177.62Z"/><path class="cls-59" d="M182.38,190.28c.06,1.82,1.44,2.94,3.69,2.94s3.57-1.08,3.57-2.66a2.34,2.34,0,0,0,0-.47c-.19,1.36-1.47,2.29-3.52,2.29-2.25,0-3.65-1.1-3.69-2.94H180a7,7,0,0,0,.13.82h2.3Z"/><path class="cls-60" d="M186.81,174.18h-1.56V175h1.56Z"/></g></g></svg>