<?xml version="1.0" encoding="UTF-8"?>
<svg id="Capa_2" data-name="Capa 2" xmlns="http://www.w3.org/2000/svg" viewBox="0 0 97.17 78.07">
  <defs>
    <style>
      .cls-1 {
        fill: #fff;
      }
    </style>
  </defs>
  <g id="Capa_1-2" data-name="Capa 1">
    <path class="cls-1" d="m20.62,38.33c-.39.38-.73.74-1.1,1.06-.28.25-.58.5-.9.69-.55.33-1.13.29-1.66-.06-.35-.23-.69-.51-.99-.81-4.62-4.6-9.23-9.21-13.84-13.83-.5-.5-1.01-1-1.48-1.54-.89-1.01-.87-1.92.09-2.88,1.48-1.49,2.99-2.96,4.48-4.44C10.45,11.32,15.67,6.11,20.89.9,21.48.31,22.16,0,23,0c4.62,0,9.24,0,13.86.01,1.23,0,1.87.54,2.11,1.74.07.34.11.69.17,1.03.41,2.39,1.57,4.35,3.48,5.85,5.4,4.27,13.37,1.67,15.2-4.95.16-.59.24-1.21.35-1.81.24-1.27.94-1.87,2.23-1.87,4.67,0,9.34,0,14.01,0,.7,0,1.25.24,1.76.75,2.47,2.49,4.98,4.95,7.47,7.43,2.53,2.53,5.04,5.07,7.57,7.6,1.64,1.63,3.3,3.24,4.94,4.86.22.22.43.46.62.72.51.7.53,1.46,0,2.15-.33.44-.72.84-1.11,1.23-4.83,4.84-9.66,9.67-14.51,14.5-.3.3-.65.55-1.01.78-.55.35-1.15.38-1.69,0-.45-.32-.84-.72-1.25-1.08-.18-.16-.35-.35-.61-.61-.02.28-.04.45-.04.61,0,11.3.01,22.6.02,33.89,0,1.01.02,2.03,0,3.04,0,.34-.05.7-.16,1.02-.25.72-.84,1.04-1.56,1.13-.27.03-.54.03-.81.03-16.95,0-33.9,0-50.85,0-.33,0-.67-.01-.99-.08-.83-.18-1.4-.81-1.46-1.66-.06-.88-.06-1.77-.06-2.66,0-10.73,0-21.46,0-32.19,0-.98,0-1.96,0-2.94,0-.04-.03-.08-.08-.22Zm58.65-2.61c4.45-4.46,8.87-8.89,13.3-13.33-4.37-4.8-9.22-9.23-13.81-13.82-1.16-1.17-2.33-2.33-3.49-3.5-.53-.53-.99-1.17-1.74-1.33-.72-.15-1.59-.02-2.32-.01-3.19,0-6.39,0-9.59,0-.79,3.09-2.18,5.67-4.72,7.69-2.59,2.05-5.85,3.25-9.18,2.98-6.22-.51-10.51-4.91-12.3-10.62-3.24,0-6.48,0-9.73-.03-1.61-.02-2.52.02-3.7,1.19-1.18,1.17-2.34,2.35-3.51,3.52-4.64,4.66-9.26,9.34-13.97,13.94.22.43,12.66,12.93,13.31,13.4,1.34-1.07,2.38-3,3.95-3.75,1.57-.75,2.59.64,2.69,2.06.31,4.4.01,8.92,0,13.33,0,4.49,0,8.98,0,13.46,0,2.29,0,4.58,0,6.86,0,2.16-.18,4.42.02,6.57h48.19c0-8.86,0-17.72,0-26.58,0-4.45-.11-8.92,0-13.37.04-1.41.85-2.95,2.55-2.35.76.27,1.33,1.05,1.88,1.6.71.7,1.4,1.43,2.14,2.1Z"/>
  </g>
</svg>