<?xml version="1.0" encoding="UTF-8"?>
<svg id="Capa_2" data-name="Capa 2" xmlns="http://www.w3.org/2000/svg" viewBox="0 0 63.65 88.52">
  <defs>
    <style>
      .cls-1 {
        fill: #fff;
      }
    </style>
  </defs>
  <g id="Capa_1-2" data-name="Capa 1">
    <g id="G8BXXh">
      <g>
        <path class="cls-1" d="m9.17,88.52c-.73-.52-.91-1.24-.88-2.1.05-1.11.01-2.23.01-3.43-.59,0-1.1,0-1.61,0-2.33,0-2.54-.21-2.54-2.58,0-.95,0-1.89,0-2.95-.7,0-1.35,0-2.01,0-1.76,0-2.14-.38-2.14-2.11,0-12.02,0-24.03,0-36.05,0-10.92,0-21.84,0-32.76,0-.23,0-.46,0-.69.03-1.18.51-1.69,1.69-1.7,1.73-.01,3.46,0,5.19,0,.28,0,.57,0,.83,0C8.58,1.33,9.99.04,12.18,0c2.25-.04,3.66,1.2,4.65,4.14h1.01c10.81,0,21.61,0,32.42,0,.23,0,.46,0,.69,0,1.08.04,1.59.53,1.62,1.6.02.8,0,1.61,0,2.55.99,0,1.96,0,2.92,0,2.41,0,2.61.19,2.61,2.6v1.55c1.25,0,2.43,0,3.6,0,1.5,0,1.93.45,1.93,1.98,0,24.03,0,48.06.01,72.09,0,.84-.19,1.51-.88,2.01H9.17Zm-6.38-13.91h46.95V6.98H10.59c-.02.12-.04.18-.04.24,0,3.05,0,6.11,0,9.16,0,1.42.63,2.25,1.7,2.27,1.09.02,1.75-.84,1.76-2.3,0-1.84-.01-3.69.01-5.53.01-.89.6-1.47,1.38-1.47.74,0,1.35.56,1.36,1.4.03,2.19.11,4.39-.04,6.57-.22,3.03-3.24,4.85-6.04,3.8-1.76-.66-2.87-2.28-2.88-4.31-.02-2.97,0-5.94,0-8.9,0-.31,0-.61,0-.91H2.79v67.64Zm8.32,11.08h49.7V15.24h-2.7v1.14c0,21.46,0,42.93,0,64.39,0,.32.02.64-.02.95-.09.7-.54,1.15-1.24,1.24-.31.04-.63.02-.95.02-14.58,0-29.15,0-43.73,0h-1.05v2.71ZM52.57,11.08v1.17c0,20.98,0,41.96,0,62.94,0,.29.01.58,0,.86-.07.83-.55,1.32-1.37,1.39-.29.03-.58.01-.86.01-14.12,0-28.24,0-42.36,0h-.99v2.71h48.31V11.08h-2.7ZM13.83,4.12c-.17-.86-.8-1.38-1.61-1.35-.79.03-1.36.54-1.48,1.35h3.1Z"/>
        <path class="cls-1" d="m26.37,30.43c2.93,0,5.87,0,8.8,0,.2,0,.4,0,.6,0,.95.04,1.56.59,1.56,1.39,0,.8-.61,1.37-1.56,1.37-6.33.01-12.66.01-18.99,0-.95,0-1.56-.58-1.56-1.38,0-.8.61-1.37,1.56-1.37,3.19-.02,6.39,0,9.58,0Z"/>
        <path class="cls-1" d="m26.19,38.73c-2.93,0-5.87,0-8.8,0-.23,0-.46,0-.69,0-.88-.06-1.47-.62-1.46-1.39,0-.77.59-1.33,1.48-1.37.57-.03,1.15,0,1.73,0,5.61,0,11.22,0,16.83,0,.32,0,.64-.01.95.05.66.13,1.13.71,1.12,1.34,0,.63-.47,1.2-1.14,1.33-.28.05-.57.04-.86.04-3.05,0-6.1,0-9.15,0Z"/>
        <path class="cls-1" d="m26.37,41.49c1.26,0,2.53-.01,3.79,0,1.02.01,1.64.55,1.64,1.38,0,.83-.63,1.37-1.64,1.38-2.58.01-5.17.01-7.75,0-1.02,0-1.64-.55-1.64-1.38,0-.83.63-1.37,1.64-1.38,1.32-.01,2.64,0,3.96,0Z"/>
      </g>
    </g>
  </g>
</svg>