<?xml version="1.0" encoding="UTF-8"?>
<svg id="Capa_2" data-name="Capa 2" xmlns="http://www.w3.org/2000/svg" xmlns:xlink="http://www.w3.org/1999/xlink" viewBox="0 0 68.2 68.2">
  <defs>
    <style>
      .cls-1 {
        fill: url(#Degradado_sin_nombre_17-12);
      }

      .cls-2 {
        fill: #366e0d;
      }

      .cls-2, .cls-3, .cls-4 {
        isolation: isolate;
      }

      .cls-2, .cls-4 {
        opacity: .5;
      }

      .cls-3 {
        fill: url(#Degradado_sin_nombre_114);
        opacity: .24;
      }

      .cls-5 {
        fill: url(#Degradado_sin_nombre_22-3);
      }

      .cls-6 {
        fill: url(#Degradado_sin_nombre_17-9);
      }

      .cls-7 {
        fill: url(#Degradado_sin_nombre_115);
      }

      .cls-8 {
        fill: url(#Degradado_sin_nombre_17-10);
      }

      .cls-9 {
        fill: url(#Degradado_sin_nombre_17-5);
      }

      .cls-10 {
        fill: url(#Degradado_sin_nombre_17-16);
      }

      .cls-11 {
        fill: #643800;
      }

      .cls-12 {
        fill: url(#Degradado_sin_nombre_17-14);
      }

      .cls-13 {
        fill: url(#Degradado_sin_nombre_116);
      }

      .cls-4 {
        fill: url(#Degradado_sin_nombre_2);
      }

      .cls-14 {
        fill: url(#Degradado_sin_nombre_17-2);
      }

      .cls-15 {
        fill: url(#Degradado_sin_nombre_22);
      }

      .cls-16 {
        fill: url(#Degradado_sin_nombre_17-8);
      }

      .cls-17 {
        fill: url(#Degradado_sin_nombre_17-4);
      }

      .cls-18 {
        fill: url(#Degradado_sin_nombre_17-15);
      }

      .cls-19 {
        fill: url(#Degradado_sin_nombre_17);
      }

      .cls-20 {
        fill: #1a1a1a;
        stroke: url(#Degradado_sin_nombre_48);
        stroke-miterlimit: 10;
        stroke-width: 2px;
      }

      .cls-21 {
        fill: url(#Degradado_sin_nombre_17-6);
      }

      .cls-22 {
        fill: url(#Degradado_sin_nombre_17-13);
      }

      .cls-23 {
        fill: url(#Degradado_sin_nombre_17-3);
      }

      .cls-24 {
        fill: url(#Degradado_sin_nombre_4);
      }

      .cls-25 {
        fill: url(#Degradado_sin_nombre_17-7);
      }

      .cls-26 {
        fill: url(#Degradado_sin_nombre_117);
      }

      .cls-27 {
        fill: url(#Degradado_sin_nombre_22-4);
      }

      .cls-28 {
        fill: url(#Degradado_sin_nombre_22-2);
      }

      .cls-29 {
        fill: url(#Degradado_sin_nombre_17-11);
      }

      .cls-30 {
        fill: url(#Degradado_sin_nombre_22-5);
      }
    </style>
    <linearGradient id="Degradado_sin_nombre_48" data-name="Degradado sin nombre 48" x1="0" y1="34.1" x2="68.2" y2="34.1" gradientUnits="userSpaceOnUse">
      <stop offset="0" stop-color="#ea1c24"/>
      <stop offset=".54" stop-color="#ea1e79"/>
      <stop offset="1" stop-color="#f9eb21"/>
    </linearGradient>
    <radialGradient id="Degradado_sin_nombre_4" data-name="Degradado sin nombre 4" cx="2720.76" cy="650.04" fx="2720.76" fy="650.04" r=".87" gradientTransform="translate(-94499.78 22608.97) scale(34.74 -34.74)" gradientUnits="userSpaceOnUse">
      <stop offset="0" stop-color="#ffdf30"/>
      <stop offset="1" stop-color="#ffb82e"/>
    </radialGradient>
    <radialGradient id="Degradado_sin_nombre_2" data-name="Degradado sin nombre 2" cx="2698.89" cy="648.58" fx="2698.89" fy="648.58" r=".87" gradientTransform="translate(-73743.13 17752.67) scale(27.33 -27.33)" gradientUnits="userSpaceOnUse">
      <stop offset="0" stop-color="#ffe95f"/>
      <stop offset="1" stop-color="#ffbb47" stop-opacity="0"/>
    </radialGradient>
    <radialGradient id="Degradado_sin_nombre_117" data-name="Degradado sin nombre 117" cx="2613.68" cy="621.48" fx="2613.68" fy="621.48" r=".87" gradientTransform="translate(-38994.02 3402.16) scale(14.93 -5.39)" gradientUnits="userSpaceOnUse">
      <stop offset="0" stop-color="#7a4400" stop-opacity=".5"/>
      <stop offset=".6" stop-color="#894d00" stop-opacity=".2"/>
      <stop offset=".99" stop-color="#965500" stop-opacity="0"/>
    </radialGradient>
    <linearGradient id="Degradado_sin_nombre_22" data-name="Degradado sin nombre 22" x1="23.09" y1="448.11" x2="23.09" y2="450.77" gradientTransform="translate(0 468.97) scale(1 -1)" gradientUnits="userSpaceOnUse">
      <stop offset="0" stop-color="#3c2200"/>
      <stop offset="1" stop-color="#7a4400"/>
    </linearGradient>
    <linearGradient id="Degradado_sin_nombre_22-2" data-name="Degradado sin nombre 22" x1="44.79" x2="44.79" xlink:href="#Degradado_sin_nombre_22"/>
    <radialGradient id="Degradado_sin_nombre_116" data-name="Degradado sin nombre 116" cx="2498.9" cy="644.8" fx="2498.9" fy="644.8" r=".87" gradientTransform="translate(-23122.48 11175.77) scale(9.27 -17.25)" gradientUnits="userSpaceOnUse">
      <stop offset="0" stop-color="#7ceb00"/>
      <stop offset="1" stop-color="#2f9200"/>
    </radialGradient>
    <radialGradient id="Degradado_sin_nombre_115" data-name="Degradado sin nombre 115" cx="2563.79" cy="941.94" fx="2563.79" fy="941.94" r=".87" gradientTransform="translate(-15238.45 19934.8) rotate(-39.9) scale(9.54 -5.79)" gradientUnits="userSpaceOnUse">
      <stop offset="0" stop-color="#fff" stop-opacity=".33"/>
      <stop offset="1" stop-color="#fff" stop-opacity="0"/>
    </radialGradient>
    <linearGradient id="Degradado_sin_nombre_17" data-name="Degradado sin nombre 17" x1="33.94" y1="434.38" x2="33.94" y2="424.12" gradientTransform="translate(0 468.97) scale(1 -1)" gradientUnits="userSpaceOnUse">
      <stop offset="0" stop-color="#3c2200"/>
      <stop offset="1" stop-color="#512d00"/>
    </linearGradient>
    <linearGradient id="Degradado_sin_nombre_114" data-name="Degradado sin nombre 114" x1="33.94" y1="392" x2="33.94" y2="428.27" gradientTransform="translate(0 468.97) scale(1 -1)" gradientUnits="userSpaceOnUse">
      <stop offset="0" stop-color="#7ceb00"/>
      <stop offset="1" stop-color="#2f9200"/>
    </linearGradient>
    <linearGradient id="Degradado_sin_nombre_22-3" data-name="Degradado sin nombre 22" x1="24.55" y1="461.73" x2="24.55" y2="413.02" xlink:href="#Degradado_sin_nombre_22"/>
    <linearGradient id="Degradado_sin_nombre_22-4" data-name="Degradado sin nombre 22" x1="43.3" y1="461.73" x2="43.3" y2="413.02" xlink:href="#Degradado_sin_nombre_22"/>
    <linearGradient id="Degradado_sin_nombre_17-2" data-name="Degradado sin nombre 17" x1="45.28" y1="448" x2="45.28" y2="439.21" xlink:href="#Degradado_sin_nombre_17"/>
    <linearGradient id="Degradado_sin_nombre_17-3" data-name="Degradado sin nombre 17" x1="44.1" y1="447.54" x2="44.1" y2="432.99" xlink:href="#Degradado_sin_nombre_17"/>
    <linearGradient id="Degradado_sin_nombre_17-4" data-name="Degradado sin nombre 17" x1="41.25" y1="448.41" x2="41.25" y2="438.77" xlink:href="#Degradado_sin_nombre_17"/>
    <linearGradient id="Degradado_sin_nombre_17-5" data-name="Degradado sin nombre 17" x1="42.54" y1="439.26" x2="42.54" y2="432.45" xlink:href="#Degradado_sin_nombre_17"/>
    <linearGradient id="Degradado_sin_nombre_17-6" data-name="Degradado sin nombre 17" x1="43.31" y1="446.27" x2="43.31" y2="444.79" xlink:href="#Degradado_sin_nombre_17"/>
    <linearGradient id="Degradado_sin_nombre_17-7" data-name="Degradado sin nombre 17" x1="26.55" y1="448" x2="26.55" y2="439.21" xlink:href="#Degradado_sin_nombre_17"/>
    <linearGradient id="Degradado_sin_nombre_17-8" data-name="Degradado sin nombre 17" x1="25.37" y1="447.54" x2="25.37" y2="432.99" xlink:href="#Degradado_sin_nombre_17"/>
    <linearGradient id="Degradado_sin_nombre_17-9" data-name="Degradado sin nombre 17" x1="22.52" y1="448.41" x2="22.52" y2="438.77" xlink:href="#Degradado_sin_nombre_17"/>
    <linearGradient id="Degradado_sin_nombre_17-10" data-name="Degradado sin nombre 17" x1="23.8" y1="439.26" x2="23.8" y2="432.45" xlink:href="#Degradado_sin_nombre_17"/>
    <linearGradient id="Degradado_sin_nombre_17-11" data-name="Degradado sin nombre 17" x1="24.57" y1="446.27" x2="24.57" y2="444.79" xlink:href="#Degradado_sin_nombre_17"/>
    <linearGradient id="Degradado_sin_nombre_22-5" data-name="Degradado sin nombre 22" x1="33.93" y1="438.95" x2="33.93" y2="402.73" xlink:href="#Degradado_sin_nombre_22"/>
    <linearGradient id="Degradado_sin_nombre_17-12" data-name="Degradado sin nombre 17" x1="35.66" y1="424.36" x2="35.66" y2="416.66" xlink:href="#Degradado_sin_nombre_17"/>
    <linearGradient id="Degradado_sin_nombre_17-13" data-name="Degradado sin nombre 17" x1="34.64" y1="423.96" x2="34.64" y2="411.22" xlink:href="#Degradado_sin_nombre_17"/>
    <linearGradient id="Degradado_sin_nombre_17-14" data-name="Degradado sin nombre 17" x1="32.14" y1="424.72" x2="32.14" y2="416.28" xlink:href="#Degradado_sin_nombre_17"/>
    <linearGradient id="Degradado_sin_nombre_17-15" data-name="Degradado sin nombre 17" x1="33.27" y1="416.71" x2="33.27" y2="410.75" xlink:href="#Degradado_sin_nombre_17"/>
    <linearGradient id="Degradado_sin_nombre_17-16" data-name="Degradado sin nombre 17" x1="33.94" y1="422.84" x2="33.94" y2="421.55" xlink:href="#Degradado_sin_nombre_17"/>
  </defs>
  <g id="Capa_1-2" data-name="Capa 1">
    <g>
      <circle class="cls-20" cx="34.1" cy="34.1" r="33.1"/>
      <g>
        <path class="cls-24" d="m33.94,59.62c13.91,0,25.19-11.28,25.19-25.19s-11.28-25.19-25.19-25.19-25.19,11.28-25.19,25.19,11.28,25.19,25.19,25.19Z"/>
        <path class="cls-4" d="m33.94,59.62c13.91,0,25.19-11.28,25.19-25.19s-11.28-25.19-25.19-25.19-25.19,11.28-25.19,25.19,11.28,25.19,25.19,25.19Z"/>
        <path class="cls-26" d="m33.94,59.62c13.91,0,25.19-11.28,25.19-25.19s-11.28-25.19-25.19-25.19-25.19,11.28-25.19,25.19,11.28,25.19,25.19,25.19Z"/>
        <path class="cls-15" d="m28.4,19.18c0-1.01-1.09-1.64-2.96-1.64-1.59,0-5.1.88-7.51,3.98-.45.57.23.89.68.52,1.49-1.27,5.46-2.88,8.56-2.54,1.24.14,1.23-.32,1.23-.32Z"/>
        <path class="cls-28" d="m39.48,19.18c0-1.01,1.09-1.64,2.96-1.64,1.59,0,5.1.88,7.51,3.98.45.57-.23.89-.68.52-1.49-1.27-5.46-2.88-8.56-2.54-1.24.14-1.23-.32-1.23-.32Z"/>
        <path class="cls-11" d="m33.94,50.94c-13.23,0-17.47-13.48-13.44-11.38,5.41,2.84,8.83,3.66,13.44,3.66s8.02-.82,13.44-3.66c4.03-2.1-.21,11.38-13.44,11.38Z"/>
        <path class="cls-13" d="m41.89,45.42c0-.81-.77-1.41-1.56-1.17-1.87.56-4.01.89-6.4.89s-4.52-.34-6.4-.89c-.77-.23-1.56.36-1.56,1.17v7.16c0,4.39,3.56,8.13,7.95,8.13s7.95-3.74,7.95-8.13v-7.16Z"/>
        <path class="cls-7" d="m41.89,45.42c0-.81-.77-1.41-1.56-1.17-1.87.56-4.01.89-6.4.89s-4.52-.34-6.4-.89c-.77-.23-1.56.36-1.56,1.17v7.16c0,4.39,3.56,8.13,7.95,8.13s7.95-3.74,7.95-8.13v-7.16Z"/>
        <path class="cls-19" d="m47.38,39.57c-5.41,2.84-8.83,3.66-13.44,3.66s-8.02-.82-13.44-3.66c-1.41-.74-1.8.42-1.17,2.24,0-.04.21-1.98,2.11-.64,0,0,.01,0,.01.01,2.82,2.17,6.97,3.96,12.49,3.96s9.67-1.79,12.49-3.96c0,0,.01,0,.01-.01,1.9-1.35,2.11.6,2.11.64.63-1.82.22-2.98-1.17-2.24Z"/>
        <path class="cls-2" d="m33.94,45.15c-2.39,0-4.52-.34-6.4-.89-.77-.23-1.56.36-1.56,1.17v3.01s.09-1.91,7.95-1.91,7.95,1.91,7.95,1.91v-3.01c0-.81-.77-1.41-1.56-1.17-1.87.55-4.01.89-6.4.89Z"/>
        <path class="cls-3" d="m33.94,45.15c-.28,0-.55-.02-.82-.04.01,9.59.37,12.95.82,12.95s.81-3.3.82-12.95c-.27,0-.54.04-.82.04Z"/>
        <path class="cls-5" d="m25.06,35.89v1.61h-.97v-1.61c-1.92-.18-3.17-1.34-3.28-3.03h1.5c.04,1.12.9,1.82,2.3,1.82s2.2-.67,2.2-1.64c0-1.09-.67-1.43-1.84-1.78l-1.46-.42c-1.43-.42-2.55-1.22-2.55-2.79,0-1.68,1.23-2.87,3.14-3.03v-1.63h.97v1.64c1.75.2,2.89,1.34,2.98,3h-1.46c-.06-1.11-.88-1.82-2.16-1.82s-2.02.67-2.02,1.7c0,.94.74,1.36,1.68,1.63l1.82.53c1.8.53,2.41,1.57,2.41,2.86.02,1.7-1.3,2.81-3.25,2.98Z"/>
        <path class="cls-27" d="m43.79,35.89v1.61h-.97v-1.61c-1.92-.18-3.17-1.34-3.28-3.03h1.5c.04,1.12.9,1.82,2.3,1.82s2.2-.67,2.2-1.64c0-1.09-.67-1.43-1.84-1.78l-1.46-.42c-1.43-.42-2.55-1.22-2.55-2.79,0-1.68,1.23-2.87,3.14-3.03v-1.63h.97v1.64c1.75.2,2.89,1.34,2.98,3h-1.46c-.06-1.11-.88-1.82-2.16-1.82s-2.02.67-2.02,1.7c0,.94.74,1.36,1.68,1.63l1.82.53c1.82.53,2.44,1.56,2.44,2.85,0,1.71-1.32,2.82-3.27,2.99Z"/>
        <path class="cls-14" d="m43.79,25.54c1.56.18,2.64,1.11,2.92,2.5h.07c-.09-1.66-1.23-2.8-2.98-3v.5h-.01Z"/>
        <path class="cls-23" d="m44.63,30.05l-1.82-.53c-.84-.23-1.53-.61-1.65-1.38-.01.08-.02.18-.02.26,0,.94.74,1.36,1.68,1.63l1.82.53c1.65.48,2.3,1.41,2.4,2.55,0-.07.02-.13.02-.2,0-1.29-.62-2.32-2.43-2.86Z"/>
        <path class="cls-17" d="m42.82,25.51v-.5c-1.91.16-3.14,1.36-3.14,3.03,0,.09.01.16.02.26.13-1.55,1.31-2.64,3.12-2.79Z"/>
        <path class="cls-9" d="m41.04,33.36c.04,1.12.9,1.82,2.3,1.82s2.2-.67,2.2-1.64c0-.11-.01-.2-.02-.29-.12.84-.91,1.42-2.18,1.42-1.39,0-2.26-.69-2.3-1.82h-1.5c.01.18.05.34.08.5h1.42Z"/>
        <path class="cls-21" d="m43.79,23.38h-.97v.5h.97v-.5Z"/>
        <path class="cls-25" d="m25.06,25.54c1.56.18,2.64,1.11,2.92,2.5h.07c-.09-1.66-1.23-2.8-2.98-3v.5h-.01Z"/>
        <path class="cls-16" d="m25.9,30.05l-1.82-.53c-.84-.23-1.53-.61-1.65-1.38-.01.08-.02.18-.02.26,0,.94.74,1.36,1.68,1.63l1.82.53c1.65.48,2.3,1.41,2.4,2.55,0-.07.02-.13.02-.2,0-1.29-.62-2.32-2.43-2.86Z"/>
        <path class="cls-6" d="m24.09,25.51v-.5c-1.91.16-3.14,1.36-3.14,3.03,0,.09.01.16.02.26.13-1.55,1.31-2.64,3.12-2.79Z"/>
        <path class="cls-8" d="m22.31,33.36c.04,1.12.9,1.82,2.3,1.82s2.2-.67,2.2-1.64c0-.11-.01-.2-.02-.29-.12.84-.91,1.42-2.18,1.42-1.39,0-2.26-.69-2.3-1.82h-1.5c.01.18.05.34.08.5h1.42Z"/>
        <path class="cls-29" d="m25.06,23.38h-.97v.5h.97v-.5Z"/>
        <path class="cls-30" d="m34.36,57.67v1.41h-.84v-1.41c-1.69-.15-2.78-1.17-2.87-2.66h1.31c.04.98.78,1.59,2,1.59s1.93-.59,1.93-1.44c0-.96-.59-1.25-1.61-1.56l-1.28-.37c-1.25-.37-2.24-1.07-2.24-2.44,0-1.46,1.08-2.52,2.75-2.66v-1.41h.84v1.44c1.52.16,2.53,1.17,2.61,2.62h-1.29c-.05-.97-.77-1.59-1.89-1.59s-1.76.59-1.76,1.48c0,.82.64,1.18,1.46,1.42l1.59.47c1.57.47,2.11,1.37,2.11,2.5,0,1.5-1.16,2.47-2.86,2.61Z"/>
        <path class="cls-1" d="m34.36,48.6c1.37.15,2.31.97,2.54,2.18h.06c-.08-1.45-1.08-2.46-2.61-2.62v.45h.01Z"/>
        <path class="cls-22" d="m35.11,52.56l-1.59-.47c-.74-.21-1.34-.54-1.44-1.21-.01.07-.02.15-.02.23,0,.82.64,1.18,1.46,1.42l1.59.47c1.44.42,2.02,1.23,2.1,2.23,0-.06.01-.12.01-.18,0-1.12-.54-2.04-2.11-2.5Z"/>
        <path class="cls-12" d="m33.52,48.59v-.45c-1.66.14-2.75,1.18-2.75,2.66,0,.08.01.15.02.22.11-1.35,1.15-2.31,2.73-2.44Z"/>
        <path class="cls-18" d="m31.96,55.46c.04.98.78,1.59,2,1.59s1.93-.59,1.93-1.44c0-.09-.01-.18-.02-.26-.11.74-.8,1.24-1.91,1.24-1.22,0-1.98-.6-2-1.59h-1.31c.01.15.04.3.07.45h1.24Z"/>
        <path class="cls-10" d="m34.36,46.73h-.84v.45h.84v-.45Z"/>
      </g>
    </g>
  </g>
</svg>