<?xml version="1.0" encoding="UTF-8"?>
<svg id="Capa_2" data-name="Capa 2" xmlns="http://www.w3.org/2000/svg" viewBox="0 0 217.35 216.92">
  <g id="Capa_1-2" data-name="Capa 1">
    <path d="m0,67.87c1.29-4.6,2.18-8.86,6.16-11.99,3.88-3.06,9.23-4.15,13.89-5.45,11.07-3.1,22.11-6.27,33.17-9.39,22.96-6.48,45.92-12.95,68.88-19.42,22.88-6.45,45.73-13.07,68.65-19.38,5.06-1.39,10.31-3.17,15.55-1.69,4.3,1.22,7.76,4.56,9.69,8.56,2.46,5.09,1.12,10.37-.31,15.52-1.59,5.7-3.19,11.41-4.79,17.11-12.69,45.18-25.63,90.28-38.29,135.46-1.59,5.67-3.17,11.34-4.78,17.01-1.35,4.78-2.3,10.12-4.7,14.51-4.38,8.01-14.92,10.76-22.53,5.49-3.52-2.44-5.64-6.2-7.46-9.97-2.56-5.29-5.02-10.63-7.54-15.95-4.97-10.49-9.94-20.98-14.92-31.47-2.51-5.27-5.02-10.55-7.51-15.83-2.42-5.13-4.5-10.62-7.3-15.55-2.49-4.4-7.94-5.86-12.27-7.88-5.23-2.45-10.45-4.91-15.67-7.38-10.78-5.1-21.56-10.21-32.34-15.33-5.37-2.55-10.73-5.11-16.09-7.68-4.58-2.2-9.69-4.08-13.63-7.36-3.72-3.1-5.24-7.13-5.51-11.86l-.35-.09Zm15.96.06c0,.1.01.21.02.31.83.34,1.69.65,2.5,1.04,3.85,1.85,7.68,3.74,11.53,5.57,12.62,5.99,25.24,11.97,37.88,17.94,10.01,4.73,20.04,9.41,30.04,14.15.87.41,1.28,0,1.8-.51,13.06-13.01,26.13-26.02,39.21-39.01.85-.84,1.78-1.65,2.81-2.25,3.85-2.26,7.92-1.08,10.23,2.2,2.33,3.31,1.86,7.23-1.01,10.12-12.98,13.04-25.99,26.04-39.01,39.04-2.02,2.02-2.05,1.97-.8,4.6,4.96,10.45,9.91,20.89,14.86,31.34,6.98,14.72,13.95,29.44,20.92,44.16.72,1.52,1.49,3.02,2.23,4.53.11,0,.23-.01.34-.02,17.43-61.79,34.87-123.59,52.37-185.63-62.22,17.54-124.07,34.99-185.93,52.43Z"/>
  </g>
</svg>