<?xml version="1.0" encoding="UTF-8"?>
<svg id="Capa_2" data-name="Capa 2" xmlns="http://www.w3.org/2000/svg" viewBox="0 0 535.48 30.87">
  <defs>
    <style>
      .cls-1 {
        fill: #ff005f;
      }

      .cls-2 {
        fill: #f2f2f2;
      }
    </style>
  </defs>
  <g id="Capa_1-2" data-name="Capa 1">
    <g>
      <path class="cls-2" d="m6.06,26.69c.21-.04.47,0,.68,0,.42-.04.81-.04,1.23-.13.42-.04.72-.26.85-.74.08-.3.13-.61.17-.91v-3.94c0-.39.08-.78.08-1.17v-4.84c0-.91,0-1.82-.04-2.72,0-.22-.04-.43-.04-.61,0-.39,0-.74.04-1.12.04-.43.04-.86.04-1.3.04-.26.04-.56.04-.82v-.17c-.08-1.04,0-2.08-.04-3.11-.04-.82-.08-1.64-.08-2.42v-.48c0-.61-.04-1.17.13-1.82.04,0,.13-.04.21-.04.08-.04.21,0,.3,0,.76,0,1.53-.09,2.25-.13.47-.04.89-.04,1.36-.04.08.09.17.17.3.26v.43c0,.6-.04,1.21-.04,1.82,0,1.25.04,2.51.04,3.76,0,2.77-.04,5.54-.04,8.3,0,2.25.04,4.5.04,6.75.08.95.04,1.9.04,2.85,0,.65,0,1.3-.08,1.9-.08.78-.3,1.51-.64,2.16-.17.26-.34.52-.55.73-.34.35-.72.69-1.15.99-.25.13-.47.26-.72.3-.68.22-1.31.35-2.04.3-.38,0-.76,0-1.14-.04-.55-.04-1.06-.04-1.61.04h-.93c-.17,0-.3-.04-.47-.04-.47,0-.89-.17-1.27-.35-.47-.22-.89-.43-1.31-.73-.38-.3-.68-.65-.89-1.04-.34-.73-.55-1.51-.64-2.29-.17-1.38-.13-2.81-.08-4.19v-6.27c0-.3,0-.61.08-.91v-3.68c0-.22-.04-.43-.04-.61,0-.13-.04-.26-.04-.39v-1.3c0-.09,0-.17.04-.26.04-.43.04-.86.04-1.25V.75C.12.62.12.44.21.36c.04-.04.08-.09.13-.09h4.07c.13.13.13.22.13.35.04.78.04,1.56.04,2.29-.04,1.12,0,2.21,0,3.33,0,1.77-.04,3.55-.04,5.28,0,.69.04,1.34,0,1.99-.08,1.08-.04,2.16-.04,3.2,0,.65-.04,1.25,0,1.82.08.86.04,1.69.08,2.55,0,1.08,0,2.16-.04,3.29v.69c.04.48.17.91.51,1.25.08.09.13.17.17.22.34.13.59.17.85.17Z"/>
      <path class="cls-2" d="m41.38,13.2c.04-.69.04-1.38.04-2.08,0-.39-.04-.82-.04-1.25,0-.91,0-1.86.04-2.81.04-.52,0-.99,0-1.47V1.14c0-.13,0-.3.13-.43.08-.04.13-.04.25-.09h.72c.93-.04,1.91-.09,2.88-.09.13,0,.25,0,.38.09v.04c.08.86.17,1.73.08,2.59-.04.3-.04.65-.04.99,0,1.25.04,2.51.04,3.76,0,.22,0,.43-.04.65,0,.56.08,1.08.08,1.6,0,.61-.04,1.21-.04,1.82v1.73c.04.61.04,1.17.04,1.73-.04.69-.21,1.47-.13,2.16.04.26.04.52.04.74,0,1.86.04,3.68,0,5.49v5.97c0,.3-.04.61-.13.91-.17.09-.38.09-.55.04-.51-.09-1.02-.09-1.53-.09h-1.65c-.17,0-.34.04-.51,0-.04-.09-.08-.17-.08-.26v-4.5c0-.17-.04-.35-.13-.52-.42-1.12-.85-2.29-1.31-3.42-.17-.43-.38-.86-.55-1.34-.38-.87-.76-1.73-1.06-2.64-.21-.65-.47-1.25-.72-1.9-.08-.13-.13-.3-.25-.48v.43c-.04.39,0,.74,0,1.08,0,.26,0,.52-.08.78v.26c0,.61-.04,1.25.04,1.9.04.22,0,.43,0,.69v2.25c.04,1.51.04,3.03.04,4.54,0,.52,0,1.04-.08,1.51-.04.26,0,.52,0,.78,0,.22-.04.48-.17.73-.21,0-.42.04-.64.04h-2.97c-.08,0-.17-.04-.25-.04-.17,0-.3-.04-.42-.17v-.26c-.04-.82-.04-1.6-.04-2.42-.08-1.04-.04-2.08-.04-3.11,0-2.12,0-4.24.04-6.36v-2.77c.08-1.73.04-3.42,0-5.15-.04-.48,0-.95.04-1.43V1.22c0-.26.04-.48.21-.69h1.36c.21,0,.42-.04.64-.04.25-.04.47-.04.68-.04.47.04.89.09,1.31.09.04,0,.08.04.17.04.04.13.08.26.13.39.38,1.12.68,2.25,1.02,3.42.17.56.3,1.17.47,1.73l.76,2.59c.3.95.64,1.9,1.02,2.85.13.39.25.78.38,1.17.08.26.21.48.3.73,0,.04.04.04.13.13v-.39Z"/>
      <path class="cls-2" d="m72.58.05c.42,0,.85.04,1.27.09.64.09,1.27.22,1.87.52.08.09.21.13.38.13.76.22,1.15,1.04,1.53,1.64.38.69.51,1.56.55,2.33.04.3.13.65.13.99.13.95,0,1.9,0,2.85,0,.61.04,1.21,0,1.82,0,.39-.04.82-.04,1.21v.17c0,.95-.04,1.9,0,2.85.04,1.99.04,4.02.04,6.01,0,.69,0,1.34-.04,2.03,0,.82,0,2.12-.04,2.94,0,.61-.04,1.17-.08,1.77,0,.69,0,1.43-.04,2.12,0,.22,0,.43-.04.61-.04.3-.21.48-.51.48-.51,0-.98,0-1.48.04-.25,0-.55-.09-.85-.09-.21-.04-.38-.04-.59-.04-.25-.04-.55,0-.81,0-.08-.22-.17-.48-.17-.69-.04-1.17-.04-2.29-.04-3.46,0-1.56.04-3.5.04-5.02,0-.52.04-1.08.04-1.6,0-.26-.04-.52-.04-.78,0-.09-.04-.13-.04-.22-.13-.04-.21-.09-.34-.09h-3.39c-.13.22-.13.48-.17.74v1.34c0,.39-.04.78-.04,1.17,0,.17.04.39.04.56v.3c0,.35-.04.65-.04.99v3.16c0,.65-.04,1.25-.04,1.9-.04.52-.04,1.04-.08,1.56,0,.04,0,.13-.04.17-.17.04-.38.04-.55.09-.59,0-1.15.04-1.74.04-.34,0-.68-.04-1.02-.04-.25,0-.55.04-.81.04h-.17c-.08-.13-.13-.26-.13-.39-.08-1.17,0-2.34,0-3.55,0-.56,0-1.56.04-2.12v-1.47c0-1.47,0-2.9-.04-4.37v-2.25c0-.65,0-1.25-.04-1.9-.04-1.25,0-2.55,0-3.85-.04-.39-.04-.82-.04-1.21.04-.78.04-1.51.04-2.29.04-.39.04-.82.04-1.21,0-.52.08-1.04.13-1.56.08-.26.08-.56.13-.86.17-.95.55-1.99,1.4-2.55.89-.61,2.16-1.04,3.27-1.08.72,0,1.4-.04,2.12,0h.47Zm1.1,14.01c0-1.08.04-2.12.04-3.2,0-.61-.04-1.17-.04-1.77,0,0-.04-.04-.04-.09,0-.3-.04-.61-.04-.91,0-.74.04-1.47.04-2.25,0-.17-.04-.3-.08-.48s-.13-.3-.17-.48c-.08-.17-.21-.26-.38-.3-.17-.04-.34-.09-.51-.13-.47-.09-.93-.22-1.44-.13-.34.04-.68.22-.85.52-.17.26-.3.56-.38.87-.13.65-.13,1.3-.17,1.95v5.97c0,.22.04.43.08.65.17,0,.34.04.51.04h1.48c.25,0,.47-.04.72-.04h1.23v-.22Z"/>
      <path class="cls-1" d="m104.81.1c.76.09,1.48.09,2.21.3.3.09.55.17.81.35.3.17.64.35.89.56.47.43.76.95.93,1.56.13.43.17.87.21,1.3.13,1.34.08,2.72.08,4.11,0,.04-.04.09-.04.13-.08.13-.21.09-.34.09h-3.86c-.04-.09-.08-.17-.08-.26-.08-.61-.13-1.21-.08-1.77,0-.39,0-.78-.13-1.17,0-.09-.04-.17-.08-.26-.13-.39-.38-.69-.76-.82-.21-.09-.47-.17-.68-.22-.42-.04-.89.13-1.27.35-.25.13-.42.43-.47.73-.08.35-.17.74-.17,1.08-.04.82-.08,1.64,0,2.46.04.74.04,1.51.08,2.29,0,.48.04.91.17,1.34.13.48.42.82.89.91.51.09.93.13,1.44.13.47,0,.89.04,1.36.04.38-.04.76.04,1.15.09.3.04.51.17.76.3.47.3.81.69,1.15,1.08.21.22.3.48.42.73.08.26.21.56.25.87.13.35.17.69.21,1.04.17,1.6.08,3.16.08,4.71.04.52.04,1.04.04,1.51.04.78.08,1.47,0,2.25-.08.48-.13.99-.21,1.47-.13.52-.3,1.04-.55,1.47-.3.6-.76,1.04-1.36,1.38-.55.3-1.19.43-1.82.43-.64.04-1.27.04-1.95.09-.34.04-.76.04-1.15.04-.34-.04-.72,0-1.06-.04-.55-.04-1.1-.13-1.61-.3-.17-.04-.34-.17-.47-.26-.25-.17-.47-.35-.68-.56-.34-.3-.68-.65-.93-1.04-.3-.43-.42-.95-.51-1.47-.13-.65-.08-1.34-.08-2.03-.04-.74,0-1.51,0-2.34-.04-.13-.04-.3-.04-.43-.04-.13-.04-.26.04-.35.04-.04.08-.04.08-.04.47-.04.93-.09,1.4-.09.76-.04,1.48-.09,2.25-.17h.38c.17.09.21.26.21.39-.08.61-.08,1.21-.04,1.82s.04,1.21.21,1.86c.17.56.59.91,1.15.95h.51c.25,0,.55,0,.89-.04.17-.09.38-.26.59-.39.25-.39.38-.78.38-1.21-.04-1.21,0-2.46-.04-3.63,0-.48,0-.91-.08-1.34-.04-.56-.17-1.12-.38-1.64-.17-.52-.55-.78-1.02-.86-.25-.04-.51-.09-.81-.13s-.59-.09-.89-.04c-.59,0-1.14-.09-1.7-.13-.21,0-.38-.04-.55-.13-.13-.04-.3-.13-.47-.17-.04-.04-.13-.04-.17-.13-.55-.48-1.1-.95-1.4-1.69-.21-.61-.38-1.21-.47-1.82-.04-.13-.04-.26-.04-.43v-4.28c0-.3-.04-.61-.04-.91-.04-.43-.08-.82,0-1.17.04-.17.04-.3.04-.43v-1.25c0-.26.08-.52.08-.82,0-.26.04-.52.08-.78.08-.6.34-1.12.72-1.6.25-.3.55-.56.85-.82.17-.13.38-.22.59-.3.42-.13.81-.26,1.23-.35.34-.09.72-.04,1.06-.13.17-.09.38-.04.55-.04.64,0,1.19,0,1.82.04.08.04.13.04.21.04Z"/>
      <path class="cls-1" d="m139.32,4.03c-.13.17-.34.26-.55.26-.85,0-1.7,0-2.54.04-.68,0-1.31.04-1.99.04-.13,0-.21.04-.34.04-.08.09-.08.17-.08.26-.04,1.47-.04,2.94-.04,4.37v.43c0,.56.04,1.08.04,1.64.04.09.13.13.21.13.13,0,.25-.04.38,0h3.39c.3,0,.55,0,.81.04h.13v2.29c0,.52.04,1.08.04,1.6v.17c-.34.09-.64.22-1.02.22h-2.16c-.59-.04-1.15,0-1.74,0h-.08v.22c0,.65.04,1.3,0,1.9-.04.82,0,1.6-.04,2.38-.08.95-.04,1.95-.04,2.9,0,.56.04,1.17.04,1.77v1.56c0,.13,0,.26.13.35.04,0,.13.04.21.04.59,0,1.19-.04,1.74,0,.59,0,1.19.04,1.78.09.3,0,.55,0,.85.04.21,0,.42,0,.64.04.04,0,.13.04.17.04.08,1.25.13,2.51.08,3.81h-.25c-.81.04-1.65.04-2.5.04-.38.04-.72.09-1.1.04-1.36-.04-2.71,0-4.07-.04-.13,0-.3,0-.42-.04-.38-.09-.81-.09-1.19-.09h-.3c-.08-.13-.13-.26-.13-.39-.04-.87-.04-1.73-.08-2.59,0-.39,0-.78.04-1.17,0-.48.04-.95.04-1.43,0-.3-.04-.61-.04-.86v-.22c-.04-.91-.08-1.86-.04-2.81v-3.11c0-.3-.04-.61,0-.95,0-.43.04-.86.04-1.34v-.82c0-.17-.04-.35-.04-.56v-1.43c0-.39,0-.78-.04-1.17-.04-.35,0-.69,0-1.04s0-.69.04-.99c0-.61,0-1.17.04-1.73.04-1.04.04-2.08,0-3.07v-1.43c0-.69,0-1.38.04-2.08,0-.22.04-.43.04-.65.04-.13.13-.22.25-.26,1.02-.09,1.99-.09,3.01-.04.76,0,1.48,0,2.25.04h1.7c.72-.04,1.44-.04,2.12-.04h.34c.08,0,.21-.04.34,0,.04,1.21-.04,2.34-.08,3.55Z"/>
      <path class="cls-1" d="m160.23.4c.42,0,.81,0,1.23-.04.13-.04.3-.04.42-.04h1.7c.34,0,.64,0,.98.04.13.04.3.04.47.04h2.93c.34,0,.64.09.93.3.38.26.72.52,1.1.78.42.35.64.82.85,1.3.21.52.34,1.04.34,1.6-.04.3,0,.65.04.95v.78c.04.99.08,1.95.08,2.9v3.37c0,.48,0,.86-.04,1.3-.04.35,0,.69,0,1.04,0,.39-.04.78-.13,1.17-.17.78-.38,1.56-.81,2.25-.21.3-.47.61-.81.82-.04,0-.13.04-.21.13.04.09,0,.22.04.3.13.74.25,1.47.47,2.16.13.61.25,1.21.34,1.82.08.48.17.99.25,1.47.08.43.13.86.21,1.3.04.17.08.39.17.56.08.52.17,1.08.25,1.6.13.65.17,1.34.34,1.95.04.04,0,.09,0,.17-.04,0-.08.04-.13.04-1.4,0-2.76,0-4.16-.04h-.13c-.13-.13-.13-.26-.17-.39-.04-.43-.17-.87-.21-1.34,0-.35-.08-.65-.17-.99-.17-.86-.34-1.77-.51-2.64-.13-.61-.3-1.21-.42-1.86-.04-.22-.08-.48-.13-.69-.04-.3-.04-.56-.08-.78-.08-.52-.21-1.04-.3-1.56,0-.09-.04-.17-.04-.26-.38-.09-1.31-.09-1.7,0-.08.04-.04.17-.04.26v1.99c0,2.08,0,4.15-.04,6.23,0,.3,0,.65.04.99,0,.3-.08.61-.13.95-.04.09-.08.13-.13.22-.04.04-.13.09-.21.04-.42-.04-.85-.04-1.27,0-.21.04-.38.04-.59.04h-1.95c-.17-.13-.21-.3-.21-.48-.04-.09-.04-.22-.04-.3v-3.76c-.13-.78-.08-1.51-.08-2.29v-1.17c0-.22.04-.43.04-.69.04-.13.04-.3.04-.43v-5.84c0-.3.04-.61.08-.91v-.3c0-1.04.04-2.08-.04-3.11,0-.74-.04-1.43-.04-2.16,0-.35,0-.65.08-.99v-3.46c-.04-.39-.04-.82-.04-1.21,0-.52.04-1.08.04-1.64V.53s.04-.04.08-.13h1.4Zm2.97,4.02c0,.86-.04,1.73,0,2.59v8.39c0,.13.04.17.13.26h2.59c.38-.09.64-.35.72-.74.04-.22.08-.43.08-.65,0-.56,0-1.12.04-1.69,0-.69.04-1.38.04-2.08v-2.21c0-.39,0-.73-.04-1.12,0-.48,0-.95-.04-1.43v-.52c-.04-.26-.17-.52-.38-.65-.17-.13-.3-.22-.47-.26-.3-.13-.64-.17-.93-.22h-1.27c-.13,0-.3.04-.47.13v.17Z"/>
      <path class="cls-1" d="m194.4,30.8c-.34-.04-.72-.04-1.06,0h-.17c-.76,0-1.53,0-2.29.04-.04,0-.08-.04-.13-.04-.13-.13-.13-.26-.17-.39v-.3c0-1.25.04-2.51-.04-3.76-.04-1.08,0-2.21-.04-3.33,0-.22.04-.43.04-.65.04-.17.04-.35.04-.52v-6.01c0-.26,0-.52.08-.73v-3.59c0-.22-.04-.43-.04-.65-.04-.69-.04-1.34,0-1.99.04-1.08.04-2.16.04-3.24,0-.43,0-.86-.04-1.3-.04-.09,0-.17,0-.26.08-.86.04-1.73.04-2.55v-.61c0-.13.04-.22.04-.3.17-.13.3-.17.47-.17h3.73s.04,0,.08.04c.08.13.08.3.08.43,0,.61.04,1.25.04,1.86,0,.56,0,1.17-.04,1.73,0,.39.04.73-.04,1.08v.56c.08.56.04,1.12.04,1.69v4.89c0,.22,0,.43-.04.65v.22c.08.69.08,1.38,0,2.03v.22c0,.82-.04,1.69,0,2.51.13,1.6.08,3.16.08,4.76,0,1.82-.04,3.63-.04,5.49,0,.3,0,.65.04.99,0,.35-.08.65-.13.99,0,.09-.04.13-.13.22h-.47Z"/>
      <path class="cls-1" d="m224.38,4.03c-.13.17-.34.26-.55.26-.85,0-1.7,0-2.54.04-.68,0-1.31.04-1.99.04-.13,0-.21.04-.34.04-.08.09-.08.17-.08.26-.04,1.47-.04,2.94-.04,4.37v.43c0,.56.04,1.08.04,1.64.04.09.13.13.21.13.13,0,.25-.04.38,0h3.39c.3,0,.55,0,.81.04h.13v2.29c0,.52.04,1.08.04,1.6v.17c-.34.09-.64.22-1.02.22h-2.16c-.59-.04-1.15,0-1.74,0h-.08v.22c0,.65.04,1.3,0,1.9-.04.82,0,1.6-.04,2.38-.08.95-.04,1.95-.04,2.9,0,.56.04,1.17.04,1.77v1.56c0,.13,0,.26.13.35.04,0,.13.04.21.04.59,0,1.19-.04,1.74,0,.59,0,1.19.04,1.78.09.3,0,.55,0,.85.04.21,0,.42,0,.64.04.04,0,.13.04.17.04.08,1.25.13,2.51.08,3.81h-.25c-.81.04-1.65.04-2.5.04-.38.04-.72.09-1.1.04-1.36-.04-2.71,0-4.07-.04-.13,0-.3,0-.42-.04-.38-.09-.81-.09-1.19-.09h-.3c-.08-.13-.13-.26-.13-.39-.04-.87-.04-1.73-.08-2.59,0-.39,0-.78.04-1.17,0-.48.04-.95.04-1.43,0-.3-.04-.61-.04-.86v-.22c-.04-.91-.08-1.86-.04-2.81v-3.11c0-.3-.04-.61,0-.95,0-.43.04-.86.04-1.34v-.82c0-.17-.04-.35-.04-.56v-1.43c0-.39,0-.78-.04-1.17-.04-.35,0-.69,0-1.04s0-.69.04-.99c0-.61,0-1.17.04-1.73.04-1.04.04-2.08,0-3.07v-1.43c0-.69,0-1.38.04-2.08,0-.22.04-.43.04-.65.04-.13.13-.22.25-.26,1.02-.09,1.99-.09,3.01-.04.76,0,1.48,0,2.25.04h1.7c.72-.04,1.44-.04,2.12-.04h.34c.08,0,.21-.04.34,0,.04,1.21-.04,2.34-.08,3.55Z"/>
      <path class="cls-2" d="m250.07,30.63h-2.59c-.3,0-.59,0-.89.04-.21.04-.38.09-.59-.09-.08-.09-.04-.22-.04-.35-.04-.39,0-.74-.04-1.12,0-1.08-.04-2.12-.04-3.2v-3.59c0-.87-.04-1.77,0-2.64.08-1.9.04-3.81.08-5.66.04-1.08,0-2.12,0-3.2v-3.85c.04-.78,0-1.56,0-2.38l-.04-.04c-.04-.09-.17-.09-.25-.09h-3.01c-.08,0-.21-.04-.3-.09-.04-.35-.04-.65-.04-.99,0-.3.04-.65.04-.95v-.95c0-.35-.04-.65.04-.99.04-.04.13-.09.17-.09h11.28c.08,0,.13.04.21.09,0,.09.04.09.04.17,0,.95,0,1.9-.04,2.9,0,.26-.04.56-.08.82-.13.13-.3.09-.42.09h-3.05c-.13.09-.08.22-.08.3v3.29c0,.39-.04.82.04,1.25v.13c0,.65.04,1.34,0,1.99-.04.65-.04,1.25-.08,1.9,0,.26.04.52,0,.78v2.51c0,.13-.04.26-.04.39s-.04.26,0,.39c.08.52.04,1.04.08,1.56.08,1.6.04,3.2.04,4.8,0,.3.04.61-.04.86-.04.13,0,.22,0,.35,0,1.25,0,2.51-.04,3.76,0,.26.04.52.04.78,0,.39-.04.74-.17,1.08-.08.04-.13.04-.17.04Z"/>
      <path class="cls-2" d="m273.6.4c.42,0,.81,0,1.23-.04.13-.04.3-.04.42-.04h1.7c.34,0,.64,0,.98.04.13.04.3.04.47.04h2.93c.34,0,.64.09.93.3.38.26.72.52,1.1.78.42.35.64.82.85,1.3.21.52.34,1.04.34,1.6-.04.3,0,.65.04.95v.78c.04.99.08,1.95.08,2.9v3.37c0,.48,0,.86-.04,1.3-.04.35,0,.69,0,1.04,0,.39-.04.78-.13,1.17-.17.78-.38,1.56-.81,2.25-.21.3-.47.61-.81.82-.04,0-.13.04-.21.13.04.09,0,.22.04.3.13.74.25,1.47.47,2.16.13.61.25,1.21.34,1.82.08.48.17.99.25,1.47.08.43.13.86.21,1.3.04.17.08.39.17.56.08.52.17,1.08.25,1.6.13.65.17,1.34.34,1.95.04.04,0,.09,0,.17-.04,0-.08.04-.13.04-1.4,0-2.76,0-4.16-.04h-.13c-.13-.13-.13-.26-.17-.39-.04-.43-.17-.87-.21-1.34,0-.35-.08-.65-.17-.99-.17-.86-.34-1.77-.51-2.64-.13-.61-.3-1.21-.42-1.86-.04-.22-.08-.48-.13-.69-.04-.3-.04-.56-.08-.78-.08-.52-.21-1.04-.3-1.56,0-.09-.04-.17-.04-.26-.38-.09-1.31-.09-1.7,0-.08.04-.04.17-.04.26v1.99c0,2.08,0,4.15-.04,6.23,0,.3,0,.65.04.99,0,.3-.08.61-.13.95-.04.09-.08.13-.13.22-.04.04-.13.09-.21.04-.42-.04-.85-.04-1.27,0-.21.04-.38.04-.59.04h-1.95c-.17-.13-.21-.3-.21-.48-.04-.09-.04-.22-.04-.3v-3.76c-.13-.78-.08-1.51-.08-2.29v-1.17c0-.22.04-.43.04-.69.04-.13.04-.3.04-.43v-5.84c0-.3.04-.61.08-.91v-.3c0-1.04.04-2.08-.04-3.11,0-.74-.04-1.43-.04-2.16,0-.35,0-.65.08-.99v-3.46c-.04-.39-.04-.82-.04-1.21,0-.52.04-1.08.04-1.64V.53s.04-.04.08-.13h1.4Zm2.97,4.02c0,.86-.04,1.73,0,2.59v8.39c0,.13.04.17.13.26h2.59c.38-.09.64-.35.72-.74.04-.22.08-.43.08-.65,0-.56,0-1.12.04-1.69,0-.69.04-1.38.04-2.08v-2.21c0-.39,0-.73-.04-1.12,0-.48,0-.95-.04-1.43v-.52c-.04-.26-.17-.52-.38-.65-.17-.13-.3-.22-.47-.26-.3-.13-.64-.17-.93-.22h-1.27c-.13,0-.3.04-.47.13v.17Z"/>
      <path class="cls-2" d="m311.47.05c.42,0,.85.04,1.27.09.64.09,1.27.22,1.87.52.08.09.21.13.38.13.76.22,1.15,1.04,1.53,1.64.38.69.51,1.56.55,2.33.04.3.13.65.13.99.13.95,0,1.9,0,2.85,0,.61.04,1.21,0,1.82,0,.39-.04.82-.04,1.21v.17c0,.95-.04,1.9,0,2.85.04,1.99.04,4.02.04,6.01,0,.69,0,1.34-.04,2.03,0,.82,0,2.12-.04,2.94,0,.61-.04,1.17-.08,1.77,0,.69,0,1.43-.04,2.12,0,.22,0,.43-.04.61-.04.3-.21.48-.51.48-.51,0-.98,0-1.48.04-.25,0-.55-.09-.85-.09-.21-.04-.38-.04-.59-.04-.25-.04-.55,0-.81,0-.08-.22-.17-.48-.17-.69-.04-1.17-.04-2.29-.04-3.46,0-1.56.04-3.5.04-5.02,0-.52.04-1.08.04-1.6,0-.26-.04-.52-.04-.78,0-.09-.04-.13-.04-.22-.13-.04-.21-.09-.34-.09h-3.39c-.13.22-.13.48-.17.74v1.34c0,.39-.04.78-.04,1.17,0,.17.04.39.04.56v.3c0,.35-.04.65-.04.99v3.16c0,.65-.04,1.25-.04,1.9-.04.52-.04,1.04-.08,1.56,0,.04,0,.13-.04.17-.17.04-.38.04-.55.09-.59,0-1.15.04-1.74.04-.34,0-.68-.04-1.02-.04-.25,0-.55.04-.81.04h-.17c-.08-.13-.13-.26-.13-.39-.08-1.17,0-2.34,0-3.55,0-.56,0-1.56.04-2.12v-1.47c0-1.47,0-2.9-.04-4.37v-2.25c0-.65,0-1.25-.04-1.9-.04-1.25,0-2.55,0-3.85-.04-.39-.04-.82-.04-1.21.04-.78.04-1.51.04-2.29.04-.39.04-.82.04-1.21,0-.52.08-1.04.13-1.56.08-.26.08-.56.13-.86.17-.95.55-1.99,1.4-2.55.89-.61,2.16-1.04,3.27-1.08.72,0,1.4-.04,2.12,0h.47Zm1.1,14.01c0-1.08.04-2.12.04-3.2,0-.61-.04-1.17-.04-1.77,0,0-.04-.04-.04-.09,0-.3-.04-.61-.04-.91,0-.74.04-1.47.04-2.25,0-.17-.04-.3-.08-.48s-.13-.3-.17-.48c-.08-.17-.21-.26-.38-.3-.17-.04-.34-.09-.51-.13-.47-.09-.93-.22-1.44-.13-.34.04-.68.22-.85.52-.17.26-.3.56-.38.87-.13.65-.13,1.3-.17,1.95v5.97c0,.22.04.43.08.65.17,0,.34.04.51.04h1.48c.25,0,.47-.04.72-.04h1.23v-.22Z"/>
      <path class="cls-2" d="m345.05,13.2c.04-.69.04-1.38.04-2.08,0-.39-.04-.82-.04-1.25,0-.91,0-1.86.04-2.81.04-.52,0-.99,0-1.47V1.14c0-.13,0-.3.13-.43.08-.04.13-.04.25-.09h.72c.93-.04,1.91-.09,2.88-.09.13,0,.25,0,.38.09v.04c.08.86.17,1.73.08,2.59-.04.3-.04.65-.04.99,0,1.25.04,2.51.04,3.76,0,.22,0,.43-.04.65,0,.56.08,1.08.08,1.6,0,.61-.04,1.21-.04,1.82v1.73c.04.61.04,1.17.04,1.73-.04.69-.21,1.47-.13,2.16.04.26.04.52.04.74,0,1.86.04,3.68,0,5.49v5.97c0,.3-.04.61-.13.91-.17.09-.38.09-.55.04-.51-.09-1.02-.09-1.53-.09h-1.65c-.17,0-.34.04-.51,0-.04-.09-.08-.17-.08-.26v-4.5c0-.17-.04-.35-.13-.52-.42-1.12-.85-2.29-1.31-3.42-.17-.43-.38-.86-.55-1.34-.38-.87-.76-1.73-1.06-2.64-.21-.65-.47-1.25-.72-1.9-.08-.13-.13-.3-.25-.48v.43c-.04.39,0,.74,0,1.08,0,.26,0,.52-.08.78v.26c0,.61-.04,1.25.04,1.9.04.22,0,.43,0,.69v2.25c.04,1.51.04,3.03.04,4.54,0,.52,0,1.04-.08,1.51-.04.26,0,.52,0,.78,0,.22-.04.48-.17.73-.21,0-.42.04-.64.04h-2.97c-.08,0-.17-.04-.25-.04-.17,0-.3-.04-.42-.17v-.26c-.04-.82-.04-1.6-.04-2.42-.08-1.04-.04-2.08-.04-3.11,0-2.12,0-4.24.04-6.36v-2.77c.08-1.73.04-3.42,0-5.15-.04-.48,0-.95.04-1.43V1.22c0-.26.04-.48.21-.69h1.36c.21,0,.42-.04.64-.04.25-.04.47-.04.68-.04.47.04.89.09,1.31.09.04,0,.08.04.17.04.04.13.08.26.13.39.38,1.12.68,2.25,1.02,3.42.17.56.3,1.17.47,1.73l.76,2.59c.3.95.64,1.9,1.02,2.85.13.39.25.78.38,1.17.08.26.21.48.3.73,0,.04.04.04.13.13v-.39Z"/>
      <path class="cls-2" d="m376,.1c.76.09,1.48.09,2.21.3.3.09.55.17.81.35.3.17.64.35.89.56.47.43.76.95.93,1.56.13.43.17.87.21,1.3.13,1.34.08,2.72.08,4.11,0,.04-.04.09-.04.13-.08.13-.21.09-.34.09h-3.86c-.04-.09-.08-.17-.08-.26-.08-.61-.13-1.21-.08-1.77,0-.39,0-.78-.13-1.17,0-.09-.04-.17-.08-.26-.13-.39-.38-.69-.76-.82-.21-.09-.47-.17-.68-.22-.42-.04-.89.13-1.27.35-.25.13-.42.43-.47.73-.08.35-.17.74-.17,1.08-.04.82-.08,1.64,0,2.46.04.74.04,1.51.08,2.29,0,.48.04.91.17,1.34.13.48.42.82.89.91.51.09.93.13,1.44.13.47,0,.89.04,1.36.04.38-.04.76.04,1.15.09.3.04.51.17.76.3.47.3.81.69,1.15,1.08.21.22.3.48.42.73.08.26.21.56.25.87.13.35.17.69.21,1.04.17,1.6.08,3.16.08,4.71.04.52.04,1.04.04,1.51.04.78.08,1.47,0,2.25-.08.48-.13.99-.21,1.47-.13.52-.3,1.04-.55,1.47-.3.6-.76,1.04-1.36,1.38-.55.3-1.19.43-1.82.43-.64.04-1.27.04-1.95.09-.34.04-.76.04-1.15.04-.34-.04-.72,0-1.06-.04-.55-.04-1.1-.13-1.61-.3-.17-.04-.34-.17-.47-.26-.25-.17-.47-.35-.68-.56-.34-.3-.68-.65-.93-1.04-.3-.43-.42-.95-.51-1.47-.13-.65-.08-1.34-.08-2.03-.04-.74,0-1.51,0-2.34-.04-.13-.04-.3-.04-.43-.04-.13-.04-.26.04-.35.04-.04.08-.04.08-.04.47-.04.93-.09,1.4-.09.76-.04,1.48-.09,2.25-.17h.38c.17.09.21.26.21.39-.08.61-.08,1.21-.04,1.82s.04,1.21.21,1.86c.17.56.59.91,1.15.95h.51c.25,0,.55,0,.89-.04.17-.09.38-.26.59-.39.25-.39.38-.78.38-1.21-.04-1.21,0-2.46-.04-3.63,0-.48,0-.91-.08-1.34-.04-.56-.17-1.12-.38-1.64-.17-.52-.55-.78-1.02-.86-.25-.04-.51-.09-.81-.13s-.59-.09-.89-.04c-.59,0-1.14-.09-1.7-.13-.21,0-.38-.04-.55-.13-.13-.04-.3-.13-.47-.17-.04-.04-.13-.04-.17-.13-.55-.48-1.1-.95-1.4-1.69-.21-.61-.38-1.21-.47-1.82-.04-.13-.04-.26-.04-.43v-4.28c0-.3-.04-.61-.04-.91-.04-.43-.08-.82,0-1.17.04-.17.04-.3.04-.43v-1.25c0-.26.08-.52.08-.82,0-.26.04-.52.08-.78.08-.6.34-1.12.72-1.6.25-.3.55-.56.85-.82.17-.13.38-.22.59-.3.42-.13.81-.26,1.23-.35.34-.09.72-.04,1.06-.13.17-.09.38-.04.55-.04.64,0,1.19,0,1.82.04.08.04.13.04.21.04Z"/>
      <path class="cls-2" d="m412.59.75h4.2c.25,0,.51.04.72.26.08.35.08.65.04.99-.04.43,0,.82,0,1.21.04.13.04.26.04.39v7.35c0,.52,0,1.04-.04,1.56-.04.61-.04,1.25-.04,1.9v3.33c0,.52.04,1.04.04,1.56,0,1.17-.04,2.29-.04,3.42,0,.35.04.65.08.99v.26c-.08.56-.04,1.12-.04,1.64-.04.13,0,.26,0,.39,0,1.04.04,2.03.08,3.07,0,.52,0,.99-.13,1.51-.08.04-.17.09-.25.09-.51.09-1.06.09-1.61.09-.76-.04-1.57-.09-2.33-.09h-.13c-.13-.17-.08-.39-.04-.56,0-.17.04-.35.04-.56v-4.84c.04-.78.04-1.51.04-2.25,0-.26.04-.52.04-.73,0-.56.04-1.08,0-1.6-.08-1.3-.04-2.55-.04-3.85,0-.09-.04-.22-.04-.3t-.04-.09c-.04.09-.08.13-.08.17-.25.99-.55,1.99-.76,2.98-.3,1.21-.55,2.46-.81,3.72-.21.99-.47,2.03-.68,2.98-.04.26-.13.48-.17.69-1.02.09-1.99,0-2.97.04-.08,0-.13-.04-.21-.04t-.08-.09c-.13-.52-.3-1.04-.38-1.56-.25-1.12-.51-2.25-.76-3.37,0-.04,0-.09-.04-.13-.25-.73-.38-1.51-.59-2.25-.21-.86-.42-1.73-.68-2.59,0-.09-.04-.17-.08-.3-.04.17-.04.26-.04.3v7.87c0,.52,0,1.08.04,1.6,0,1.43.04,2.85.04,4.32,0,.13.04.3-.04.52-.47.04-.93-.04-1.4-.04s-.93-.04-1.44-.04h-1.36c-.13-.04-.17-.17-.17-.26,0-.61-.04-1.21-.04-1.77,0-1.51.04-3.03.04-4.54,0-.43.04-.82.04-1.21v-1.82c0-.26-.04-.52-.04-.82v-4.97c0-.22.04-.39.04-.61.04-.35.04-.69,0-1.04-.04-.09-.04-.22-.04-.3,0-1.21,0-2.42-.04-3.63,0-.69,0-1.34-.04-2.03,0-.22.04-.43.04-.69,0-.22.04-.43.04-.69V1.65c0-.3,0-.61.13-.91.21-.04.42-.09.68-.09.38,0,.72-.04,1.06-.04.17,0,.34-.04.51-.04s.34-.04.51-.04c.3,0,.64.04.93-.04.08-.04.17-.04.25-.04.3.04.64.09.93.09.08.04.17.09.25.13.17.39.21.78.3,1.12.13.48.21.95.3,1.43.17.74.3,1.43.47,2.16.13.52.25,1.08.38,1.6.25,1.12.51,2.21.76,3.33.3,1.3.55,2.59.85,3.94.04.17.04.35.21.52,0-.04.04-.09.08-.13.17-.65.42-1.3.51-2.03.04-.13.08-.3.08-.43.04-.3.08-.61.21-.86.13-.39.17-.78.25-1.12.13-.6.25-1.21.38-1.82.08-.35.17-.69.25-1.04.13-.52.21-.99.38-1.47.17-.61.25-1.25.38-1.9.13-.48.21-.99.34-1.47.08-.39.17-.78.25-1.17,0-.17.04-.35.13-.56h.34Z"/>
      <path class="cls-2" d="m446.85,4.03c-.13.17-.34.26-.55.26-.85,0-1.7,0-2.54.04-.68,0-1.31.04-1.99.04-.13,0-.21.04-.34.04-.08.09-.08.17-.08.26-.04,1.47-.04,2.94-.04,4.37v.43c0,.56.04,1.08.04,1.64.04.09.13.13.21.13.13,0,.25-.04.38,0h3.39c.3,0,.55,0,.81.04h.13v2.29c0,.52.04,1.08.04,1.6v.17c-.34.09-.64.22-1.02.22h-2.16c-.59-.04-1.15,0-1.74,0h-.08v.22c0,.65.04,1.3,0,1.9-.04.82,0,1.6-.04,2.38-.08.95-.04,1.95-.04,2.9,0,.56.04,1.17.04,1.77v1.56c0,.13,0,.26.13.35.04,0,.13.04.21.04.59,0,1.19-.04,1.74,0,.59,0,1.19.04,1.78.09.3,0,.55,0,.85.04.21,0,.42,0,.64.04.04,0,.13.04.17.04.08,1.25.13,2.51.08,3.81h-.25c-.81.04-1.65.04-2.5.04-.38.04-.72.09-1.1.04-1.36-.04-2.71,0-4.07-.04-.13,0-.3,0-.42-.04-.38-.09-.81-.09-1.19-.09h-.3c-.08-.13-.13-.26-.13-.39-.04-.87-.04-1.73-.08-2.59,0-.39,0-.78.04-1.17,0-.48.04-.95.04-1.43,0-.3-.04-.61-.04-.86v-.22c-.04-.91-.08-1.86-.04-2.81v-3.11c0-.3-.04-.61,0-.95,0-.43.04-.86.04-1.34v-.82c0-.17-.04-.35-.04-.56v-1.43c0-.39,0-.78-.04-1.17-.04-.35,0-.69,0-1.04s0-.69.04-.99c0-.61,0-1.17.04-1.73.04-1.04.04-2.08,0-3.07v-1.43c0-.69,0-1.38.04-2.08,0-.22.04-.43.04-.65.04-.13.13-.22.25-.26,1.02-.09,1.99-.09,3.01-.04.76,0,1.48,0,2.25.04h1.7c.72-.04,1.44-.04,2.12-.04h.34c.08,0,.21-.04.34,0,.04,1.21-.04,2.34-.08,3.55Z"/>
      <path class="cls-2" d="m466.78.57c.25-.04.51-.04.76-.04.51-.04,1.06-.09,1.57-.09h.13c.81,0,1.7-.04,2.54,0,.64,0,1.31,0,1.95.04.55,0,1.06.04,1.57,0,.3,0,.64.09.93.26.08.04.21.09.3.13.17.09.3.13.47.26.17.09.34.22.51.39.13.13.25.26.38.43.25.26.47.56.64.86.25.39.38.82.42,1.25.08.35.13.69.17,1.04v.3c0,.35.04.65.04.99v2.38c.04.52.04,1.04.08,1.56,0,.26,0,.52-.04.78,0,.69,0,1.43-.04,2.16v.52c0,.61.04,1.25.04,1.86,0,1.08,0,2.12.04,3.16,0,.3.04.65,0,.95,0,.26-.04.48-.04.69v5.75c0,.65-.08,1.3-.34,1.95-.13.22-.21.48-.38.69-.42.6-.93,1.08-1.57,1.43-.13.04-.25.04-.38.09-.47.09-.98.13-1.44.13-.51.04-.98.09-1.48.13-.42.04-.89.09-1.36.04-.51-.04-1.02,0-1.53,0h-1.44s-.08-.04-.17-.04c-.72,0-1.44,0-2.16-.04h-.51c-.17-.04-.25-.13-.25-.26-.04-.09-.04-.22-.04-.3,0-.65,0-1.3-.04-1.95v-3.68c0-.43-.04-.87,0-1.3.04-1.04,0-2.03.04-3.03,0-.78.04-1.51,0-2.25-.04-1.47,0-2.94-.04-4.41,0-.74.04-1.47.04-2.21,0-.26.04-.56.08-.82,0-.26,0-.52.04-.78v-2.25c-.04-.86-.04-1.73-.04-2.55,0-.3-.04-.56-.08-.82v-1.95c0-.39.04-.78.04-1.12,0-.09.04-.17.04-.26.21-.04.38-.09.55-.09Zm4.2,25.95c.21-.04.38,0,.59.04.13,0,.25-.04.38-.04.64-.04,1.27,0,1.91-.13.21-.09.38-.13.59-.26.13-.09.17-.22.21-.39.04-.52.04-1.04.08-1.51.04-.65.04-1.25.04-1.86.04-1.25.04-2.51.04-3.72,0-.61,0-1.17-.04-1.73v-1.08c0-.48-.04-.91-.04-1.38,0-.35.04-.69,0-1.04,0-.74-.04-1.43-.04-2.12,0-.91,0-1.82.04-2.68,0-.91.04-1.82-.04-2.68,0-.22-.04-.43-.08-.65-.08-.22-.17-.48-.38-.61-.3-.22-.64-.35-1.06-.35h-2.04c-.08,0-.17.04-.25.04-.13.04-.17.13-.17.3v.43c0,.39-.04.82-.04,1.21.04.74.04,1.47.04,2.16.04,1.43,0,2.85.04,4.28.08,2.46.04,4.93-.04,7.35,0,.3-.04.61,0,.95v.22c-.04.48-.04.99-.08,1.47-.08.56-.04,1.17-.08,1.73,0,.26.08.48,0,.73v.13c.04.3.04.61.08.91,0,.09.04.17.04.3.13-.04.21-.04.3-.04Z"/>
      <path class="cls-2" d="m502.27,30.8c-.34-.04-.72-.04-1.06,0h-.17c-.76,0-1.53,0-2.29.04-.04,0-.08-.04-.13-.04-.13-.13-.13-.26-.17-.39v-.3c0-1.25.04-2.51-.04-3.76-.04-1.08,0-2.21-.04-3.33,0-.22.04-.43.04-.65.04-.17.04-.35.04-.52v-6.01c0-.26,0-.52.08-.73v-3.59c0-.22-.04-.43-.04-.65-.04-.69-.04-1.34,0-1.99.04-1.08.04-2.16.04-3.24,0-.43,0-.86-.04-1.3-.04-.09,0-.17,0-.26.08-.86.04-1.73.04-2.55v-.61c0-.13.04-.22.04-.3.17-.13.3-.17.47-.17h3.73s.04,0,.08.04c.08.13.08.3.08.43,0,.61.04,1.25.04,1.86,0,.56,0,1.17-.04,1.73,0,.39.04.73-.04,1.08v.56c.08.56.04,1.12.04,1.69v4.89c0,.22,0,.43-.04.65v.22c.08.69.08,1.38,0,2.03v.22c0,.82-.04,1.69,0,2.51.13,1.6.08,3.16.08,4.76,0,1.82-.04,3.63-.04,5.49,0,.3,0,.65.04.99,0,.35-.08.65-.13.99,0,.09-.04.13-.13.22h-.47Z"/>
      <path class="cls-2" d="m529.7.05c.42,0,.85.04,1.27.09.64.09,1.27.22,1.87.52.08.09.21.13.38.13.76.22,1.15,1.04,1.53,1.64.38.69.51,1.56.55,2.33.04.3.13.65.13.99.13.95,0,1.9,0,2.85,0,.61.04,1.21,0,1.82,0,.39-.04.82-.04,1.21v.17c0,.95-.04,1.9,0,2.85.04,1.99.04,4.02.04,6.01,0,.69,0,1.34-.04,2.03,0,.82,0,2.12-.04,2.94,0,.61-.04,1.17-.08,1.77,0,.69,0,1.43-.04,2.12,0,.22,0,.43-.04.61-.04.3-.21.48-.51.48-.51,0-.98,0-1.48.04-.25,0-.55-.09-.85-.09-.21-.04-.38-.04-.59-.04-.25-.04-.55,0-.81,0-.08-.22-.17-.48-.17-.69-.04-1.17-.04-2.29-.04-3.46,0-1.56.04-3.5.04-5.02,0-.52.04-1.08.04-1.6,0-.26-.04-.52-.04-.78,0-.09-.04-.13-.04-.22-.13-.04-.21-.09-.34-.09h-3.39c-.13.22-.13.48-.17.74v1.34c0,.39-.04.78-.04,1.17,0,.17.04.39.04.56v.3c0,.35-.04.65-.04.99v3.16c0,.65-.04,1.25-.04,1.9-.04.52-.04,1.04-.08,1.56,0,.04,0,.13-.04.17-.17.04-.38.04-.55.09-.59,0-1.15.04-1.74.04-.34,0-.68-.04-1.02-.04-.25,0-.55.04-.81.04h-.17c-.08-.13-.13-.26-.13-.39-.08-1.17,0-2.34,0-3.55,0-.56,0-1.56.04-2.12v-1.47c0-1.47,0-2.9-.04-4.37v-2.25c0-.65,0-1.25-.04-1.9-.04-1.25,0-2.55,0-3.85-.04-.39-.04-.82-.04-1.21.04-.78.04-1.51.04-2.29.04-.39.04-.82.04-1.21,0-.52.08-1.04.13-1.56.08-.26.08-.56.13-.86.17-.95.55-1.99,1.4-2.55.89-.61,2.16-1.04,3.27-1.08.72,0,1.4-.04,2.12,0h.47Zm1.1,14.01c0-1.08.04-2.12.04-3.2,0-.61-.04-1.17-.04-1.77,0,0-.04-.04-.04-.09,0-.3-.04-.61-.04-.91,0-.74.04-1.47.04-2.25,0-.17-.04-.3-.08-.48s-.13-.3-.17-.48c-.08-.17-.21-.26-.38-.3-.17-.04-.34-.09-.51-.13-.47-.09-.93-.22-1.44-.13-.34.04-.68.22-.85.52-.17.26-.3.56-.38.87-.13.65-.13,1.3-.17,1.95v5.97c0,.22.04.43.08.65.17,0,.34.04.51.04h1.48c.25,0,.47-.04.72-.04h1.23v-.22Z"/>
    </g>
  </g>
</svg>