<?xml version="1.0" encoding="UTF-8"?>
<svg id="Capa_2" data-name="Capa 2" xmlns="http://www.w3.org/2000/svg" viewBox="0 0 95.14 83.75">
  <defs>
    <style>
      .cls-1 {
        fill: #fff;
      }
    </style>
  </defs>
  <g id="Capa_1-2" data-name="Capa 1">
    <g>
      <path class="cls-1" d="m46.8,83.75c-11.11,0-22.22,0-33.33-.01-3.65,0-6.77-1.23-9.28-3.65-2.23-2.15-3.57-4.69-3.99-7.57-.12-.83-.18-1.64-.18-2.41C0,51.14,0,32.17.01,13.21c0-3.35,1.17-6.33,3.47-8.85C5.48,2.18,7.99.79,10.95.24c.8-.15,1.68-.23,2.6-.23C20.54,0,27.52,0,34.51,0h31.71c5.17,0,10.35,0,15.52,0,3.3,0,6.16,1.02,8.49,3.01,3.25,2.78,4.9,6.29,4.9,10.45,0,12.45,0,51.08,0,51.08v1.87c.01,1.36.02,2.72,0,4.08-.11,5.6-3.33,10.32-8.42,12.3-1.62.63-3.3.95-5,.95h-34.92Zm33.53-3.7c.56,0,1.13,0,1.69-.02,1.88-.06,3.35-.47,4.65-1.28,3.1-1.93,4.74-4.75,4.75-8.15.03-16.37.02-32.75.01-49.12v-8.46c0-.59-.06-1.16-.18-1.68-.71-3.12-2.52-5.39-5.37-6.76-1.64-.79-3.34-.89-4.63-.89h-32.34s-34.91,0-34.91,0c-.8,0-1.46.04-2.08.13-5.35.74-8.24,5.41-8.24,9.43.01,18.98,0,37.97,0,56.96,0,1.16.14,2.16.43,3.06,1.05,3.25,3.23,5.39,6.47,6.37,1.25.38,2.48.41,3.83.41h.41,0,65.49Z"/>
      <path class="cls-1" d="m35.9,63.86c-.44,0-.8-.18-1.14-.56-.75-.86-.63-2.75-.54-4.28.03-.52.06-1.02.06-1.45v-16.65h0v-12.67c0-.68-.01-1.36-.02-2.04-.02-1.44-.05-2.93.05-4.36.03-.42.23-1.81,1.61-1.99.07,0,.14-.01.2-.01.98,0,2.11.9,3.11,1.69.34.27.66.53.97.74l5.49,3.87c1.65,1.17,3.29,2.34,4.94,3.52,1.99,1.42,3.97,2.84,5.97,4.25l5.29,3.7c.39.27.84.55,1.3.84,1.17.73,2.5,1.56,3.1,2.48.26.4.86,1.34-1.15,2.85-1.51,1.13-3.08,2.24-4.6,3.31,0,0-4.73,3.35-6.66,4.72-5.25,3.73-10.68,7.58-16.07,11.29-.71.49-1.37.75-1.9.75Zm2.1-5.36l23.52-16.61-23.52-16.63v33.24Z"/>
    </g>
  </g>
</svg>